<?xml version="1.0" encoding="UTF-8" standalone="no"?>
<!-- Created with Inkscape (http://www.inkscape.org/) -->

<svg
   xmlns:dc="http://purl.org/dc/elements/1.1/"
   xmlns:cc="http://creativecommons.org/ns#"
   xmlns:rdf="http://www.w3.org/1999/02/22-rdf-syntax-ns#"
   xmlns:svg="http://www.w3.org/2000/svg"
   xmlns="http://www.w3.org/2000/svg"
   xmlns:sodipodi="http://sodipodi.sourceforge.net/DTD/sodipodi-0.dtd"
   xmlns:inkscape="http://www.inkscape.org/namespaces/inkscape"
   viewBox="0 0 191.15625 98.15625"
   preserveAspectRatio="xMidYMid"
   id="svg2"
   version="1.1"
   inkscape:version="0.48.4 r9939"
   sodipodi:docname="infeed-backup.svg"
   width="100%"
   height="100%">
  <defs
     id="defs4">
    <marker
       inkscape:stockid="Arrow1Lend"
       orient="auto"
       refY="0"
       refX="0"
       id="Arrow1Lend"
       style="overflow:visible">
      <path
         id="path4473"
         d="M 0,0 5,-5 -12.5,0 5,5 0,0 z"
         style="fill-rule:evenodd;stroke:#000000;stroke-width:1pt"
         transform="matrix(-0.8,0,0,-0.8,-10,0)"
         inkscape:connector-curvature="0" />
    </marker>
  </defs>
  <sodipodi:namedview
     id="base"
     pagecolor="#ffffff"
     bordercolor="#666666"
     borderopacity="1.0"
     inkscape:pageopacity="0.0"
     inkscape:pageshadow="2"
     inkscape:zoom="0.70000001"
     inkscape:cx="81.067577"
     inkscape:cy="32.540735"
     inkscape:document-units="px"
     inkscape:current-layer="layer2"
     showgrid="false"
     showguides="true"
     inkscape:guide-bbox="true"
     inkscape:window-width="1600"
     inkscape:window-height="838"
     inkscape:window-x="1358"
     inkscape:window-y="142"
     inkscape:window-maximized="1"
     fit-margin-top="0"
     fit-margin-left="0"
     fit-margin-right="0"
     fit-margin-bottom="0">
    <sodipodi:guide
       orientation="0,1"
       position="-262.9911,101.52165"
       id="guide3985" />
    <sodipodi:guide
       orientation="1,0"
       position="-351.1769,-532.59715"
       id="guide5504" />
  </sodipodi:namedview>
  <metadata
     id="metadata7">
    <rdf:RDF>
      <cc:Work
         rdf:about="">
        <dc:format>image/svg+xml</dc:format>
        <dc:type
           rdf:resource="http://purl.org/dc/dcmitype/StillImage" />
        <dc:title />
      </cc:Work>
    </rdf:RDF>
  </metadata>
  <g
     inkscape:groupmode="layer"
     id="layer7"
     inkscape:label="Rejecter"
     transform="translate(-811.5625,-560.59375)" />
  <g
     inkscape:groupmode="layer"
     id="layer2"
     inkscape:label="Schematic"
     style="display:inline"
     transform="translate(-811.5625,-560.59375)" />
  <g
     inkscape:label="Layer 1"
     inkscape:groupmode="layer"
     id="layer1"
     style="display:inline"
     transform="translate(-811.5625,-560.59375)" />
  <g
     inkscape:groupmode="layer"
     id="layer3"
     inkscape:label="TopPlate"
     style="display:inline"
     transform="translate(-811.5625,-560.59375)" />
  <g
     inkscape:groupmode="layer"
     id="layer4"
     inkscape:label="Conveyor"
     style="display:inline"
     transform="translate(-811.5625,-560.59375)">
    <rect
       style="fill:#eeeeee;stroke:#333333;stroke-width:0.2;stroke-linecap:round;stroke-linejoin:round;stroke-miterlimit:4;stroke-opacity:1;stroke-dasharray:none;stroke-dashoffset:0;display:inline"
       id="rect3995-7"
       width="28.711899"
       height="11.886966"
       x="1314.3019"
       y="521.39557" />
    <rect
       style="fill:#eeeeee;stroke:#333333;stroke-width:0.2;stroke-linecap:round;stroke-linejoin:round;stroke-miterlimit:4;stroke-opacity:1;stroke-dasharray:none;stroke-dashoffset:0"
       id="rect4007-1"
       width="6.4137797"
       height="6.4890761"
       x="1305.3638"
       y="530.9505" />
    <rect
       style="fill:#eeeeee;stroke:#333333;stroke-width:0.2;stroke-linecap:round;stroke-linejoin:round;stroke-miterlimit:4;stroke-opacity:1;stroke-dasharray:none;stroke-dashoffset:0;display:inline"
       id="rect3993-0"
       width="32.860386"
       height="48.871216"
       x="1322.2384"
       y="531.44836"
       rx="0"
       ry="0" />
    <rect
       rx="1.6251711"
       style="fill:#eeeeee;fill-opacity:1;fill-rule:nonzero;stroke:#333333;stroke-width:0.2;stroke-linecap:round;stroke-linejoin:round;stroke-miterlimit:4;stroke-opacity:1;stroke-dasharray:none;stroke-dashoffset:0;display:inline"
       id="rect3989-7"
       width="4.257658"
       height="11.863749"
       x="1302.8934"
       y="528.24451"
       ry="1.6251711" />
    <rect
       style="fill:#eeeeee;fill-opacity:1;fill-rule:nonzero;stroke:#333333;stroke-width:0.2;stroke-linecap:round;stroke-linejoin:round;stroke-miterlimit:4;stroke-opacity:1;stroke-dasharray:none;stroke-dashoffset:0;display:inline"
       id="rect3991-3"
       width="31.87785"
       height="3.2503421"
       x="1313.483"
       y="532.60925"
       ry="1.6251711"
       rx="1.6251711" />
    <rect
       style="fill:#888888;fill-opacity:1;fill-rule:nonzero;stroke:#333333;stroke-width:0.2;stroke-linecap:round;stroke-linejoin:round;stroke-miterlimit:4;stroke-opacity:1;stroke-dasharray:none;stroke-dashoffset:0;display:inline"
       id="rect4014-4"
       width="2.893024"
       height="24.180223"
       x="1337.0507"
       y="560.23065" />
    <rect
       style="fill:#666666;fill-opacity:1;fill-rule:nonzero;stroke:#333333;stroke-width:0.2;stroke-linecap:round;stroke-linejoin:round;stroke-miterlimit:4;stroke-opacity:1;stroke-dasharray:none;stroke-dashoffset:0;display:inline"
       id="rect4012-9"
       width="6.5229502"
       height="13.721087"
       x="1335.2766"
       y="547.76324" />
    <path
       style="fill:none;stroke:#000000;stroke-width:0.1;stroke-linecap:butt;stroke-linejoin:miter;stroke-miterlimit:4;stroke-opacity:1;stroke-dasharray:none"
       d="m 1336.1658,551.19118 4.6124,0.012"
       id="path4018-65"
       inkscape:connector-curvature="0" />
    <path
       style="fill:none;stroke:#000000;stroke-width:0.1;stroke-linecap:butt;stroke-linejoin:miter;stroke-miterlimit:4;stroke-opacity:1;stroke-dasharray:none"
       d="m 1336.1658,550.93008 4.6124,0.012"
       id="path4018-6-1"
       inkscape:connector-curvature="0" />
    <path
       style="fill:none;stroke:#000000;stroke-width:0.1;stroke-linecap:butt;stroke-linejoin:miter;stroke-miterlimit:4;stroke-opacity:1;stroke-dasharray:none"
       d="m 1336.1658,550.64168 4.6124,0.012"
       id="path4018-8-0"
       inkscape:connector-curvature="0" />
    <path
       style="fill:none;stroke:#000000;stroke-width:0.1;stroke-linecap:butt;stroke-linejoin:miter;stroke-miterlimit:4;stroke-opacity:1;stroke-dasharray:none"
       d="m 1336.1658,550.29538 4.6124,0.012"
       id="path4018-5-9"
       inkscape:connector-curvature="0" />
    <path
       style="fill:none;stroke:#000000;stroke-width:0.1;stroke-linecap:butt;stroke-linejoin:miter;stroke-miterlimit:4;stroke-opacity:1;stroke-dasharray:none"
       d="m 1336.1658,549.41778 4.6124,0.012"
       id="path4018-5-7-9"
       inkscape:connector-curvature="0" />
    <path
       style="fill:none;stroke:#000000;stroke-width:0.1;stroke-linecap:butt;stroke-linejoin:miter;stroke-miterlimit:4;stroke-opacity:1;stroke-dasharray:none"
       d="m 1336.1658,548.48278 4.6124,0.012"
       id="path4018-5-6-6"
       inkscape:connector-curvature="0" />
    <path
       style="fill:none;stroke:#000000;stroke-width:0.1;stroke-linecap:butt;stroke-linejoin:miter;stroke-miterlimit:4;stroke-opacity:1;stroke-dasharray:none"
       d="m 1336.1658,557.67008 4.6124,-0.012"
       id="path4018-1-8"
       inkscape:connector-curvature="0" />
    <path
       style="fill:none;stroke:#000000;stroke-width:0.1;stroke-linecap:butt;stroke-linejoin:miter;stroke-miterlimit:4;stroke-opacity:1;stroke-dasharray:none"
       d="m 1336.1658,557.93118 4.6124,-0.012"
       id="path4018-6-8-3"
       inkscape:connector-curvature="0" />
    <path
       style="fill:none;stroke:#000000;stroke-width:0.1;stroke-linecap:butt;stroke-linejoin:miter;stroke-miterlimit:4;stroke-opacity:1;stroke-dasharray:none"
       d="m 1336.1658,558.21958 4.6124,-0.012"
       id="path4018-8-9-4"
       inkscape:connector-curvature="0" />
    <path
       style="fill:none;stroke:#000000;stroke-width:0.1;stroke-linecap:butt;stroke-linejoin:miter;stroke-miterlimit:4;stroke-opacity:1;stroke-dasharray:none"
       d="m 1336.1658,558.56588 4.6124,-0.012"
       id="path4018-5-2-8"
       inkscape:connector-curvature="0" />
    <path
       style="fill:none;stroke:#000000;stroke-width:0.1;stroke-linecap:butt;stroke-linejoin:miter;stroke-miterlimit:4;stroke-opacity:1;stroke-dasharray:none"
       d="m 1336.1658,559.44338 4.6124,-0.012"
       id="path4018-5-7-7-4"
       inkscape:connector-curvature="0" />
    <path
       style="fill:none;stroke:#000000;stroke-width:0.1;stroke-linecap:butt;stroke-linejoin:miter;stroke-miterlimit:4;stroke-opacity:1;stroke-dasharray:none"
       d="m 1336.1658,560.37848 4.6124,-0.012"
       id="path4018-5-6-9-9"
       inkscape:connector-curvature="0" />
    <path
       style="fill:none;stroke:#000000;stroke-width:0.07552643;stroke-linecap:butt;stroke-linejoin:miter;stroke-miterlimit:4;stroke-opacity:1;stroke-dasharray:none"
       d="m 1337.1992,566.39948 2.5638,0.012"
       id="path4018-54-9"
       inkscape:connector-curvature="0" />
    <path
       style="fill:none;stroke:#000000;stroke-width:0.07552643;stroke-linecap:butt;stroke-linejoin:miter;stroke-miterlimit:4;stroke-opacity:1;stroke-dasharray:none"
       d="m 1337.1992,566.13158 2.5638,0.012"
       id="path4018-6-3-2"
       inkscape:connector-curvature="0" />
    <path
       style="fill:none;stroke:#000000;stroke-width:0.07552643;stroke-linecap:butt;stroke-linejoin:miter;stroke-miterlimit:4;stroke-opacity:1;stroke-dasharray:none"
       d="m 1337.1992,565.83558 2.5638,0.012"
       id="path4018-8-1-5"
       inkscape:connector-curvature="0" />
    <path
       style="fill:none;stroke:#000000;stroke-width:0.07552643;stroke-linecap:butt;stroke-linejoin:miter;stroke-miterlimit:4;stroke-opacity:1;stroke-dasharray:none"
       d="m 1337.1992,565.48018 2.5638,0.012"
       id="path4018-5-23-5"
       inkscape:connector-curvature="0" />
    <rect
       style="fill:#eeeeee;fill-opacity:1;fill-rule:nonzero;stroke:#808080;stroke-width:0.2;stroke-linecap:round;stroke-linejoin:round;stroke-miterlimit:4;stroke-opacity:1;stroke-dasharray:none;stroke-dashoffset:0;display:inline"
       id="rect3987-3"
       width="21.561216"
       height="32.062305"
       x="1313.8651"
       y="540.96729" />
    <path
       style="fill:#eeeeee;stroke:#333333;stroke-width:0.2;stroke-linecap:butt;stroke-linejoin:miter;stroke-miterlimit:4;stroke-opacity:1;stroke-dasharray:none;display:inline"
       d="m 1315.311,583.28101 -0.273,-73.89891 c 0,0 -1.0917,-4.89873 4.6944,-4.89873 5.786,0 12.0088,-0.0929 12.0088,-0.0929 l 0.055,-4.94516 -16.1027,0.30179 c 0,0 -4.8035,0.0929 -4.9127,5.01481 -0.1092,4.92195 1.0371,78.5887 1.0371,78.5887 z"
       id="path3983-3"
       inkscape:connector-curvature="0"
       sodipodi:nodetypes="ccscccscc" />
    <path
       transform="translate(771.75655,-0.39749)"
       sodipodi:type="arc"
       style="fill:#888888;fill-opacity:1;fill-rule:nonzero;stroke:#333333;stroke-width:0.2;stroke-linecap:round;stroke-linejoin:round;stroke-miterlimit:4;stroke-opacity:1;stroke-dasharray:none;stroke-dashoffset:0;display:inline"
       id="path4137-7"
       sodipodi:cx="553.37891"
       sodipodi:cy="571.65924"
       sodipodi:rx="2.1807687"
       sodipodi:ry="2.7251735"
       d="m 555.55967,571.65924 c 0,1.50507 -0.97636,2.72517 -2.18076,2.72517 -1.20441,0 -2.18077,-1.2201 -2.18077,-2.72517 0,-1.50507 0.97636,-2.72517 2.18077,-2.72517 1.2044,0 2.18076,1.2201 2.18076,2.72517 z" />
    <path
       transform="matrix(0.4907247,0,0,0.56555633,1053.5412,248.704)"
       sodipodi:type="arc"
       style="fill:#eeeeee;fill-opacity:1;fill-rule:nonzero;stroke:#333333;stroke-width:0.2;stroke-linecap:round;stroke-linejoin:round;stroke-miterlimit:4;stroke-opacity:1;stroke-dasharray:none;stroke-dashoffset:0;display:inline"
       id="path4137-3-4"
       sodipodi:cx="553.37891"
       sodipodi:cy="571.65924"
       sodipodi:rx="2.1807687"
       sodipodi:ry="2.7251735"
       d="m 555.55967,571.65924 c 0,1.50507 -0.97636,2.72517 -2.18076,2.72517 -1.20441,0 -2.18077,-1.2201 -2.18077,-2.72517 0,-1.50507 0.97636,-2.72517 2.18077,-2.72517 1.2044,0 2.18076,1.2201 2.18076,2.72517 z" />
    <rect
       style="fill:#f7f7f7;fill-opacity:1;stroke:#808080;stroke-width:0.1904773;stroke-linecap:round;stroke-linejoin:round;stroke-miterlimit:4;stroke-opacity:1;stroke-dasharray:none;stroke-dashoffset:0;display:inline"
       id="rect3770-3"
       width="667.58844"
       height="29.2626"
       x="812.72137"
       y="584.04102" />
    <path
       sodipodi:type="arc"
       style="fill:#ff9bff;fill-opacity:1;fill-rule:nonzero;stroke:#333333;stroke-width:1;stroke-linecap:round;stroke-linejoin:round;stroke-miterlimit:4;stroke-opacity:1;stroke-dasharray:none;stroke-dashoffset:0;display:inline"
       id="path4157-42-3-80"
       sodipodi:cx="413.93353"
       sodipodi:cy="648.29102"
       sodipodi:rx="6.6594138"
       sodipodi:ry="6.6594138"
       d="m 420.59295,648.29102 c 0,3.67789 -2.98152,6.65941 -6.65942,6.65941 -3.67789,0 -6.65941,-2.98152 -6.65941,-6.65941 0,-3.6779 2.98152,-6.65942 6.65941,-6.65942 3.6779,0 6.65942,2.98152 6.65942,6.65942 z"
       transform="matrix(0.93569552,-0.35280857,0.35280857,0.93569552,270.79813,137.38689)" />
    <path
       sodipodi:type="arc"
       style="fill:#cccccf;fill-opacity:1;fill-rule:nonzero;stroke:#333333;stroke-width:1;stroke-linecap:round;stroke-linejoin:round;stroke-miterlimit:4;stroke-opacity:1;stroke-dasharray:none;stroke-dashoffset:0;display:inline"
       id="path4157-4-7-1-88"
       sodipodi:cx="413.93353"
       sodipodi:cy="648.29102"
       sodipodi:rx="6.6594138"
       sodipodi:ry="6.6594138"
       d="m 420.59295,648.29102 c 0,3.67789 -2.98152,6.65941 -6.65942,6.65941 -3.67789,0 -6.65941,-2.98152 -6.65941,-6.65941 0,-3.6779 2.98152,-6.65942 6.65941,-6.65942 3.6779,0 6.65942,2.98152 6.65942,6.65942 z"
       transform="matrix(0.93569552,-0.35280857,0.35280857,0.93569552,255.49069,137.36979)" />
    <path
       sodipodi:type="arc"
       style="fill:#cccccf;fill-opacity:1;fill-rule:nonzero;stroke:#333333;stroke-width:1;stroke-linecap:round;stroke-linejoin:round;stroke-miterlimit:4;stroke-opacity:1;stroke-dasharray:none;stroke-dashoffset:0;display:inline"
       id="path4157-1-79-9-06"
       sodipodi:cx="413.93353"
       sodipodi:cy="648.29102"
       sodipodi:rx="6.6594138"
       sodipodi:ry="6.6594138"
       d="m 420.59295,648.29102 c 0,3.67789 -2.98152,6.65941 -6.65942,6.65941 -3.67789,0 -6.65941,-2.98152 -6.65941,-6.65941 0,-3.6779 2.98152,-6.65942 6.65941,-6.65942 3.6779,0 6.65942,2.98152 6.65942,6.65942 z"
       transform="matrix(0.93569552,-0.35280857,0.35280857,0.93569552,239.12261,137.40412)" />
    <path
       sodipodi:type="arc"
       style="fill:#cccccf;fill-opacity:1;fill-rule:nonzero;stroke:#333333;stroke-width:1;stroke-linecap:round;stroke-linejoin:round;stroke-miterlimit:4;stroke-opacity:1;stroke-dasharray:none;stroke-dashoffset:0;display:inline"
       id="path4157-42-3-8-8"
       sodipodi:cx="413.93353"
       sodipodi:cy="648.29102"
       sodipodi:rx="6.6594138"
       sodipodi:ry="6.6594138"
       d="m 420.59295,648.29102 c 0,3.67789 -2.98152,6.65941 -6.65942,6.65941 -3.67789,0 -6.65941,-2.98152 -6.65941,-6.65941 0,-3.6779 2.98152,-6.65942 6.65941,-6.65942 3.6779,0 6.65942,2.98152 6.65942,6.65942 z"
       transform="matrix(0.93569552,-0.35280857,0.35280857,0.93569552,367.13948,137.22289)" />
    <path
       sodipodi:type="arc"
       style="fill:#cccccf;fill-opacity:1;fill-rule:nonzero;stroke:#333333;stroke-width:1;stroke-linecap:round;stroke-linejoin:round;stroke-miterlimit:4;stroke-opacity:1;stroke-dasharray:none;stroke-dashoffset:0;display:inline"
       id="path4157-4-7-1-6-1"
       sodipodi:cx="413.93353"
       sodipodi:cy="648.29102"
       sodipodi:rx="6.6594138"
       sodipodi:ry="6.6594138"
       d="m 420.59295,648.29102 c 0,3.67789 -2.98152,6.65941 -6.65942,6.65941 -3.67789,0 -6.65941,-2.98152 -6.65941,-6.65941 0,-3.6779 2.98152,-6.65942 6.65941,-6.65942 3.6779,0 6.65942,2.98152 6.65942,6.65942 z"
       transform="matrix(0.93569552,-0.35280857,0.35280857,0.93569552,351.83204,137.20579)" />
    <path
       sodipodi:type="arc"
       style="fill:#cccccf;fill-opacity:1;fill-rule:nonzero;stroke:#333333;stroke-width:1;stroke-linecap:round;stroke-linejoin:round;stroke-miterlimit:4;stroke-opacity:1;stroke-dasharray:none;stroke-dashoffset:0;display:inline"
       id="path4157-1-79-9-5-9"
       sodipodi:cx="413.93353"
       sodipodi:cy="648.29102"
       sodipodi:rx="6.6594138"
       sodipodi:ry="6.6594138"
       d="m 420.59295,648.29102 c 0,3.67789 -2.98152,6.65941 -6.65942,6.65941 -3.67789,0 -6.65941,-2.98152 -6.65941,-6.65941 0,-3.6779 2.98152,-6.65942 6.65941,-6.65942 3.6779,0 6.65942,2.98152 6.65942,6.65942 z"
       transform="matrix(0.93569552,-0.35280857,0.35280857,0.93569552,335.46396,137.24012)" />
    <path
       sodipodi:type="arc"
       style="fill:#cccccf;fill-opacity:1;fill-rule:nonzero;stroke:#333333;stroke-width:1;stroke-linecap:round;stroke-linejoin:round;stroke-miterlimit:4;stroke-opacity:1;stroke-dasharray:none;stroke-dashoffset:0;display:inline"
       id="path4157-42-3-0-8"
       sodipodi:cx="413.93353"
       sodipodi:cy="648.29102"
       sodipodi:rx="6.6594138"
       sodipodi:ry="6.6594138"
       d="m 420.59295,648.29102 c 0,3.67789 -2.98152,6.65941 -6.65942,6.65941 -3.67789,0 -6.65941,-2.98152 -6.65941,-6.65941 0,-3.6779 2.98152,-6.65942 6.65941,-6.65942 3.6779,0 6.65942,2.98152 6.65942,6.65942 z"
       transform="matrix(0.93569552,-0.35280857,0.35280857,0.93569552,319.01222,137.56177)" />
    <path
       sodipodi:type="arc"
       style="fill:#cccccf;fill-opacity:1;fill-rule:nonzero;stroke:#333333;stroke-width:1;stroke-linecap:round;stroke-linejoin:round;stroke-miterlimit:4;stroke-opacity:1;stroke-dasharray:none;stroke-dashoffset:0;display:inline"
       id="path4157-4-7-1-2-9"
       sodipodi:cx="413.93353"
       sodipodi:cy="648.29102"
       sodipodi:rx="6.6594138"
       sodipodi:ry="6.6594138"
       d="m 420.59295,648.29102 c 0,3.67789 -2.98152,6.65941 -6.65942,6.65941 -3.67789,0 -6.65941,-2.98152 -6.65941,-6.65941 0,-3.6779 2.98152,-6.65942 6.65941,-6.65942 3.6779,0 6.65942,2.98152 6.65942,6.65942 z"
       transform="matrix(0.93569552,-0.35280857,0.35280857,0.93569552,303.70478,137.54467)" />
    <path
       sodipodi:type="arc"
       style="fill:#cccccf;fill-opacity:1;fill-rule:nonzero;stroke:#333333;stroke-width:1;stroke-linecap:round;stroke-linejoin:round;stroke-miterlimit:4;stroke-opacity:1;stroke-dasharray:none;stroke-dashoffset:0;display:inline"
       id="path4157-1-79-9-8-7"
       sodipodi:cx="413.93353"
       sodipodi:cy="648.29102"
       sodipodi:rx="6.6594138"
       sodipodi:ry="6.6594138"
       d="m 420.59295,648.29102 c 0,3.67789 -2.98152,6.65941 -6.65942,6.65941 -3.67789,0 -6.65941,-2.98152 -6.65941,-6.65941 0,-3.6779 2.98152,-6.65942 6.65941,-6.65942 3.6779,0 6.65942,2.98152 6.65942,6.65942 z"
       transform="matrix(0.93569552,-0.35280857,0.35280857,0.93569552,287.3367,137.579)" />
    <path
       sodipodi:type="arc"
       style="fill:#cccccf;fill-opacity:1;fill-rule:nonzero;stroke:#333333;stroke-width:1;stroke-linecap:round;stroke-linejoin:round;stroke-miterlimit:4;stroke-opacity:1;stroke-dasharray:none;stroke-dashoffset:0;display:inline"
       id="path4157-42-3-6-2"
       sodipodi:cx="413.93353"
       sodipodi:cy="648.29102"
       sodipodi:rx="6.6594138"
       sodipodi:ry="6.6594138"
       d="m 420.59295,648.29102 c 0,3.67789 -2.98152,6.65941 -6.65942,6.65941 -3.67789,0 -6.65941,-2.98152 -6.65941,-6.65941 0,-3.6779 2.98152,-6.65942 6.65941,-6.65942 3.6779,0 6.65942,2.98152 6.65942,6.65942 z"
       transform="matrix(0.77679585,-0.62975248,0.62975248,0.77679585,255.90587,375.79298)" />
    <path
       sodipodi:type="arc"
       style="fill:#cccccf;fill-opacity:1;fill-rule:nonzero;stroke:#333333;stroke-width:1;stroke-linecap:round;stroke-linejoin:round;stroke-miterlimit:4;stroke-opacity:1;stroke-dasharray:none;stroke-dashoffset:0;display:inline"
       id="path4157-4-7-1-0-2"
       sodipodi:cx="413.93353"
       sodipodi:cy="648.29102"
       sodipodi:rx="6.6594138"
       sodipodi:ry="6.6594138"
       d="m 420.59295,648.29102 c 0,3.67789 -2.98152,6.65941 -6.65942,6.65941 -3.67789,0 -6.65941,-2.98152 -6.65941,-6.65941 0,-3.6779 2.98152,-6.65942 6.65941,-6.65942 3.6779,0 6.65942,2.98152 6.65942,6.65942 z"
       transform="matrix(0.77679585,-0.62975248,0.62975248,0.77679585,240.71829,380.1837)" />
    <path
       sodipodi:type="arc"
       style="fill:#cccccf;fill-opacity:1;fill-rule:nonzero;stroke:#333333;stroke-width:1;stroke-linecap:round;stroke-linejoin:round;stroke-miterlimit:4;stroke-opacity:1;stroke-dasharray:none;stroke-dashoffset:0;display:inline"
       id="path4157-1-79-9-2-8"
       sodipodi:cx="413.93353"
       sodipodi:cy="648.29102"
       sodipodi:rx="6.6594138"
       sodipodi:ry="6.6594138"
       d="m 420.59295,648.29102 c 0,3.67789 -2.98152,6.65941 -6.65942,6.65941 -3.67789,0 -6.65941,-2.98152 -6.65941,-6.65941 0,-3.6779 2.98152,-6.65942 6.65941,-6.65942 3.6779,0 6.65942,2.98152 6.65942,6.65942 z"
       transform="matrix(0.77679585,-0.62975248,0.62975248,0.77679585,225.8504,385.42186)" />
    <path
       sodipodi:type="arc"
       style="fill:#cccccf;fill-opacity:1;fill-rule:nonzero;stroke:#333333;stroke-width:1;stroke-linecap:round;stroke-linejoin:round;stroke-miterlimit:4;stroke-opacity:1;stroke-dasharray:none;stroke-dashoffset:0;display:inline"
       id="path4157-42-3-4-2"
       sodipodi:cx="413.93353"
       sodipodi:cy="648.29102"
       sodipodi:rx="6.6594138"
       sodipodi:ry="6.6594138"
       d="m 420.59295,648.29102 c 0,3.67789 -2.98152,6.65941 -6.65942,6.65941 -3.67789,0 -6.65941,-2.98152 -6.65941,-6.65941 0,-3.6779 2.98152,-6.65942 6.65941,-6.65942 3.6779,0 6.65942,2.98152 6.65942,6.65942 z"
       transform="matrix(0.57331843,-0.81933265,0.81933265,0.57331843,227.11985,605.87621)" />
    <path
       sodipodi:type="arc"
       style="fill:#cccccf;fill-opacity:1;fill-rule:nonzero;stroke:#333333;stroke-width:1;stroke-linecap:round;stroke-linejoin:round;stroke-miterlimit:4;stroke-opacity:1;stroke-dasharray:none;stroke-dashoffset:0;display:inline"
       id="path4157-4-7-1-8-8"
       sodipodi:cx="413.93353"
       sodipodi:cy="648.29102"
       sodipodi:rx="6.6594138"
       sodipodi:ry="6.6594138"
       d="m 420.59295,648.29102 c 0,3.67789 -2.98152,6.65941 -6.65942,6.65941 -3.67789,0 -6.65941,-2.98152 -6.65941,-6.65941 0,-3.6779 2.98152,-6.65942 6.65941,-6.65942 3.6779,0 6.65942,2.98152 6.65942,6.65942 z"
       transform="matrix(0.57331843,-0.81933265,0.81933265,0.57331843,214.25528,614.54771)" />
    <path
       sodipodi:type="arc"
       style="fill:#cccccf;fill-opacity:1;fill-rule:nonzero;stroke:#333333;stroke-width:1;stroke-linecap:round;stroke-linejoin:round;stroke-miterlimit:4;stroke-opacity:1;stroke-dasharray:none;stroke-dashoffset:0;display:inline"
       id="path4157-1-79-9-6-9"
       sodipodi:cx="413.93353"
       sodipodi:cy="648.29102"
       sodipodi:rx="6.6594138"
       sodipodi:ry="6.6594138"
       d="m 420.59295,648.29102 c 0,3.67789 -2.98152,6.65941 -6.65942,6.65941 -3.67789,0 -6.65941,-2.98152 -6.65941,-6.65941 0,-3.6779 2.98152,-6.65942 6.65941,-6.65942 3.6779,0 6.65942,2.98152 6.65942,6.65942 z"
       transform="matrix(0.57331843,-0.81933265,0.81933265,0.57331843,200.76249,623.99951)" />
    <path
       sodipodi:type="arc"
       style="fill:#cccccf;fill-opacity:1;fill-rule:nonzero;stroke:#333333;stroke-width:1;stroke-linecap:round;stroke-linejoin:round;stroke-miterlimit:4;stroke-opacity:1;stroke-dasharray:none;stroke-dashoffset:0;display:inline"
       id="path4157-42-3-5-0"
       sodipodi:cx="413.93353"
       sodipodi:cy="648.29102"
       sodipodi:rx="6.6594138"
       sodipodi:ry="6.6594138"
       d="m 420.59295,648.29102 c 0,3.67789 -2.98152,6.65941 -6.65942,6.65941 -3.67789,0 -6.65941,-2.98152 -6.65941,-6.65941 0,-3.6779 2.98152,-6.65942 6.65941,-6.65942 3.6779,0 6.65942,2.98152 6.65942,6.65942 z"
       transform="matrix(0.33320513,-0.94285436,0.94285436,0.33320513,260.66081,828.34231)" />
    <path
       sodipodi:type="arc"
       style="fill:#cccccf;fill-opacity:1;fill-rule:nonzero;stroke:#333333;stroke-width:1;stroke-linecap:round;stroke-linejoin:round;stroke-miterlimit:4;stroke-opacity:1;stroke-dasharray:none;stroke-dashoffset:0;display:inline"
       id="path4157-4-7-1-09-7"
       sodipodi:cx="413.93353"
       sodipodi:cy="648.29102"
       sodipodi:rx="6.6594138"
       sodipodi:ry="6.6594138"
       d="m 420.59295,648.29102 c 0,3.67789 -2.98152,6.65941 -6.65942,6.65941 -3.67789,0 -6.65941,-2.98152 -6.65941,-6.65941 0,-3.6779 2.98152,-6.65942 6.65941,-6.65942 3.6779,0 6.65942,2.98152 6.65942,6.65942 z"
       transform="matrix(0.33320513,-0.94285436,0.94285436,0.33320513,251.43825,841.47581)" />
    <path
       sodipodi:type="arc"
       style="fill:#cccccf;fill-opacity:1;fill-rule:nonzero;stroke:#333333;stroke-width:1;stroke-linecap:round;stroke-linejoin:round;stroke-miterlimit:4;stroke-opacity:1;stroke-dasharray:none;stroke-dashoffset:0;display:inline"
       id="path4157-1-79-9-0-8"
       sodipodi:cx="413.93353"
       sodipodi:cy="648.29102"
       sodipodi:rx="6.6594138"
       sodipodi:ry="6.6594138"
       d="m 420.59295,648.29102 c 0,3.67789 -2.98152,6.65941 -6.65942,6.65941 -3.67789,0 -6.65941,-2.98152 -6.65941,-6.65941 0,-3.6779 2.98152,-6.65942 6.65941,-6.65942 3.6779,0 6.65942,2.98152 6.65942,6.65942 z"
       transform="matrix(0.33320513,-0.94285436,0.94285436,0.33320513,241.35316,854.52481)" />
    <path
       sodipodi:type="arc"
       style="fill:#cccccf;fill-opacity:1;fill-rule:nonzero;stroke:#333333;stroke-width:1;stroke-linecap:round;stroke-linejoin:round;stroke-miterlimit:4;stroke-opacity:1;stroke-dasharray:none;stroke-dashoffset:0;display:inline"
       id="path4157-42-3-06-1"
       sodipodi:cx="413.93353"
       sodipodi:cy="648.29102"
       sodipodi:rx="6.6594138"
       sodipodi:ry="6.6594138"
       d="m 420.59295,648.29102 c 0,3.67789 -2.98152,6.65941 -6.65942,6.65941 -3.67789,0 -6.65941,-2.98152 -6.65941,-6.65941 0,-3.6779 2.98152,-6.65942 6.65941,-6.65942 3.6779,0 6.65942,2.98152 6.65942,6.65942 z"
       transform="matrix(-0.04324945,-0.99906431,0.99906431,-0.04324945,400.61154,1105.8202)" />
    <path
       sodipodi:type="arc"
       style="fill:#cccccf;fill-opacity:1;fill-rule:nonzero;stroke:#333333;stroke-width:1;stroke-linecap:round;stroke-linejoin:round;stroke-miterlimit:4;stroke-opacity:1;stroke-dasharray:none;stroke-dashoffset:0;display:inline"
       id="path4157-4-7-1-1-5"
       sodipodi:cx="413.93353"
       sodipodi:cy="648.29102"
       sodipodi:rx="6.6594138"
       sodipodi:ry="6.6594138"
       d="m 420.59295,648.29102 c 0,3.67789 -2.98152,6.65941 -6.65942,6.65941 -3.67789,0 -6.65941,-2.98152 -6.65941,-6.65941 0,-3.6779 2.98152,-6.65942 6.65941,-6.65942 3.6779,0 6.65942,2.98152 6.65942,6.65942 z"
       transform="matrix(-0.04324945,-0.99906431,0.99906431,-0.04324945,395.27337,1121.3796)" />
    <path
       sodipodi:type="arc"
       style="fill:#cccccf;fill-opacity:1;fill-rule:nonzero;stroke:#333333;stroke-width:1;stroke-linecap:round;stroke-linejoin:round;stroke-miterlimit:4;stroke-opacity:1;stroke-dasharray:none;stroke-dashoffset:0;display:inline"
       id="path4157-1-79-9-3-8"
       sodipodi:cx="413.93353"
       sodipodi:cy="648.29102"
       sodipodi:rx="6.6594138"
       sodipodi:ry="6.6594138"
       d="m 420.59295,648.29102 c 0,3.67789 -2.98152,6.65941 -6.65942,6.65941 -3.67789,0 -6.65941,-2.98152 -6.65941,-6.65941 0,-3.6779 2.98152,-6.65942 6.65941,-6.65942 3.6779,0 6.65942,2.98152 6.65942,6.65942 z"
       transform="matrix(-0.04324945,-0.99906431,0.99906431,-0.04324945,389.98065,1136.2448)" />
    <path
       sodipodi:type="arc"
       style="fill:#cccccf;fill-opacity:1;fill-rule:nonzero;stroke:#333333;stroke-width:1;stroke-linecap:round;stroke-linejoin:round;stroke-miterlimit:4;stroke-opacity:1;stroke-dasharray:none;stroke-dashoffset:0;display:inline"
       id="path4157-42-3-89-61"
       sodipodi:cx="413.93353"
       sodipodi:cy="648.29102"
       sodipodi:rx="6.6594138"
       sodipodi:ry="6.6594138"
       d="m 420.59295,648.29102 c 0,3.67789 -2.98152,6.65941 -6.65942,6.65941 -3.67789,0 -6.65941,-2.98152 -6.65941,-6.65941 0,-3.6779 2.98152,-6.65942 6.65941,-6.65942 3.6779,0 6.65942,2.98152 6.65942,6.65942 z"
       transform="matrix(-0.32843592,-0.94452625,0.94452625,-0.32843592,574.98502,1273.1992)" />
    <path
       sodipodi:type="arc"
       style="fill:#cccccf;fill-opacity:1;fill-rule:nonzero;stroke:#333333;stroke-width:1;stroke-linecap:round;stroke-linejoin:round;stroke-miterlimit:4;stroke-opacity:1;stroke-dasharray:none;stroke-dashoffset:0;display:inline"
       id="path4157-4-7-1-3-2"
       sodipodi:cx="413.93353"
       sodipodi:cy="648.29102"
       sodipodi:rx="6.6594138"
       sodipodi:ry="6.6594138"
       d="m 420.59295,648.29102 c 0,3.67789 -2.98152,6.65941 -6.65942,6.65941 -3.67789,0 -6.65941,-2.98152 -6.65941,-6.65941 0,-3.6779 2.98152,-6.65942 6.65941,-6.65942 3.6779,0 6.65942,2.98152 6.65942,6.65942 z"
       transform="matrix(-0.32843592,-0.94452625,0.94452625,-0.32843592,574.57114,1288.5475)" />
    <path
       sodipodi:type="arc"
       style="fill:#cccccf;fill-opacity:1;fill-rule:nonzero;stroke:#333333;stroke-width:1;stroke-linecap:round;stroke-linejoin:round;stroke-miterlimit:4;stroke-opacity:1;stroke-dasharray:none;stroke-dashoffset:0;display:inline"
       id="path4157-1-79-9-4-4"
       sodipodi:cx="413.93353"
       sodipodi:cy="648.29102"
       sodipodi:rx="6.6594138"
       sodipodi:ry="6.6594138"
       d="m 420.59295,648.29102 c 0,3.67789 -2.98152,6.65941 -6.65942,6.65941 -3.67789,0 -6.65941,-2.98152 -6.65941,-6.65941 0,-3.6779 2.98152,-6.65942 6.65941,-6.65942 3.6779,0 6.65942,2.98152 6.65942,6.65942 z"
       transform="matrix(-0.32843592,-0.94452625,0.94452625,-0.32843592,575.16371,1305.1896)" />
    <path
       sodipodi:type="arc"
       style="fill:#cccccf;fill-opacity:1;fill-rule:nonzero;stroke:#333333;stroke-width:1;stroke-linecap:round;stroke-linejoin:round;stroke-miterlimit:4;stroke-opacity:1;stroke-dasharray:none;stroke-dashoffset:0;display:inline"
       id="path4157-42-3-89-4-2"
       sodipodi:cx="413.93353"
       sodipodi:cy="648.29102"
       sodipodi:rx="6.6594138"
       sodipodi:ry="6.6594138"
       d="m 420.59295,648.29102 c 0,3.67789 -2.98152,6.65941 -6.65942,6.65941 -3.67789,0 -6.65941,-2.98152 -6.65941,-6.65941 0,-3.6779 2.98152,-6.65942 6.65941,-6.65942 3.6779,0 6.65942,2.98152 6.65942,6.65942 z"
       transform="matrix(-0.59059663,-0.80696693,0.80696693,-0.59059663,795.78949,1383.4757)" />
    <path
       sodipodi:type="arc"
       style="fill:#cccccf;fill-opacity:1;fill-rule:nonzero;stroke:#333333;stroke-width:1;stroke-linecap:round;stroke-linejoin:round;stroke-miterlimit:4;stroke-opacity:1;stroke-dasharray:none;stroke-dashoffset:0;display:inline"
       id="path4157-4-7-1-3-6-5"
       sodipodi:cx="413.93353"
       sodipodi:cy="648.29102"
       sodipodi:rx="6.6594138"
       sodipodi:ry="6.6594138"
       d="m 420.59295,648.29102 c 0,3.67789 -2.98152,6.65941 -6.65942,6.65941 -3.67789,0 -6.65941,-2.98152 -6.65941,-6.65941 0,-3.6779 2.98152,-6.65942 6.65941,-6.65942 3.6779,0 6.65942,2.98152 6.65942,6.65942 z"
       transform="matrix(-0.59059663,-0.80696693,0.80696693,-0.59059663,799.88768,1398.2725)" />
    <path
       sodipodi:type="arc"
       style="fill:#cccccf;fill-opacity:1;fill-rule:nonzero;stroke:#333333;stroke-width:1;stroke-linecap:round;stroke-linejoin:round;stroke-miterlimit:4;stroke-opacity:1;stroke-dasharray:none;stroke-dashoffset:0;display:inline"
       id="path4157-1-79-9-4-0-8"
       sodipodi:cx="413.93353"
       sodipodi:cy="648.29102"
       sodipodi:rx="6.6594138"
       sodipodi:ry="6.6594138"
       d="m 420.59295,648.29102 c 0,3.67789 -2.98152,6.65941 -6.65942,6.65941 -3.67789,0 -6.65941,-2.98152 -6.65941,-6.65941 0,-3.6779 2.98152,-6.65942 6.65941,-6.65942 3.6779,0 6.65942,2.98152 6.65942,6.65942 z"
       transform="matrix(-0.59059663,-0.80696693,0.80696693,-0.59059663,805.32704,1414.0117)" />
    <path
       sodipodi:type="arc"
       style="fill:#cccccf;fill-opacity:1;fill-rule:nonzero;stroke:#333333;stroke-width:1;stroke-linecap:round;stroke-linejoin:round;stroke-miterlimit:4;stroke-opacity:1;stroke-dasharray:none;stroke-dashoffset:0;display:inline"
       id="path4157-42-3-89-6-6"
       sodipodi:cx="413.93353"
       sodipodi:cy="648.29102"
       sodipodi:rx="6.6594138"
       sodipodi:ry="6.6594138"
       d="m 420.59295,648.29102 c 0,3.67789 -2.98152,6.65941 -6.65942,6.65941 -3.67789,0 -6.65941,-2.98152 -6.65941,-6.65941 0,-3.6779 2.98152,-6.65942 6.65941,-6.65942 3.6779,0 6.65942,2.98152 6.65942,6.65942 z"
       transform="matrix(-0.79711407,-0.60382874,0.60382874,-0.79711407,1033.5384,1423.1772)" />
    <path
       sodipodi:type="arc"
       style="fill:#cccccf;fill-opacity:1;fill-rule:nonzero;stroke:#333333;stroke-width:1;stroke-linecap:round;stroke-linejoin:round;stroke-miterlimit:4;stroke-opacity:1;stroke-dasharray:none;stroke-dashoffset:0;display:inline"
       id="path4157-4-7-1-3-61-2"
       sodipodi:cx="413.93353"
       sodipodi:cy="648.29102"
       sodipodi:rx="6.6594138"
       sodipodi:ry="6.6594138"
       d="m 420.59295,648.29102 c 0,3.67789 -2.98152,6.65941 -6.65942,6.65941 -3.67789,0 -6.65941,-2.98152 -6.65941,-6.65941 0,-3.6779 2.98152,-6.65942 6.65941,-6.65942 3.6779,0 6.65942,2.98152 6.65942,6.65942 z"
       transform="matrix(-0.79711407,-0.60382874,0.60382874,-0.79711407,1042.555,1436.5069)" />
    <path
       sodipodi:type="arc"
       style="fill:#cccccf;fill-opacity:1;fill-rule:nonzero;stroke:#333333;stroke-width:1;stroke-linecap:round;stroke-linejoin:round;stroke-miterlimit:4;stroke-opacity:1;stroke-dasharray:none;stroke-dashoffset:0;display:inline"
       id="path4157-1-79-9-4-8-6"
       sodipodi:cx="413.93353"
       sodipodi:cy="648.29102"
       sodipodi:rx="6.6594138"
       sodipodi:ry="6.6594138"
       d="m 420.59295,648.29102 c 0,3.67789 -2.98152,6.65941 -6.65942,6.65941 -3.67789,0 -6.65941,-2.98152 -6.65941,-6.65941 0,-3.6779 2.98152,-6.65942 6.65941,-6.65942 3.6779,0 6.65942,2.98152 6.65942,6.65942 z"
       transform="matrix(-0.79711407,-0.60382874,0.60382874,-0.79711407,1050.5405,1449.5014)" />
    <path
       sodipodi:type="arc"
       style="fill:#cccccf;fill-opacity:1;fill-rule:nonzero;stroke:#333333;stroke-width:1;stroke-linecap:round;stroke-linejoin:round;stroke-miterlimit:4;stroke-opacity:1;stroke-dasharray:none;stroke-dashoffset:0;display:inline"
       id="path4157-42-3-89-49-53"
       sodipodi:cx="413.93353"
       sodipodi:cy="648.29102"
       sodipodi:rx="6.6594138"
       sodipodi:ry="6.6594138"
       d="m 420.59295,648.29102 c 0,3.67789 -2.98152,6.65941 -6.65942,6.65941 -3.67789,0 -6.65941,-2.98152 -6.65941,-6.65941 0,-3.6779 2.98152,-6.65942 6.65941,-6.65942 3.6779,0 6.65942,2.98152 6.65942,6.65942 z"
       transform="matrix(-0.95349525,-0.30140801,0.30140801,-0.95349525,1309.6751,1384.1428)" />
    <path
       sodipodi:type="arc"
       style="fill:#cccccf;fill-opacity:1;fill-rule:nonzero;stroke:#333333;stroke-width:1;stroke-linecap:round;stroke-linejoin:round;stroke-miterlimit:4;stroke-opacity:1;stroke-dasharray:none;stroke-dashoffset:0;display:inline"
       id="path4157-4-7-1-3-63-92"
       sodipodi:cx="413.93353"
       sodipodi:cy="648.29102"
       sodipodi:rx="6.6594138"
       sodipodi:ry="6.6594138"
       d="m 420.59295,648.29102 c 0,3.67789 -2.98152,6.65941 -6.65942,6.65941 -3.67789,0 -6.65941,-2.98152 -6.65941,-6.65941 0,-3.6779 2.98152,-6.65942 6.65941,-6.65942 3.6779,0 6.65942,2.98152 6.65942,6.65942 z"
       transform="matrix(-0.95349525,-0.30140801,0.30140801,-0.95349525,1321.731,1393.6506)" />
    <path
       sodipodi:type="arc"
       style="fill:#cccccf;fill-opacity:1;fill-rule:nonzero;stroke:#333333;stroke-width:1;stroke-linecap:round;stroke-linejoin:round;stroke-miterlimit:4;stroke-opacity:1;stroke-dasharray:none;stroke-dashoffset:0;display:inline"
       id="path4157-1-79-9-4-7-4"
       sodipodi:cx="413.93353"
       sodipodi:cy="648.29102"
       sodipodi:rx="6.6594138"
       sodipodi:ry="6.6594138"
       d="m 420.59295,648.29102 c 0,3.67789 -2.98152,6.65941 -6.65942,6.65941 -3.67789,0 -6.65941,-2.98152 -6.65941,-6.65941 0,-3.6779 2.98152,-6.65942 6.65941,-6.65942 3.6779,0 6.65942,2.98152 6.65942,6.65942 z"
       transform="matrix(-0.95349525,-0.30140801,0.30140801,-0.95349525,1335.4257,1403.125)" />
    <path
       sodipodi:type="arc"
       style="fill:#cccccf;fill-opacity:1;fill-rule:nonzero;stroke:#333333;stroke-width:1;stroke-linecap:round;stroke-linejoin:round;stroke-miterlimit:4;stroke-opacity:1;stroke-dasharray:none;stroke-dashoffset:0;display:inline"
       id="path4157-42-3-89-49-8-2"
       sodipodi:cx="413.93353"
       sodipodi:cy="648.29102"
       sodipodi:rx="6.6594138"
       sodipodi:ry="6.6594138"
       d="m 420.59295,648.29102 c 0,3.67789 -2.98152,6.65941 -6.65942,6.65941 -3.67789,0 -6.65941,-2.98152 -6.65941,-6.65941 0,-3.6779 2.98152,-6.65942 6.65941,-6.65942 3.6779,0 6.65942,2.98152 6.65942,6.65942 z"
       transform="matrix(-0.95025826,0.31146302,-0.31146302,-0.95025826,1945.7649,1085.7066)" />
    <path
       sodipodi:type="arc"
       style="fill:#cccccf;fill-opacity:1;fill-rule:nonzero;stroke:#333333;stroke-width:1;stroke-linecap:round;stroke-linejoin:round;stroke-miterlimit:4;stroke-opacity:1;stroke-dasharray:none;stroke-dashoffset:0;display:inline"
       id="path4157-4-7-1-3-63-8-1"
       sodipodi:cx="413.93353"
       sodipodi:cy="648.29102"
       sodipodi:rx="6.6594138"
       sodipodi:ry="6.6594138"
       d="m 420.59295,648.29102 c 0,3.67789 -2.98152,6.65941 -6.65942,6.65941 -3.67789,0 -6.65941,-2.98152 -6.65941,-6.65941 0,-3.6779 2.98152,-6.65942 6.65941,-6.65942 3.6779,0 6.65942,2.98152 6.65942,6.65942 z"
       transform="matrix(-0.95025826,0.31146302,-0.31146302,-0.95025826,1961.1034,1086.3954)" />
    <path
       sodipodi:type="arc"
       style="fill:#cccccf;fill-opacity:1;fill-rule:nonzero;stroke:#333333;stroke-width:1;stroke-linecap:round;stroke-linejoin:round;stroke-miterlimit:4;stroke-opacity:1;stroke-dasharray:none;stroke-dashoffset:0;display:inline"
       id="path4157-1-79-9-4-7-2-1"
       sodipodi:cx="413.93353"
       sodipodi:cy="648.29102"
       sodipodi:rx="6.6594138"
       sodipodi:ry="6.6594138"
       d="m 420.59295,648.29102 c 0,3.67789 -2.98152,6.65941 -6.65942,6.65941 -3.67789,0 -6.65941,-2.98152 -6.65941,-6.65941 0,-3.6779 2.98152,-6.65942 6.65941,-6.65942 3.6779,0 6.65942,2.98152 6.65942,6.65942 z"
       transform="matrix(-0.95025826,0.31146302,-0.31146302,-0.95025826,1977.7534,1086.1009)" />
    <path
       sodipodi:type="arc"
       style="fill:#cccccf;fill-opacity:1;fill-rule:nonzero;stroke:#333333;stroke-width:1;stroke-linecap:round;stroke-linejoin:round;stroke-miterlimit:4;stroke-opacity:1;stroke-dasharray:none;stroke-dashoffset:0;display:inline"
       id="path4157-42-3-89-49-9-9"
       sodipodi:cx="413.93353"
       sodipodi:cy="648.29102"
       sodipodi:rx="6.6594138"
       sodipodi:ry="6.6594138"
       d="m 420.59295,648.29102 c 0,3.67789 -2.98152,6.65941 -6.65942,6.65941 -3.67789,0 -6.65941,-2.98152 -6.65941,-6.65941 0,-3.6779 2.98152,-6.65942 6.65941,-6.65942 3.6779,0 6.65942,2.98152 6.65942,6.65942 z"
       transform="matrix(-0.9597319,0.28091753,-0.28091753,-0.9597319,1704.7109,1104.5577)" />
    <path
       sodipodi:type="arc"
       style="fill:#cccccf;fill-opacity:1;fill-rule:nonzero;stroke:#333333;stroke-width:1;stroke-linecap:round;stroke-linejoin:round;stroke-miterlimit:4;stroke-opacity:1;stroke-dasharray:none;stroke-dashoffset:0;display:inline"
       id="path4157-4-7-1-3-63-1-7"
       sodipodi:cx="413.93353"
       sodipodi:cy="648.29102"
       sodipodi:rx="6.6594138"
       sodipodi:ry="6.6594138"
       d="m 420.59295,648.29102 c 0,3.67789 -2.98152,6.65941 -6.65942,6.65941 -3.67789,0 -6.65941,-2.98152 -6.65941,-6.65941 0,-3.6779 2.98152,-6.65942 6.65941,-6.65942 3.6779,0 6.65942,2.98152 6.65942,6.65942 z"
       transform="matrix(-0.9597319,0.28091753,-0.28091753,-0.9597319,1720.0195,1105.7366)" />
    <path
       sodipodi:type="arc"
       style="fill:#cccccf;fill-opacity:1;fill-rule:nonzero;stroke:#333333;stroke-width:1;stroke-linecap:round;stroke-linejoin:round;stroke-miterlimit:4;stroke-opacity:1;stroke-dasharray:none;stroke-dashoffset:0;display:inline"
       id="path4157-1-79-9-4-7-3-6"
       sodipodi:cx="413.93353"
       sodipodi:cy="648.29102"
       sodipodi:rx="6.6594138"
       sodipodi:ry="6.6594138"
       d="m 420.59295,648.29102 c 0,3.67789 -2.98152,6.65941 -6.65942,6.65941 -3.67789,0 -6.65941,-2.98152 -6.65941,-6.65941 0,-3.6779 2.98152,-6.65942 6.65941,-6.65942 3.6779,0 6.65942,2.98152 6.65942,6.65942 z"
       transform="matrix(-0.9597319,0.28091753,-0.28091753,-0.9597319,1736.6704,1105.9747)" />
    <path
       sodipodi:type="arc"
       style="fill:#cccccf;fill-opacity:1;fill-rule:nonzero;stroke:#333333;stroke-width:1;stroke-linecap:round;stroke-linejoin:round;stroke-miterlimit:4;stroke-opacity:1;stroke-dasharray:none;stroke-dashoffset:0;display:inline"
       id="path4157-42-3-89-49-5-2"
       sodipodi:cx="413.93353"
       sodipodi:cy="648.29102"
       sodipodi:rx="6.6594138"
       sodipodi:ry="6.6594138"
       d="m 420.59295,648.29102 c 0,3.67789 -2.98152,6.65941 -6.65942,6.65941 -3.67789,0 -6.65941,-2.98152 -6.65941,-6.65941 0,-3.6779 2.98152,-6.65942 6.65941,-6.65942 3.6779,0 6.65942,2.98152 6.65942,6.65942 z"
       transform="matrix(-0.99970655,0.02422352,-0.02422352,-0.99970655,1551.0963,1258.9875)" />
    <path
       sodipodi:type="arc"
       style="fill:#cccccf;fill-opacity:1;fill-rule:nonzero;stroke:#333333;stroke-width:1;stroke-linecap:round;stroke-linejoin:round;stroke-miterlimit:4;stroke-opacity:1;stroke-dasharray:none;stroke-dashoffset:0;display:inline"
       id="path4157-4-7-1-3-63-9-9"
       sodipodi:cx="413.93353"
       sodipodi:cy="648.29102"
       sodipodi:rx="6.6594138"
       sodipodi:ry="6.6594138"
       d="m 420.59295,648.29102 c 0,3.67789 -2.98152,6.65941 -6.65942,6.65941 -3.67789,0 -6.65941,-2.98152 -6.65941,-6.65941 0,-3.6779 2.98152,-6.65942 6.65941,-6.65942 3.6779,0 6.65942,2.98152 6.65942,6.65942 z"
       transform="matrix(-0.99970655,0.02422352,-0.02422352,-0.99970655,1565.5846,1264.07)" />
    <path
       sodipodi:type="arc"
       style="fill:#ff9bff;fill-opacity:1;fill-rule:nonzero;stroke:#333333;stroke-width:1;stroke-linecap:round;stroke-linejoin:round;stroke-miterlimit:4;stroke-opacity:1;stroke-dasharray:none;stroke-dashoffset:0;display:inline"
       id="path4157-1-79-9-4-7-8-0"
       sodipodi:cx="413.93353"
       sodipodi:cy="648.29102"
       sodipodi:rx="6.6594138"
       sodipodi:ry="6.6594138"
       d="m 420.59295,648.29102 c 0,3.67789 -2.98152,6.65941 -6.65942,6.65941 -3.67789,0 -6.65941,-2.98152 -6.65941,-6.65941 0,-3.6779 2.98152,-6.65942 6.65941,-6.65942 3.6779,0 6.65942,2.98152 6.65942,6.65942 z"
       transform="matrix(-0.99970655,0.02422352,-0.02422352,-0.99970655,1610.9465,1276.8797)" />
    <path
       style="fill:#eeeeee;stroke:#333333;stroke-width:1;stroke-linecap:round;stroke-linejoin:round;stroke-miterlimit:4;stroke-opacity:1;stroke-dasharray:none;stroke-dashoffset:0;display:inline"
       d="m 943.34134,571.61641 c -1.43172,5.8739 -2.38576,11.7736 -2.86629,17.6476 1.72349,1.0078 4.16821,1.831 6.3052,0.1406 3.72721,-2.9481 8.87001,-2.2452 10.03614,-1.4904 1.16615,0.7549 2.31397,2.1552 3.61285,2.1147 1.65943,-0.052 3.05301,-1.0763 4.41233,-1.8009 1.35931,-0.7247 4.50061,-0.7842 6.71927,-0.2163 2.21864,0.5679 3.38575,3.0111 4.04027,3.0127 1.84187,0 1.40151,-1.2384 3.37375,-2.1439 1.97223,-0.9054 4.92917,-1.8518 6.80445,-1.5703 1.8753,0.2815 3.64872,1.1795 4.92014,3.1387 1.27144,1.9592 2.21919,7.0595 1.7199,10.836 -0.49928,3.7765 -7.9829,4.2418 -7.9829,4.2418 l -34.24154,0.046 -9.63702,2.8728 c 0.44817,4.9908 1.19753,9.9323 2.29412,14.7773 1.95375,0.5456 4.684,0.7475 6.34002,-1.5592 2.77146,-3.8604 7.91907,-4.5907 9.24797,-4.186 1.32891,0.4046 2.80705,1.4032 4.04459,1.0066 1.58104,-0.5066 2.65956,-1.8646 3.76684,-2.9355 1.10726,-1.0709 4.11854,-1.9985 6.4078,-2.0634 2.28923,-0.065 4.06939,1.9938 4.69906,1.8152 1.77193,-0.5028 0.99335,-1.598 2.64006,-3.0115 1.64672,-1.4135 4.23725,-3.1313 6.11757,-3.3769 1.88033,-0.2457 3.84606,0.121 5.60778,1.6545 1.76171,1.5334 4.0828,6.1902 4.64258,9.9582 0.55978,3.768 -6.51471,6.2735 -6.51471,6.2735 l -32.92076,9.4991 -8.24695,5.2406 c 2.06968,4.9991 4.4941,9.8528 7.25421,14.5067 1.97593,-0.1551 4.38892,-0.893 5.18844,-3.4534 1.41648,-4.5362 6.05319,-6.8548 7.44192,-6.8887 1.38874,-0.034 3.12935,0.4675 4.17932,-0.2982 1.34141,-0.9783 1.91332,-2.6052 2.62753,-3.97 0.71419,-1.3649 3.27156,-3.1862 5.42418,-3.9679 2.1526,-0.7817 4.50899,0.6205 5.05048,0.2528 1.52381,-1.0347 0.44243,-1.8702 1.56092,-3.7299 1.11851,-1.8598 3.04144,-4.2877 4.74902,-5.1124 1.7076,-0.8247 3.69511,-1.0758 5.84975,-0.1743 2.15467,0.9014 5.81597,4.583 7.53257,7.9836 1.7166,3.4007 -4.2173,7.9866 -4.2173,7.9866 l -28.24876,19.3683 -6.08646,7.4681 c 3.60864,4.2593 7.53072,8.2721 11.77324,11.984 1.80187,-0.7806 3.78856,-2.2193 3.74176,-4.8526 -0.0844,-4.7515 3.59921,-8.4083 4.90657,-8.8779 1.30737,-0.4696 3.10408,-0.5641 3.85943,-1.6215 0.96501,-1.351 1.00393,-3.0686 1.25219,-4.5888 0.24796,-1.5203 2.12105,-4.0656 3.91788,-5.4856 1.79683,-1.4199 4.43045,-0.8477 4.82855,-1.3672 1.1204,-1.462 -0.1508,-1.8562 0.325,-3.9736 0.4758,-2.1173 1.5366,-5.0614 2.8975,-6.382 1.361,-1.3205 3.1699,-2.1784 5.4988,-2.0016 2.3289,0.1769 6.9393,2.5042 9.6397,5.1911 2.7003,2.6869 -1.4675,8.9276 -1.4675,8.9276 l -20.72625,27.2829 -3.42398,8.9726 c 4.83488,2.9645 9.94623,5.6006 15.30943,7.8534 1.5459,-1.2949 3.2311,-3.3513 2.3057,-5.9851 -1.5752,-4.4836 0.7568,-9.129 1.85,-9.9861 1.0932,-0.8572 2.7901,-1.4949 3.1744,-2.7363 0.491,-1.586 -0.027,-3.2414 -0.2701,-4.7625 -0.243,-1.5211 0.7295,-4.5058 1.9883,-6.419 1.2587,-1.9132 3.9476,-2.2195 4.1624,-2.8378 0.6034,-1.7403 -0.7351,-1.7413 -0.9497,-3.9009 -0.2146,-2.1595 -0.1345,-5.2477 0.7417,-6.9294 0.8763,-1.6817 2.3287,-3.0845 4.595,-3.6494 2.2663,-0.5649 7.3781,0.2162 10.7868,1.9169 3.4086,1.7007 1.3983,8.9197 1.3983,8.9197 l -11.067,32.4145 -0.4371,9.8933 c 5.5131,1.2883 11.0422,2.1589 16.55,2.6025 0.577,-1.5115 0.7576,-3.3004 -0.4879,-4.9002 -2.9195,-3.7498 -2.1851,-8.8859 -1.4213,-10.0462 0.7638,-1.1604 2.1452,-2.3137 2.1147,-3.6129 -0.039,-1.6598 -1.0571,-3.0377 -1.7713,-4.4025 -0.7142,-1.3649 -0.732,-4.5151 -0.1471,-6.7294 0.5849,-2.2142 3.0556,-3.3365 3.0623,-3.991 0.019,-1.8417 -1.2438,-1.4242 -2.1341,-3.4034 -0.8903,-1.9791 -1.8268,-4.9512 -1.5309,-6.8243 0.2959,-1.8731 1.2292,-3.6442 3.1981,-4.9005 1.9689,-1.2564 7.0734,-2.1791 10.846,-1.6508 3.7726,0.5283 4.1629,8.0226 4.1629,8.0226 l -0.1916,34.262 2.3449,8.1463 c 5.7575,-0.4663 11.4441,-1.3514 17.0097,-2.6758 0.187,-1.6805 -0.1102,-3.5407 -1.8415,-4.7878 -3.856,-2.7775 -4.5928,-7.9197 -4.186,-9.2479 0.4067,-1.3283 1.4309,-2.7967 1.0363,-4.0348 -0.5042,-1.5819 -1.8665,-2.6579 -2.9356,-3.7669 -1.0691,-1.1089 -2.0021,-4.1184 -2.0634,-6.4078 -0.061,-2.2893 1.9929,-4.0691 1.8152,-4.699 -0.5,-1.7728 -1.5908,-1.0208 -3.0017,-2.6698 -1.4109,-1.6489 -3.1342,-4.2368 -3.3769,-6.1175 -0.2427,-1.8808 0.148,-3.8387 1.6842,-5.598 1.5362,-1.7593 6.1795,-4.0591 9.9484,-4.6129 3.7689,-0.5538 6.2438,6.5049 6.2438,6.5049 l 9.4597,32.9406 4.3871,6.9449 c 5.4461,-2.2558 10.7073,-4.928 15.7399,-7.9988 -0.4917,-1.1395 -1.3282,-2.1589 -2.7842,-2.6308 -4.5207,-1.4652 -6.8107,-6.1321 -6.8297,-7.5212 -0.019,-1.389 0.5156,-3.1015 -0.2388,-4.1597 -0.9637,-1.3518 -2.5933,-1.958 -3.9504,-2.6869 -1.3571,-0.7288 -3.1601,-3.3128 -3.9186,-5.4737 -0.7586,-2.1609 0.6739,-4.4855 0.3121,-5.0309 -1.0182,-1.5348 -1.833,-0.472 -3.6806,-1.6104 -1.8476,-1.1385 -4.2865,-3.092 -5.0928,-4.8084 -0.8062,-1.7164 -1.0395,-3.6853 -0.115,-5.8302 0.9246,-2.1448 4.6342,-5.7639 8.0531,-7.4438 3.4189,-1.6799 7.9572,4.3063 7.9572,4.3063 l 19.0724,28.4473 5.2101,4.3534 c 4.6215,-3.8932 8.9629,-8.1389 12.9398,-12.774 -0.8604,-1.4576 -2.2295,-2.7692 -4.3656,-2.7252 -4.7512,0.098 -8.444,-3.5807 -8.9173,-4.8867 -0.4734,-1.306 -0.5322,-3.0973 -1.5919,-3.8496 -1.3537,-0.9612 -3.0775,-0.9789 -4.5985,-1.2226 -1.5211,-0.2436 -4.0704,-2.0954 -5.4954,-3.8882 -1.4251,-1.7927 -0.8665,-4.4714 -1.3871,-4.868 -1.4652,-1.1162 -1.8647,0.1745 -3.9834,-0.2953 -2.1187,-0.4698 -5.0576,-1.5404 -6.382,-2.8976 -1.3244,-1.3571 -2.1816,-3.1397 -2.0114,-5.4691 0.1703,-2.3294 2.492,-6.9711 5.1712,-9.6791 2.6792,-2.708 8.898,1.4577 8.898,1.4577 l 27.3419,20.647 7.9931,3.0018 c 3.0913,-5.0739 5.8113,-10.4587 8.118,-16.1107 -1.2454,-1.0581 -2.9144,-1.8054 -4.8553,-1.1427 -4.4973,1.5355 -9.1093,-0.8382 -9.9567,-1.939 -0.8475,-1.1007 -1.4589,-2.799 -2.6968,-3.1943 -1.5816,-0.5049 -3.2591,0.001 -4.7824,0.2307 -1.5232,0.2296 -4.4974,-0.772 -6.3994,-2.0476 -1.902,-1.2757 -2.1522,-3.9526 -2.7687,-4.1725 -1.7348,-0.6189 -1.7593,0.7146 -3.9207,0.9101 -2.1613,0.1955 -5.2656,0.08 -6.9395,-0.8108 -1.6739,-0.8911 -3.0651,-2.3437 -3.6099,-4.6149 -0.5449,-2.2711 0.2849,-7.3935 2.0157,-10.787 1.7307,-3.3935 8.9298,-1.3292 8.9298,-1.3292 l 32.3165,11.3638 8.1243,0.4123 c 1.2983,-5.5614 2.166,-11.1224 2.612,-16.6785 -1.3114,-0.3873 -2.7778,-0.3868 -4.1488,0.6045 -3.8512,2.7842 -8.9642,1.8801 -10.0966,1.0755 -1.1324,-0.8046 -2.2348,-2.2376 -3.5342,-2.2532 -1.6601,-0.02 -3.0828,0.9184 -4.4722,1.5836 -1.3894,0.6652 -4.5379,0.6128 -6.7299,-0.051 -2.192,-0.6632 -3.219,-3.1908 -3.8729,-3.2207 -1.8399,-0.084 -1.4831,1.1865 -3.4927,2.0059 -2.0095,0.8194 -5.013,1.6463 -6.8744,1.284 -1.8614,-0.3623 -3.5968,-1.3442 -4.7824,-3.3566 -1.1855,-2.0123 -1.9077,-7.1254 -1.2457,-10.8768 0.6621,-3.7514 8.1618,-3.8865 8.1618,-3.8865 l 34.2258,1.3973 6.9226,-1.7289 c -0.4677,-6.206 -1.446,-12.3206 -2.9067,-18.3035 -1.1955,0.1519 -2.3715,0.682 -3.2262,1.8964 -2.7353,3.8862 -7.8459,4.667 -9.1786,4.2748 -1.3326,-0.3922 -2.8503,-1.3949 -4.084,-0.9868 -1.5763,0.5214 -2.6201,1.9037 -3.7173,2.9849 -1.0972,1.0812 -4.0994,2.0165 -6.388,2.1028 -2.2886,0.087 -4.0907,-1.9404 -4.7186,-1.7558 -1.7672,0.5193 -0.9868,1.6221 -2.6202,3.051 -1.6334,1.4288 -4.2198,3.1531 -6.0977,3.4163 -1.878,0.2633 -3.8514,-0.078 -5.6274,-1.5952 -1.776,-1.5169 -4.1265,-6.1558 -4.7215,-9.9184 -0.595,-3.7626 6.4651,-6.3228 6.4651,-6.3228 l 32.8212,-9.79533 5.7805,-3.7515 c -6.6361,-16.072 -16.939,-30.5532 -30.2476,-42.14252 -1.1845,0.82635 -2.1115,2.07816 -2.1337,3.86984 -0.059,4.75188 -3.8628,8.29058 -5.1837,8.72058 -1.3209,0.43 -3.1223,0.4392 -3.9092,1.4734 -1.0053,1.3213 -1.087,3.0671 -1.3807,4.5792 -0.2937,1.5122 -2.2375,4.0023 -4.0763,5.3675 -1.8389,1.3651 -4.455,0.6822 -4.8686,1.1895 -1.1639,1.4275 0.076,1.8916 -0.4633,3.9936 -0.5394,2.1021 -1.6953,5.0049 -3.0955,6.2838 -1.4001,1.2789 -3.1964,2.1103 -5.5189,1.8633 -2.3225,-0.247 -6.8839,-2.7407 -9.5022,-5.5077 -2.6181,-2.767 1.7443,-8.8691 1.7443,-8.8691 l 21.5384,-26.65264 2.7878,-6.74736 c -5.2612,-3.30273 -10.8575,-6.20965 -16.7545,-8.65971 -1.0798,1.27966 -1.8648,2.9723 -1.1425,4.95412 1.6274,4.46493 -0.6382,9.12588 -1.7214,9.99564 -1.0831,0.86979 -2.7848,1.52992 -3.1546,2.77575 -0.4723,1.59161 0.079,3.23418 0.3393,4.75238 0.2607,1.51817 -0.6726,4.55032 -1.909,6.47812 -1.2364,1.9277 -3.9553,2.2169 -4.1624,2.8378 -0.5833,1.7471 0.779,1.7339 1.0187,3.8908 0.2398,2.1569 0.1646,5.2869 -0.6921,6.9787 -0.8567,1.6918 -2.2464,3.0875 -4.506,3.6788 -2.2595,0.5912 -7.4075,-0.1077 -10.8357,-1.7685 -3.4282,-1.6609 -1.4972,-8.9195 -1.4972,-8.9195 l 10.711,-32.53207 0.2623,-8.7662 c -5.3839,-1.28573 -10.7921,-2.16098 -16.1745,-2.64309 -0.768,1.59352 -1.1566,3.58839 0.1928,5.39513 2.8437,3.80751 2.0008,8.93169 1.2138,10.07643 -0.7869,1.14477 -2.228,2.24446 -2.2235,3.54398 0.01,1.66022 0.9958,3.09304 1.6825,4.47195 0.6866,1.37886 0.6775,4.52756 0.048,6.72961 -0.6292,2.20206 -3.1515,3.26786 -3.1712,3.92216 -0.055,1.841 1.2344,1.4563 2.0848,3.4529 0.8505,1.9966 1.6964,4.9679 1.3629,6.8347 -0.3334,1.8668 -1.2835,3.6249 -3.2773,4.8415 -1.9937,1.2166 -7.1052,2.0174 -10.8664,1.4136 -3.7612,-0.6038 -4.005,-8.1021 -4.005,-8.1021 l 0.8735,-34.23424 -2.2668,-8.48248 c -5.974,0.44534 -11.8836,1.35983 -17.6518,2.72702 -0.2173,1.72153 0.06,3.67641 1.8518,4.95571 3.8675,2.76156 4.6268,7.89817 4.2255,9.22809 -0.4012,1.32995 -1.4064,2.80807 -1.0066,4.0446 0.5106,1.57972 1.8716,2.63265 2.9453,3.73716 1.0738,1.10451 2.0223,4.12852 2.0931,6.4176 0.071,2.28914 -1.9955,4.06984 -1.8152,4.69904 0.5073,1.7706 1.5938,0.997 3.0115,2.6401 1.4177,1.6431 3.1561,4.2477 3.4066,6.1274 0.2505,1.8796 -0.1257,3.8421 -1.6546,5.6077 -1.5289,1.7657 -6.1619,4.0829 -9.9285,4.6524 -3.7666,0.5694 -6.2833,-6.485 -6.2833,-6.485 l -9.5682,-32.91071 -4.5557,-7.13216 c -5.3269,2.20857 -10.48231,4.82012 -15.4143,7.81012 0.3965,1.51125 1.2668,2.9997 3.12286,3.59833 4.52284,1.45871 6.78884,6.09269 6.80984,7.48167 0.021,1.389 -0.4972,3.14212 0.2587,4.1992 0.9657,1.35045 2.6021,1.93025 3.9602,2.65715 1.3581,0.7269 3.157,3.3139 3.9186,5.4738 0.7616,2.1598 -0.6353,4.4661 -0.2727,5.011 1.0204,1.5334 1.8315,0.4746 3.6807,1.6104 1.8492,1.1358 4.2543,3.0834 5.063,4.7986 0.8087,1.7152 1.0662,3.6938 0.1447,5.84 -0.9215,2.1461 -4.6365,5.759 -8.0531,7.4438 -3.4165,1.6848 -7.967,-4.2766 -7.967,-4.2766 l -19.11184,-28.42741 -6.01237,-5.01334 c -4.45917,3.77243 -8.6493,7.89125 -12.50618,12.35775 0.83291,1.4579 2.17041,2.7664 4.28664,2.765 4.75222,0 8.38174,3.7397 8.8289,5.0549 0.4472,1.3152 0.4685,3.1161 1.51288,3.8894 1.33426,0.988 3.083,1.0474 4.59886,1.3213 1.51586,0.274 4.00782,2.1665 5.39684,3.9873 1.38899,1.8209 0.76588,4.4911 1.2785,4.898 1.44256,1.1452 1.87469,-0.1178 3.9836,0.3942 2.10892,0.5119 5.01607,1.6231 6.31317,3.0064 1.2971,1.3833 2.1491,3.1833 1.9324,5.5089 -0.2167,2.3255 -2.6364,6.9268 -5.3691,9.5808 -2.73268,2.654 -8.89852,-1.6553 -8.89852,-1.6553 l -26.9085,-21.1621 -7.55835,-3.0228 c -2.95029,4.7929 -5.58416,9.8366 -7.83406,15.1513 1.27612,1.2592 3.06567,2.2928 5.24189,1.5666 4.50789,-1.5041 9.12703,0.9015 9.96678,2.0081 0.83975,1.1066 1.42211,2.8105 2.65733,3.2142 1.57804,0.5159 3.24776,0.018 4.77252,-0.201 1.52476,-0.2189 4.49653,0.7885 6.38962,2.0774 1.89308,1.2888 2.134,4.008 2.7491,4.2318 1.73044,0.63093 1.74823,-0.7 3.91089,-0.8805 2.16266,-0.1804 5.29175,-0.052 6.95939,0.8504 1.66764,0.90273 3.01173,2.35003 3.54076,4.62493 0.52901,2.2749 -0.291,7.3958 -2.04536,10.7772 -1.75435,3.3813 -8.96953,1.2503 -8.96953,1.2503 l -32.20848,-11.5915 -8.74715,-0.5192 z"
       id="path2998-3"
       inkscape:connector-curvature="0" />
    <rect
       style="fill:#ffffff;stroke:#333333;stroke-width:1;stroke-linecap:round;stroke-linejoin:round;stroke-miterlimit:4;stroke-opacity:1;stroke-dasharray:none;stroke-dashoffset:0"
       id="rect3979-9"
       width="90.939209"
       height="109.11863"
       x="1008.0525"
       y="532.76135" />
    <rect
       style="fill:#ffffff;stroke:#333333;stroke-width:1;stroke-linecap:round;stroke-linejoin:round;stroke-miterlimit:4;stroke-opacity:1;stroke-dasharray:none;stroke-dashoffset:0"
       id="rect3981-1"
       width="98.362816"
       height="5.1076803"
       x="1003.904"
       y="561.45721" />
    <rect
       style="fill:#ffffff;stroke:#333333;stroke-width:1;stroke-linecap:round;stroke-linejoin:round;stroke-miterlimit:4;stroke-opacity:1;stroke-dasharray:none;stroke-dashoffset:0"
       id="rect3977-8"
       width="57.205456"
       height="52.284077"
       x="1026.3932"
       y="573.112" />
    <rect
       style="fill:none;stroke:#ffffff;stroke-width:0.52848023;stroke-opacity:1"
       id="rect3070"
       width="190.63272"
       height="97.615479"
       x="811.83606"
       y="560.86572" />
    <path
       style="fill:none;stroke:#ff00ff;stroke-width:1px;stroke-linecap:round;stroke-linejoin:miter;stroke-opacity:1"
       d="m 884.65263,608.66423 2.16977,-2.86708"
       id="path3857"
       inkscape:connector-curvature="0" />
    <path
       style="fill:none;stroke:#ff00ff;stroke-width:1px;stroke-linecap:round;stroke-linejoin:miter;stroke-opacity:1;display:inline"
       d="m 889.02039,608.71806 -2.16977,-2.86708"
       id="path3857-1"
       inkscape:connector-curvature="0" />
    <path
       style="fill:none;stroke:#ff00ff;stroke-width:1.01644802px;stroke-linecap:round;stroke-linejoin:miter;stroke-opacity:1;display:inline"
       d="m 886.8292,631.58929 0.003,-25.31991"
       id="path3857-7"
       inkscape:connector-curvature="0" />
    <rect
       style="fill:#eeeeee;fill-opacity:1;stroke:#333333;stroke-width:0.48719335;stroke-linecap:round;stroke-linejoin:round;stroke-miterlimit:4;stroke-opacity:1;stroke-dasharray:none;stroke-dashoffset:0"
       id="rect3846"
       width="9.7985201"
       height="18.727095"
       x="881.93726"
       y="621.4552" />
    <path
       style="fill:none;stroke:#343434;stroke-width:2;stroke-linecap:round"
       inkscape:connector-curvature="0"
       id="path3932_1_"
       nodetypes="cc"
       connector-curvature="0"
       d="m 886.8575,639.82585 c 0,0 -3.56465,7.62976 12.72706,12.70126" />
  </g>
  <g
     inkscape:groupmode="layer"
     id="layer5"
     inkscape:label="Wheel"
     style="display:inline"
     transform="translate(-811.5625,-560.59375)" />
  <g
     inkscape:groupmode="layer"
     id="layer6"
     inkscape:label="Motor"
     transform="translate(-811.5625,-560.59375)" />
</svg>
