<?xml version="1.0" encoding="UTF-8" standalone="no"?>
<!-- Created with Inkscape (http://www.inkscape.org/) -->

<?xml-stylesheet type="text/css" href="http://fast.fonts.net/cssapi/a91cce0f-dd59-4c1d-9686-50cdb9d0210f.css" ?><svg
   xmlns:dc="http://purl.org/dc/elements/1.1/"
   xmlns:cc="http://creativecommons.org/ns#"
   xmlns:rdf="http://www.w3.org/1999/02/22-rdf-syntax-ns#"
   xmlns:svg="http://www.w3.org/2000/svg"
   xmlns="http://www.w3.org/2000/svg"
   xmlns:sodipodi="http://sodipodi.sourceforge.net/DTD/sodipodi-0.dtd"
   xmlns:inkscape="http://www.inkscape.org/namespaces/inkscape"
   viewBox="0 0 311 166.00291"
   preserveAspectRatio="xMidYMid"
   id="svg2"
   version="1.1"
   inkscape:version="0.48.4 r9939"
   sodipodi:docname="position_count.svg"
   width="100%"
   height="100%">
  <defs
     id="defs4" />
  <sodipodi:namedview
     id="base"
     pagecolor="#ffffff"
     bordercolor="#666666"
     borderopacity="1.0"
     inkscape:pageopacity="0.0"
     inkscape:pageshadow="2"
     inkscape:zoom="1.979899"
     inkscape:cx="248.19733"
     inkscape:cy="71.962363"
     inkscape:document-units="px"
     inkscape:current-layer="layer1"
     showgrid="false"
     inkscape:window-width="1920"
     inkscape:window-height="1018"
     inkscape:window-x="1358"
     inkscape:window-y="-8"
     inkscape:window-maximized="1"
     fit-margin-top="0"
     fit-margin-left="0"
     fit-margin-right="0"
     fit-margin-bottom="0" />
  <metadata
     id="metadata7">
    <rdf:RDF>
      <cc:Work
         rdf:about="">
        <dc:format>image/svg+xml</dc:format>
        <dc:type
           rdf:resource="http://purl.org/dc/dcmitype/StillImage" />
        <dc:title></dc:title>
      </cc:Work>
    </rdf:RDF>
  </metadata>
  <g
     inkscape:label="Layer 1"
     inkscape:groupmode="layer"
     id="layer1"
     transform="translate(-543.3125,-512.27894)">
    <rect
       style="fill:none;stroke:#808080;stroke-width:1;stroke-linecap:round;stroke-linejoin:round;stroke-miterlimit:4;stroke-opacity:1;stroke-dasharray:none;stroke-dashoffset:0;display:inline"
       id="rect3768-3-6-3"
       width="334.28073"
       height="342.30746"
       x="-287.67798"
       y="526.84314" />
    <rect
       style="fill:#f7f7f7;fill-opacity:1;stroke:#808080;stroke-width:0.13967799;stroke-linecap:round;stroke-linejoin:round;stroke-miterlimit:4;stroke-opacity:1;stroke-dasharray:none;stroke-dashoffset:0;display:inline"
       id="rect3770-3-1-5"
       width="417.41028"
       height="25.1668"
       x="539.28204"
       y="582.59998" />
    <rect
       style="fill:none;stroke:none"
       id="rect2984"
       width="200.79005"
       height="140.60844"
       x="595.09412"
       y="519.22473" />
    <text
       xml:space="preserve"
       style="font-size:12.24575996px;font-style:normal;font-variant:normal;font-weight:normal;font-stretch:normal;line-height:125%;letter-spacing:0px;word-spacing:0px;fill:#e10679;fill-opacity:1;stroke:none;font-family:Tahoma;-inkscape-font-specification:Tahoma"
       x="628.83484"
       y="616.35864"
       id="text2985"
       sodipodi:linespacing="125%"
       transform="scale(1.0288814,0.97192932)"><tspan
         sodipodi:role="line"
         id="tspan2987"
         x="628.83484"
         y="616.35864">1</tspan></text>
    <text
       xml:space="preserve"
       style="font-size:12.24575996px;font-style:normal;font-variant:normal;font-weight:normal;font-stretch:normal;line-height:125%;letter-spacing:0px;word-spacing:0px;fill:#e10679;fill-opacity:1;stroke:none;font-family:Tahoma;-inkscape-font-specification:Tahoma"
       x="618.04419"
       y="616.35864"
       id="text2985-1"
       sodipodi:linespacing="125%"
       transform="scale(1.0288814,0.97192932)"><tspan
         sodipodi:role="line"
         id="tspan2987-7"
         x="618.04419"
         y="616.35864">2</tspan></text>
    <text
       xml:space="preserve"
       style="font-size:12.24575996px;font-style:normal;font-variant:normal;font-weight:normal;font-stretch:normal;line-height:125%;letter-spacing:0px;word-spacing:0px;fill:#e10679;fill-opacity:1;stroke:none;font-family:Tahoma;-inkscape-font-specification:Tahoma"
       x="607.44482"
       y="616.20319"
       id="text2985-1-4"
       sodipodi:linespacing="125%"
       transform="scale(1.0288814,0.97192932)"><tspan
         sodipodi:role="line"
         id="tspan2987-7-0"
         x="607.44482"
         y="616.20319">3</tspan></text>
    <g
       id="g4952-5-5-5-4"
       transform="matrix(0.6434395,0.00580905,-0.00580905,0.6434395,542.60152,173.77674)"
       style="stroke:#ff00ff;display:inline">
      <path
         inkscape:connector-curvature="0"
         id="path4930-2-5-1-9"
         d="m 407.47115,653.66504 55.73165,0 -2.42905,1.85734"
         style="fill:none;stroke:#ff00ff;stroke-width:1px;stroke-linecap:butt;stroke-linejoin:miter;stroke-opacity:1" />
      <path
         inkscape:connector-curvature="0"
         id="path4930-0-0-0-1-4"
         d="m 407.47115,652.86145 55.73165,0 -2.42905,-1.85734"
         style="fill:none;stroke:#ff00ff;stroke-width:1px;stroke-linecap:butt;stroke-linejoin:miter;stroke-opacity:1;display:inline" />
    </g>
    <rect
       style="fill:none;stroke:#ffffff;stroke-width:0.95231628;stroke-linecap:round;stroke-linejoin:round;stroke-miterlimit:4;stroke-opacity:1;stroke-dasharray:none;stroke-dashoffset:0;display:inline"
       id="rect3877"
       width="310.04767"
       height="165.04768"
       x="543.80206"
       y="512.75293" />
    <g
       id="g4952-5-5-5-4-7"
       transform="matrix(0.6434395,0.00580905,-0.00580905,0.6434395,327.39545,172.4379)"
       style="stroke:#ff00ff;display:inline">
      <path
         inkscape:connector-curvature="0"
         id="path4930-2-5-1-9-4"
         d="m 407.47115,653.66504 55.73165,0 -2.42905,1.85734"
         style="fill:none;stroke:#ff00ff;stroke-width:1px;stroke-linecap:butt;stroke-linejoin:miter;stroke-opacity:1" />
      <path
         inkscape:connector-curvature="0"
         id="path4930-0-0-0-1-4-0"
         d="m 407.47115,652.86145 55.73165,0 -2.42905,-1.85734"
         style="fill:none;stroke:#ff00ff;stroke-width:1px;stroke-linecap:butt;stroke-linejoin:miter;stroke-opacity:1;display:inline" />
    </g>
    <path
       sodipodi:type="arc"
       style="fill:#ff9bff;fill-opacity:1;fill-rule:nonzero;stroke:#333333;stroke-width:0.58043641;stroke-linecap:round;stroke-linejoin:round;stroke-miterlimit:4;stroke-opacity:1;stroke-dasharray:none;stroke-dashoffset:0;display:inline"
       id="path4157-1-79-9-4-7-8-0-9-5-6-9"
       sodipodi:cx="413.93353"
       sodipodi:cy="648.29102"
       sodipodi:rx="6.6594138"
       sodipodi:ry="6.6594138"
       d="m 420.59295,648.29102 a 6.6594138,6.6594138 0 1 1 -13.31883,0 6.6594138,6.6594138 0 1 1 13.31883,0 z"
       transform="matrix(-0.58114549,-0.33508334,0.33508334,-0.58114549,625.44234,1110.7662)" />
    <path
       style="fill:#eeeeee;stroke:#333333;stroke-width:0.69409412;stroke-linecap:round;stroke-linejoin:round;stroke-miterlimit:4;stroke-opacity:1;stroke-dasharray:none;stroke-dashoffset:0;display:inline"
       d="m 622.55868,577.05571 c -0.99373,4.07705 -1.65597,8.17199 -1.98948,12.2491 1.19627,0.6995 2.89313,1.27088 4.3764,0.0976 2.58704,-2.04626 6.15662,-1.55838 6.96607,-1.03448 0.80939,0.52397 1.60606,1.49591 2.50763,1.46781 1.15178,-0.036 2.11907,-0.74706 3.06255,-1.25 0.94347,-0.50301 3.12384,-0.54431 4.66382,-0.15013 1.53992,0.39417 2.35007,2.08999 2.80435,2.0911 1.27838,0 0.97278,-0.85958 2.34166,-1.48807 1.36896,-0.62843 3.42134,-1.28533 4.72297,-1.08994 1.30164,0.19538 2.53254,0.81868 3.41501,2.17855 0.88254,1.35988 1.54034,4.89996 1.19378,7.52121 -0.34657,2.62124 -5.54088,2.9442 -5.54088,2.9442 l -23.76683,0.032 -6.68899,1.99398 c 0.31102,3.4641 0.83118,6.89396 1.59232,10.25684 1.35605,0.3787 3.25114,0.51885 4.40056,-1.08223 1.92369,-2.67947 5.49661,-3.18638 6.41899,-2.90547 0.92237,0.28083 1.94832,0.97395 2.80733,0.69867 1.09736,-0.35162 1.84594,-1.29421 2.61451,-2.03751 0.76857,-0.74331 2.85862,-1.38715 4.44761,-1.4322 1.58893,-0.0452 2.82456,1.38389 3.26163,1.25992 1.22986,-0.34899 0.68944,-1.10916 1.8324,-2.09026 1.14296,-0.9811 2.94108,-2.17341 4.24619,-2.34389 1.30511,-0.17054 2.66949,0.084 3.89234,1.14838 1.22279,1.06433 2.83385,4.29659 3.22233,6.91193 0.38856,2.61535 -4.52181,4.3544 -4.52181,4.3544 l -22.85006,6.59327 -5.72419,3.63746 c 1.43656,3.46986 3.11932,6.83878 5.03509,10.06903 1.37153,-0.10767 3.04637,-0.61984 3.60131,-2.39699 0.98318,-3.14855 4.20149,-4.75788 5.16537,-4.78141 0.9639,-0.0236 2.17204,0.32449 2.90083,-0.20697 0.93107,-0.67904 1.32801,-1.80826 1.82374,-2.75556 0.49572,-0.94737 2.27079,-2.21153 3.7649,-2.7541 1.49411,-0.54257 3.12968,0.43069 3.50552,0.17547 1.05767,-0.71818 0.30707,-1.2981 1.08342,-2.58891 0.77634,-1.29087 2.11108,-2.97606 3.29625,-3.54847 1.18523,-0.57243 2.56481,-0.74671 4.06031,-0.12099 1.49556,0.62566 4.03678,3.18103 5.22833,5.54138 1.19149,2.36039 -2.9272,5.54345 -2.9272,5.54345 l -19.60733,13.44342 -4.2246,5.18356 c 2.50478,2.95635 5.22709,5.74161 8.17178,8.31802 1.25069,-0.5418 2.62957,-1.5404 2.59709,-3.36816 -0.0584,-3.29799 2.49825,-5.83615 3.40564,-6.16209 0.90746,-0.32595 2.15454,-0.39154 2.67879,-1.12548 0.66987,-0.93772 0.69687,-2.1299 0.86914,-3.18506 0.17213,-1.05523 1.47225,-2.82191 2.71939,-3.80752 1.24716,-0.98555 3.07518,-0.58838 3.35151,-0.94897 0.77766,-1.01476 -0.10466,-1.28838 0.22558,-2.75805 0.33024,-1.4696 1.06655,-3.51308 2.01114,-4.42971 0.94458,-0.91655 2.2002,-1.51201 3.81668,-1.38929 1.61648,0.12278 4.81652,1.73814 6.69079,3.60311 1.87433,1.86495 -1.01852,6.19659 -1.01852,6.19659 l -14.38599,18.9369 -2.37659,6.22783 c 3.35588,2.05764 6.90368,3.88735 10.62623,5.45099 1.07301,-0.89877 2.24269,-2.32611 1.60038,-4.15422 -1.09334,-3.11204 0.52522,-6.33638 1.28401,-6.93129 0.75879,-0.59498 1.93666,-1.0376 2.2034,-1.89925 0.34073,-1.10083 -0.0187,-2.24983 -0.18748,-3.30562 -0.16873,-1.05578 0.50628,-3.12745 1.38001,-4.45539 0.87371,-1.32794 2.74006,-1.54054 2.88908,-1.9697 0.4189,-1.20794 -0.51015,-1.20863 -0.6591,-2.70759 -0.14895,-1.4989 -0.0934,-3.6424 0.51481,-4.80965 0.60823,-1.16727 1.61634,-2.14094 3.18936,-2.53303 1.57296,-0.3921 5.1211,0.15005 7.48699,1.3305 2.36595,1.18045 0.97062,6.19112 0.97062,6.19112 l -7.68161,22.49871 -0.30333,6.86687 c 3.82662,0.89421 7.66427,1.49849 11.48719,1.80639 0.4005,-1.04913 0.52592,-2.29078 -0.33864,-3.4012 -2.02634,-2.60271 -1.5166,-6.16765 -0.98645,-6.97301 0.53014,-0.80543 1.4889,-1.60593 1.46773,-2.50769 -0.027,-1.15205 -0.73366,-2.10845 -1.22938,-3.05575 -0.49572,-0.94738 -0.50808,-3.1339 -0.10214,-4.67083 0.40603,-1.53687 2.12093,-2.31586 2.12552,-2.77014 0.0132,-1.27831 -0.86331,-0.98853 -1.48127,-2.36228 -0.61795,-1.37368 -1.26797,-3.43659 -1.06259,-4.7367 0.20538,-1.30012 0.85318,-2.52942 2.21979,-3.40141 1.36666,-0.87206 4.90967,-1.5125 7.52821,-1.14581 2.61847,0.36669 2.88938,5.56844 2.88938,5.56844 l -0.13292,23.78105 1.62758,5.65429 c 3.99624,-0.32365 7.94328,-0.938 11.80625,-1.85725 0.12988,-1.16642 -0.0764,-2.45757 -1.2781,-3.32318 -2.67642,-1.92785 -3.18783,-5.49701 -2.90554,-6.41891 0.28236,-0.92197 0.99317,-1.94118 0.71929,-2.80054 -0.3499,-1.09798 -1.29546,-1.84483 -2.03752,-2.61458 -0.74213,-0.76968 -1.38965,-2.85855 -1.43219,-4.44761 -0.0423,-1.589 1.38319,-2.82435 1.25992,-3.26155 -0.34705,-1.23049 -1.10424,-0.70854 -2.08347,-1.8531 -0.97929,-1.14449 -2.17542,-2.94073 -2.34388,-4.24612 -0.16846,-1.30545 0.10266,-2.66442 1.16899,-3.88554 1.06627,-1.22111 4.28916,-2.81739 6.90513,-3.20178 2.61597,-0.38439 4.33379,4.51501 4.33379,4.51501 l 6.56584,22.86388 3.04514,4.82041 c 3.7801,-1.56573 7.4318,-3.4205 10.92496,-5.55192 -0.34128,-0.79092 -0.92196,-1.49847 -1.93249,-1.82603 -3.13779,-1.01697 -4.72727,-4.25624 -4.74046,-5.22041 -0.0132,-0.96409 0.35788,-2.15273 -0.16575,-2.88722 -0.66896,-0.93829 -1.80005,-1.35904 -2.74201,-1.86497 -0.94189,-0.50585 -2.19341,-2.29939 -2.71988,-3.79926 -0.52647,-1.49987 0.46782,-3.11336 0.21669,-3.49192 -0.70672,-1.06529 -1.27234,-0.32762 -2.55474,-1.11777 -1.28235,-0.79022 -2.97517,-2.14614 -3.53482,-3.33748 -0.55965,-1.19135 -0.72158,-2.55794 -0.0798,-4.0467 0.64176,-1.4887 3.21651,-4.0007 5.58961,-5.16671 2.37304,-1.166 5.52304,2.98898 5.52304,2.98898 l 13.23804,19.7451 3.6163,3.02168 c 3.20769,-2.70225 6.22103,-5.64917 8.98144,-8.86636 -0.59719,-1.01171 -1.54748,-1.92208 -3.03013,-1.89155 -3.29778,0.068 -5.86093,-2.48534 -6.18952,-3.39183 -0.32852,-0.90648 -0.36939,-2.14982 -1.10486,-2.67198 -0.93959,-0.66716 -2.13614,-0.67945 -3.19185,-0.8486 -1.05572,-0.16908 -2.82518,-1.45441 -3.81433,-2.69878 -0.98909,-1.2443 -0.60136,-3.10357 -0.96279,-3.37885 -1.01691,-0.77475 -1.2942,0.12112 -2.76478,-0.20496 -1.47057,-0.32609 -3.51045,-1.06919 -4.4297,-2.01121 -0.91933,-0.94196 -1.51431,-2.17925 -1.39611,-3.79607 0.1182,-1.61682 1.72968,-4.83861 3.58931,-6.71821 1.85961,-1.87961 6.17604,1.01178 6.17604,1.01178 l 18.97785,14.33096 5.54797,2.08354 c 2.14559,-3.52176 4.03359,-7.25932 5.63458,-11.18235 -0.86443,-0.73442 -2.02286,-1.25312 -3.37003,-0.79314 -3.12155,1.06579 -6.32264,-0.58179 -6.91089,-1.34585 -0.58818,-0.76399 -1.01255,-1.94277 -1.87183,-2.21714 -1.09778,-0.35045 -2.26212,7e-4 -3.31937,0.16012 -1.05724,0.15937 -3.12162,-0.53583 -4.44178,-1.42122 -1.32024,-0.88545 -1.4939,-2.74347 -1.92174,-2.89611 -1.20412,-0.42958 -1.22119,0.49601 -2.72133,0.6317 -1.50022,0.1357 -3.6549,0.0555 -4.81674,-0.56278 -1.16177,-0.6185 -2.1274,-1.62674 -2.50561,-3.20317 -0.37814,-1.57636 0.19782,-5.13178 1.39909,-7.48719 1.20133,-2.35541 6.19811,-0.92259 6.19811,-0.92259 l 22.4307,7.88755 5.63902,0.28617 c 0.90122,-3.86014 1.50348,-7.72 1.81305,-11.57645 -0.9103,-0.26882 -1.92805,-0.26848 -2.87973,0.41958 -2.67302,1.9325 -6.22193,1.30497 -7.00792,0.74649 -0.78606,-0.55846 -1.55116,-1.55309 -2.45307,-1.56392 -1.15226,-0.0139 -2.13981,0.63745 -3.10419,1.09917 -0.9643,0.46171 -3.14967,0.42533 -4.67112,-0.0354 -1.52152,-0.46033 -2.23436,-2.21472 -2.68816,-2.23547 -1.27706,-0.0584 -1.02947,0.82354 -2.42425,1.39228 -1.39486,0.56874 -3.47957,1.14269 -4.77149,0.89121 -1.29198,-0.25146 -2.49658,-0.933 -3.31943,-2.32979 -0.82292,-1.39673 -1.3242,-4.9457 -0.86464,-7.54952 0.45956,-2.60383 5.66506,-2.6976 5.66506,-2.6976 l 23.75586,0.96986 4.80493,-1.20002 c -0.32455,-4.30754 -1.00359,-8.55166 -2.01752,-12.70435 -0.82979,0.10543 -1.64597,0.47337 -2.23929,1.31628 -1.89848,2.69738 -5.44579,3.23934 -6.37074,2.96711 -0.92502,-0.27222 -1.97838,-0.96819 -2.83475,-0.68493 -1.09403,0.3619 -1.8186,1.32135 -2.58016,2.0718 -0.76155,0.75045 -2.84536,1.39964 -4.4338,1.45954 -1.5885,0.0604 -2.83933,-1.34682 -3.27523,-1.21869 -1.22652,0.36044 -0.68485,1.12589 -1.81866,2.11768 -1.13373,0.99172 -2.92886,2.18855 -4.23237,2.37123 -1.30344,0.18276 -2.67317,-0.0542 -3.90587,-1.10721 -1.23272,-1.05287 -2.86425,-4.27271 -3.27725,-6.88431 -0.41298,-2.6116 4.48746,-4.38862 4.48746,-4.38862 l 22.78093,-6.79888 4.01228,-2.60389 c -4.60607,-11.15548 -11.75732,-21.2068 -20.99468,-29.25088 -0.82222,0.57358 -1.46558,1.44244 -1.48099,2.68604 -0.041,3.29826 -2.68114,5.75444 -3.59797,6.05291 -0.91683,0.29846 -2.16723,0.30484 -2.71342,1.02267 -0.6977,0.91711 -0.75441,2.12886 -0.95833,3.17839 -0.20379,1.04961 -1.55305,2.77798 -2.82935,3.72556 -1.2763,0.94751 -3.09218,0.47351 -3.37925,0.82562 -0.80786,0.99082 0.0527,1.31296 -0.32151,2.77193 -0.37439,1.45906 -1.17677,3.47387 -2.14857,4.36156 -0.9718,0.88767 -2.21861,1.46474 -3.83071,1.2933 -1.61203,-0.17144 -4.77807,-1.90231 -6.59535,-3.82286 -1.81728,-1.92056 1.21071,-6.15599 1.21071,-6.15599 l 14.94968,-18.49945 1.93499,-4.68329 c -3.65184,-2.29241 -7.53612,-4.31009 -11.62919,-6.01065 -0.74956,0.88819 -1.29435,2.06304 -0.79302,3.43861 1.1295,3.09909 -0.44304,6.33422 -1.1948,6.93792 -0.75184,0.60372 -1.93299,1.06191 -2.1896,1.92663 -0.32789,1.10474 0.0548,2.24483 0.23551,3.29861 0.18095,1.05374 -0.46691,3.15835 -1.32509,4.49641 -0.85818,1.33802 -2.74528,1.53875 -2.8891,1.96971 -0.40487,1.21265 0.54077,1.20349 0.70715,2.70058 0.16637,1.49709 0.11417,3.6696 -0.48046,4.84388 -0.59456,1.17426 -1.55921,2.14301 -3.12751,2.55342 -1.56838,0.41036 -5.14151,-0.0748 -7.52107,-1.2275 -2.37949,-1.15282 -1.03913,-6.19097 -1.03913,-6.19097 l 7.43445,-22.58031 0.18205,-6.08457 c -3.73693,-0.89242 -7.4908,-1.49993 -11.22669,-1.83456 -0.53299,1.10605 -0.80272,2.49068 0.13389,3.74473 1.97373,2.64277 1.38867,6.19944 0.84249,6.99399 -0.54625,0.79458 -1.54651,1.55787 -1.54339,2.45985 0.007,1.15235 0.69118,2.14687 1.16781,3.10396 0.47664,0.95706 0.47026,3.14256 0.0333,4.67098 -0.43674,1.52844 -2.18738,2.2682 -2.20112,2.72235 -0.0381,1.27782 0.85679,1.01081 1.44712,2.39664 0.59026,1.38582 1.17739,3.44819 0.94598,4.74392 -0.23141,1.29573 -0.89094,2.51603 -2.27476,3.36046 -1.38388,0.84443 -4.93167,1.40027 -7.54237,0.98117 -2.61062,-0.4191 -2.77984,-5.62362 -2.77984,-5.62362 l 0.60628,-23.76178 -1.5733,-5.88764 c -4.14658,0.3091 -8.24833,0.94384 -12.25207,1.89281 -0.15076,1.1949 0.0417,2.55177 1.28532,3.43973 2.68448,1.91678 3.2115,5.48207 2.93296,6.40516 -0.27847,0.92311 -0.97617,1.94907 -0.69875,2.80733 0.35448,1.09647 1.29914,1.82731 2.04439,2.59394 0.74525,0.76663 1.4036,2.86558 1.45273,4.45442 0.0494,1.58888 -1.38498,2.82485 -1.25984,3.26157 0.35211,1.22897 1.10617,0.69201 2.09027,1.83248 0.98402,1.14047 2.19056,2.94831 2.36443,4.25299 0.17386,1.30463 -0.0872,2.66679 -1.14838,3.89228 -1.06121,1.22556 -4.27701,2.83391 -6.89131,3.2292 -2.61438,0.39522 -4.36121,-4.5012 -4.36121,-4.5012 l -6.6413,-22.84313 -3.16208,-4.95038 c -3.69738,1.53295 -7.27564,3.34561 -10.69891,5.42095 0.27521,1.04895 0.87927,2.08207 2.16752,2.49758 3.13925,1.01248 4.71214,4.22889 4.72664,5.19298 0.0146,0.9641 -0.3451,2.18093 0.17956,2.91464 0.67029,0.93734 1.80611,1.33978 2.74876,1.84431 0.94265,0.50454 2.19132,2.30016 2.71994,3.79934 0.52863,1.4991 -0.44096,3.09988 -0.18928,3.4781 0.70826,1.06433 1.27116,0.32942 2.55468,1.11777 1.28352,0.78836 2.95296,2.14017 3.51428,3.33068 0.56131,1.19051 0.74003,2.56385 0.10046,4.05351 -0.63961,1.48959 -3.21824,3.99728 -5.58961,5.16669 -2.37137,1.16942 -5.52985,-2.96835 -5.52985,-2.96835 l -13.26546,-19.7313 -4.17309,-3.47974 c -3.09511,2.61842 -6.00343,5.47728 -8.68049,8.57745 0.57812,1.01191 1.50647,1.92014 2.97531,1.91917 3.29848,0 5.81775,2.5957 6.12808,3.50857 0.3104,0.91288 0.32519,2.16287 1.0501,2.69961 0.92613,0.68577 2.13989,0.727 3.19207,0.91711 1.05211,0.19018 2.78179,1.50375 3.74588,2.76757 0.9641,1.26387 0.53161,3.11724 0.8874,3.39966 1.00131,0.79488 1.30123,-0.0817 2.76499,0.27361 1.46378,0.35532 3.48165,1.12659 4.3819,2.08674 0.9003,0.96013 1.49174,2.2095 1.34133,3.82369 -0.15048,1.61412 -1.82991,4.80785 -3.72666,6.64998 -1.89675,1.84212 -6.17646,-1.14894 -6.17646,-1.14894 l -18.67704,-14.68849 -5.24617,-2.09811 c -2.04779,3.32672 -3.87596,6.82752 -5.4376,10.51643 0.8858,0.874 2.12789,1.59142 3.63837,1.08737 3.12891,-1.04399 6.33507,0.62573 6.9179,1.39381 0.5829,0.76809 0.98707,1.95075 1.84441,2.23095 1.09536,0.35809 2.25429,0.0125 3.31264,-0.13951 1.05829,-0.15193 3.12099,0.5473 4.43498,1.44192 1.31399,0.89454 1.4812,2.78193 1.90814,2.93726 1.20106,0.43792 1.21341,-0.48586 2.71452,-0.61114 1.50105,-0.12522 3.67295,-0.0362 4.83049,0.59024 1.15747,0.62658 2.0904,1.63115 2.45757,3.21015 0.36718,1.57899 -0.20198,5.13338 -1.41963,7.48039 -1.21772,2.34693 -6.22574,0.86783 -6.22574,0.86783 l -22.35573,-8.0456 -6.07132,-0.36037 z"
       id="path2998-3-2"
       inkscape:connector-curvature="0" />
    <path
       sodipodi:type="arc"
       style="fill:#ff9bff;fill-opacity:1;fill-rule:nonzero;stroke:#333333;stroke-width:0.58043641;stroke-linecap:round;stroke-linejoin:round;stroke-miterlimit:4;stroke-opacity:1;stroke-dasharray:none;stroke-dashoffset:0;display:inline"
       id="path4157-1-79-9-4-7-8-0-9-5-6-9-4"
       sodipodi:cx="413.93353"
       sodipodi:cy="648.29102"
       sodipodi:rx="6.6594138"
       sodipodi:ry="6.6594138"
       d="m 420.59295,648.29102 a 6.6594138,6.6594138 0 1 1 -13.31883,0 6.6594138,6.6594138 0 1 1 13.31883,0 z"
       transform="matrix(-0.58114549,-0.33508334,0.33508334,-0.58114549,600.45165,1110.7662)" />
    <path
       sodipodi:type="arc"
       style="fill:#ff9bff;fill-opacity:1;fill-rule:nonzero;stroke:#333333;stroke-width:0.58043641;stroke-linecap:round;stroke-linejoin:round;stroke-miterlimit:4;stroke-opacity:1;stroke-dasharray:none;stroke-dashoffset:0;display:inline"
       id="path4157-1-79-9-4-7-8-0-9-5-6-9-4-5"
       sodipodi:cx="413.93353"
       sodipodi:cy="648.29102"
       sodipodi:rx="6.6594138"
       sodipodi:ry="6.6594138"
       d="m 420.59295,648.29102 a 6.6594138,6.6594138 0 1 1 -13.31883,0 6.6594138,6.6594138 0 1 1 13.31883,0 z"
       transform="matrix(-0.58114549,-0.33508334,0.33508334,-0.58114549,578.0581,1110.7662)" />
    <path
       sodipodi:type="arc"
       style="fill:#ff9bff;fill-opacity:1;fill-rule:nonzero;stroke:#333333;stroke-width:0.58043641;stroke-linecap:round;stroke-linejoin:round;stroke-miterlimit:4;stroke-opacity:1;stroke-dasharray:none;stroke-dashoffset:0;display:inline"
       id="path4157-1-79-9-4-7-8-0-9-5-6-9-5"
       sodipodi:cx="413.93353"
       sodipodi:cy="648.29102"
       sodipodi:rx="6.6594138"
       sodipodi:ry="6.6594138"
       d="m 420.59295,648.29102 a 6.6594138,6.6594138 0 1 1 -13.31883,0 6.6594138,6.6594138 0 1 1 13.31883,0 z"
       transform="matrix(-0.58114549,-0.33508334,0.33508334,-0.58114549,826.40014,1111.9498)" />
    <path
       sodipodi:type="arc"
       style="fill:#ff9bff;fill-opacity:1;fill-rule:nonzero;stroke:#333333;stroke-width:0.58043641;stroke-linecap:round;stroke-linejoin:round;stroke-miterlimit:4;stroke-opacity:1;stroke-dasharray:none;stroke-dashoffset:0;display:inline"
       id="path4157-1-79-9-4-7-8-0-9-5-6-9-4-1"
       sodipodi:cx="413.93353"
       sodipodi:cy="648.29102"
       sodipodi:rx="6.6594138"
       sodipodi:ry="6.6594138"
       d="m 420.59295,648.29102 a 6.6594138,6.6594138 0 1 1 -13.31883,0 6.6594138,6.6594138 0 1 1 13.31883,0 z"
       transform="matrix(-0.58114549,-0.33508334,0.33508334,-0.58114549,815.87374,1111.9498)" />
    <path
       sodipodi:type="arc"
       style="fill:#ff9bff;fill-opacity:1;fill-rule:nonzero;stroke:#333333;stroke-width:0.58043641;stroke-linecap:round;stroke-linejoin:round;stroke-miterlimit:4;stroke-opacity:1;stroke-dasharray:none;stroke-dashoffset:0;display:inline"
       id="path4157-1-79-9-4-7-8-0-9-5-6-9-4-5-7"
       sodipodi:cx="413.93353"
       sodipodi:cy="648.29102"
       sodipodi:rx="6.6594138"
       sodipodi:ry="6.6594138"
       d="m 420.59295,648.29102 a 6.6594138,6.6594138 0 1 1 -13.31883,0 6.6594138,6.6594138 0 1 1 13.31883,0 z"
       transform="matrix(-0.58114549,-0.33508334,0.33508334,-0.58114549,805.08733,1111.9498)" />
  </g>
</svg>
