<?xml version="1.0" encoding="UTF-8" standalone="no"?>
<!-- Created with Inkscape (http://www.inkscape.org/) -->

<svg
   xmlns:dc="http://purl.org/dc/elements/1.1/"
   xmlns:cc="http://creativecommons.org/ns#"
   xmlns:rdf="http://www.w3.org/1999/02/22-rdf-syntax-ns#"
   xmlns:svg="http://www.w3.org/2000/svg"
   xmlns="http://www.w3.org/2000/svg"
   xmlns:sodipodi="http://sodipodi.sourceforge.net/DTD/sodipodi-0.dtd"
   xmlns:inkscape="http://www.inkscape.org/namespaces/inkscape"
   width="311.00119"
   height="166.00412"
   id="svg2"
   version="1.1"
   inkscape:version="0.48.4 r9939"
   sodipodi:docname="removed-item.svg">
  <defs
     id="defs4">
    <marker
       inkscape:stockid="Arrow1Lend"
       orient="auto"
       refY="0"
       refX="0"
       id="Arrow1Lend"
       style="overflow:visible">
      <path
         id="path4473"
         d="M 0,0 5,-5 -12.5,0 5,5 0,0 z"
         style="fill-rule:evenodd;stroke:#000000;stroke-width:1pt"
         transform="matrix(-0.8,0,0,-0.8,-10,0)"
         inkscape:connector-curvature="0" />
    </marker>
  </defs>
  <sodipodi:namedview
     id="base"
     pagecolor="#ffffff"
     bordercolor="#666666"
     borderopacity="1.0"
     inkscape:pageopacity="0.0"
     inkscape:pageshadow="2"
     inkscape:zoom="1.4"
     inkscape:cx="-7.9815527"
     inkscape:cy="-65.113333"
     inkscape:document-units="px"
     inkscape:current-layer="layer4"
     showgrid="false"
     showguides="true"
     inkscape:guide-bbox="true"
     inkscape:window-width="1680"
     inkscape:window-height="1028"
     inkscape:window-x="2958"
     inkscape:window-y="-8"
     inkscape:window-maximized="1"
     fit-margin-top="0"
     fit-margin-left="0"
     fit-margin-right="0"
     fit-margin-bottom="0">
    <sodipodi:guide
       orientation="0,1"
       position="-1787.2718,-360.97835"
       id="guide3985" />
    <sodipodi:guide
       orientation="1,0"
       position="-1875.4576,-995.09715"
       id="guide5504" />
    <sodipodi:guide
       orientation="1,0"
       position="-1575.8928,-841.05542"
       id="guide5994" />
  </sodipodi:namedview>
  <metadata
     id="metadata7">
    <rdf:RDF>
      <cc:Work
         rdf:about="">
        <dc:format>image/svg+xml</dc:format>
        <dc:type
           rdf:resource="http://purl.org/dc/dcmitype/StillImage" />
        <dc:title />
      </cc:Work>
    </rdf:RDF>
  </metadata>
  <g
     inkscape:groupmode="layer"
     id="layer7"
     inkscape:label="Rejecter"
     transform="translate(-2335.8432,-30.558381)" />
  <g
     inkscape:groupmode="layer"
     id="layer2"
     inkscape:label="Schematic"
     style="display:inline"
     transform="translate(-2335.8432,-30.558381)" />
  <g
     inkscape:label="Layer 1"
     inkscape:groupmode="layer"
     id="layer1"
     style="display:inline"
     transform="translate(-2335.8432,-30.558381)" />
  <g
     inkscape:groupmode="layer"
     id="layer3"
     inkscape:label="TopPlate"
     style="display:inline"
     transform="translate(-2335.8432,-30.558381)" />
  <g
     inkscape:groupmode="layer"
     id="layer4"
     inkscape:label="Conveyor"
     style="display:inline"
     transform="translate(-2335.8432,-30.558381)">
    <rect
       style="fill:#eeeeee;stroke:#333333;stroke-width:0.2;stroke-linecap:round;stroke-linejoin:round;stroke-miterlimit:4;stroke-opacity:1;stroke-dasharray:none;stroke-dashoffset:0;display:inline"
       id="rect3995-7-3-9"
       width="28.711899"
       height="11.886966"
       x="2540.9675"
       y="58.363586" />
    <rect
       style="fill:#eeeeee;stroke:#333333;stroke-width:0.2;stroke-linecap:round;stroke-linejoin:round;stroke-miterlimit:4;stroke-opacity:1;stroke-dasharray:none;stroke-dashoffset:0;display:inline"
       id="rect4007-1-36-0"
       width="6.4137797"
       height="6.4890761"
       x="2532.0295"
       y="67.918518" />
    <rect
       style="fill:#eeeeee;stroke:#333333;stroke-width:0.2;stroke-linecap:round;stroke-linejoin:round;stroke-miterlimit:4;stroke-opacity:1;stroke-dasharray:none;stroke-dashoffset:0;display:inline"
       id="rect3993-0-2-8"
       width="32.860386"
       height="48.871216"
       x="2548.9041"
       y="68.416382"
       rx="0"
       ry="0" />
    <rect
       rx="1.6251711"
       style="fill:#eeeeee;fill-opacity:1;fill-rule:nonzero;stroke:#333333;stroke-width:0.2;stroke-linecap:round;stroke-linejoin:round;stroke-miterlimit:4;stroke-opacity:1;stroke-dasharray:none;stroke-dashoffset:0;display:inline"
       id="rect3989-7-8-3"
       width="4.257658"
       height="11.863749"
       x="2529.5591"
       y="65.212524"
       ry="1.6251711" />
    <rect
       style="fill:#eeeeee;fill-opacity:1;fill-rule:nonzero;stroke:#333333;stroke-width:0.2;stroke-linecap:round;stroke-linejoin:round;stroke-miterlimit:4;stroke-opacity:1;stroke-dasharray:none;stroke-dashoffset:0;display:inline"
       id="rect3991-3-2-8"
       width="31.87785"
       height="3.2503421"
       x="2540.1487"
       y="69.577271"
       ry="1.6251711"
       rx="1.6251711" />
    <rect
       style="fill:#888888;fill-opacity:1;fill-rule:nonzero;stroke:#333333;stroke-width:0.2;stroke-linecap:round;stroke-linejoin:round;stroke-miterlimit:4;stroke-opacity:1;stroke-dasharray:none;stroke-dashoffset:0;display:inline"
       id="rect4014-4-3-7"
       width="2.893024"
       height="24.180223"
       x="2563.7163"
       y="97.198669" />
    <rect
       style="fill:#666666;fill-opacity:1;fill-rule:nonzero;stroke:#333333;stroke-width:0.2;stroke-linecap:round;stroke-linejoin:round;stroke-miterlimit:4;stroke-opacity:1;stroke-dasharray:none;stroke-dashoffset:0;display:inline"
       id="rect4012-9-4-2"
       width="6.5229502"
       height="13.721087"
       x="2561.9424"
       y="84.731262" />
    <path
       style="fill:none;stroke:#000000;stroke-width:0.1;stroke-linecap:butt;stroke-linejoin:miter;stroke-miterlimit:4;stroke-opacity:1;stroke-dasharray:none;display:inline"
       d="m 2562.8314,88.159209 4.6125,0.012"
       id="path4018-65-3-6"
       inkscape:connector-curvature="0" />
    <path
       style="fill:none;stroke:#000000;stroke-width:0.1;stroke-linecap:butt;stroke-linejoin:miter;stroke-miterlimit:4;stroke-opacity:1;stroke-dasharray:none;display:inline"
       d="m 2562.8314,87.898109 4.6125,0.012"
       id="path4018-6-1-4-9"
       inkscape:connector-curvature="0" />
    <path
       style="fill:none;stroke:#000000;stroke-width:0.1;stroke-linecap:butt;stroke-linejoin:miter;stroke-miterlimit:4;stroke-opacity:1;stroke-dasharray:none;display:inline"
       d="m 2562.8314,87.609709 4.6125,0.012"
       id="path4018-8-0-3-3"
       inkscape:connector-curvature="0" />
    <path
       style="fill:none;stroke:#000000;stroke-width:0.1;stroke-linecap:butt;stroke-linejoin:miter;stroke-miterlimit:4;stroke-opacity:1;stroke-dasharray:none;display:inline"
       d="m 2562.8314,87.263409 4.6125,0.012"
       id="path4018-5-9-6-8"
       inkscape:connector-curvature="0" />
    <path
       style="fill:none;stroke:#000000;stroke-width:0.1;stroke-linecap:butt;stroke-linejoin:miter;stroke-miterlimit:4;stroke-opacity:1;stroke-dasharray:none;display:inline"
       d="m 2562.8314,86.385809 4.6125,0.012"
       id="path4018-5-7-9-8-1"
       inkscape:connector-curvature="0" />
    <path
       style="fill:none;stroke:#000000;stroke-width:0.1;stroke-linecap:butt;stroke-linejoin:miter;stroke-miterlimit:4;stroke-opacity:1;stroke-dasharray:none;display:inline"
       d="m 2562.8314,85.450809 4.6125,0.012"
       id="path4018-5-6-6-4-0"
       inkscape:connector-curvature="0" />
    <path
       style="fill:none;stroke:#000000;stroke-width:0.1;stroke-linecap:butt;stroke-linejoin:miter;stroke-miterlimit:4;stroke-opacity:1;stroke-dasharray:none;display:inline"
       d="m 2562.8314,94.638109 4.6125,-0.012"
       id="path4018-1-8-7-3"
       inkscape:connector-curvature="0" />
    <path
       style="fill:none;stroke:#000000;stroke-width:0.1;stroke-linecap:butt;stroke-linejoin:miter;stroke-miterlimit:4;stroke-opacity:1;stroke-dasharray:none;display:inline"
       d="m 2562.8314,94.899209 4.6125,-0.012"
       id="path4018-6-8-3-3-3"
       inkscape:connector-curvature="0" />
    <path
       style="fill:none;stroke:#000000;stroke-width:0.1;stroke-linecap:butt;stroke-linejoin:miter;stroke-miterlimit:4;stroke-opacity:1;stroke-dasharray:none;display:inline"
       d="m 2562.8314,95.187609 4.6125,-0.012"
       id="path4018-8-9-4-9-8"
       inkscape:connector-curvature="0" />
    <path
       style="fill:none;stroke:#000000;stroke-width:0.1;stroke-linecap:butt;stroke-linejoin:miter;stroke-miterlimit:4;stroke-opacity:1;stroke-dasharray:none;display:inline"
       d="m 2562.8314,95.533909 4.6125,-0.012"
       id="path4018-5-2-8-8-4"
       inkscape:connector-curvature="0" />
    <path
       style="fill:none;stroke:#000000;stroke-width:0.1;stroke-linecap:butt;stroke-linejoin:miter;stroke-miterlimit:4;stroke-opacity:1;stroke-dasharray:none;display:inline"
       d="m 2562.8314,96.411409 4.6125,-0.012"
       id="path4018-5-7-7-4-0-8"
       inkscape:connector-curvature="0" />
    <path
       style="fill:none;stroke:#000000;stroke-width:0.1;stroke-linecap:butt;stroke-linejoin:miter;stroke-miterlimit:4;stroke-opacity:1;stroke-dasharray:none;display:inline"
       d="m 2562.8314,97.346509 4.6125,-0.012"
       id="path4018-5-6-9-9-0-0"
       inkscape:connector-curvature="0" />
    <path
       style="fill:none;stroke:#000000;stroke-width:0.07552643;stroke-linecap:butt;stroke-linejoin:miter;stroke-miterlimit:4;stroke-opacity:1;stroke-dasharray:none;display:inline"
       d="m 2563.8649,103.36751 2.5637,0.012"
       id="path4018-54-9-8-1"
       inkscape:connector-curvature="0" />
    <path
       style="fill:none;stroke:#000000;stroke-width:0.07552643;stroke-linecap:butt;stroke-linejoin:miter;stroke-miterlimit:4;stroke-opacity:1;stroke-dasharray:none;display:inline"
       d="m 2563.8649,103.09961 2.5637,0.012"
       id="path4018-6-3-2-8-5"
       inkscape:connector-curvature="0" />
    <path
       style="fill:none;stroke:#000000;stroke-width:0.07552643;stroke-linecap:butt;stroke-linejoin:miter;stroke-miterlimit:4;stroke-opacity:1;stroke-dasharray:none;display:inline"
       d="m 2563.8649,102.80361 2.5637,0.012"
       id="path4018-8-1-5-05-4"
       inkscape:connector-curvature="0" />
    <path
       style="fill:none;stroke:#000000;stroke-width:0.07552643;stroke-linecap:butt;stroke-linejoin:miter;stroke-miterlimit:4;stroke-opacity:1;stroke-dasharray:none;display:inline"
       d="m 2563.8649,102.44821 2.5637,0.012"
       id="path4018-5-23-5-1-1"
       inkscape:connector-curvature="0" />
    <rect
       style="fill:#eeeeee;fill-opacity:1;fill-rule:nonzero;stroke:#808080;stroke-width:0.2;stroke-linecap:round;stroke-linejoin:round;stroke-miterlimit:4;stroke-opacity:1;stroke-dasharray:none;stroke-dashoffset:0;display:inline"
       id="rect3987-3-4-3"
       width="21.561216"
       height="32.062305"
       x="2540.5308"
       y="77.935303" />
    <path
       style="fill:#eeeeee;stroke:#333333;stroke-width:0.2;stroke-linecap:butt;stroke-linejoin:miter;stroke-miterlimit:4;stroke-opacity:1;stroke-dasharray:none;display:inline"
       d="m 2541.9766,120.24904 -0.2729,-73.898911 c 0,0 -1.0917,-4.89873 4.6943,-4.89873 5.7861,0 12.0088,-0.0929 12.0088,-0.0929 l 0.055,-4.94516 -16.1027,0.30179 c 0,0 -4.8035,0.0929 -4.9126,5.01481 -0.1092,4.92195 1.0371,78.588701 1.0371,78.588701 z"
       id="path3983-3-3-7"
       inkscape:connector-curvature="0"
       sodipodi:nodetypes="ccscccscc" />
    <rect
       style="fill:none;stroke:#808080;stroke-width:1;stroke-linecap:round;stroke-linejoin:round;stroke-miterlimit:4;stroke-opacity:1;stroke-dasharray:none;stroke-dashoffset:0;display:inline"
       id="rect3768-3-6-3"
       width="334.28073"
       height="342.30746"
       x="1862.9137"
       y="45.525993" />
    <path
       transform="translate(1998.4222,-463.42946)"
       sodipodi:type="arc"
       style="fill:#888888;fill-opacity:1;fill-rule:nonzero;stroke:#333333;stroke-width:0.2;stroke-linecap:round;stroke-linejoin:round;stroke-miterlimit:4;stroke-opacity:1;stroke-dasharray:none;stroke-dashoffset:0;display:inline"
       id="path4137-7-39-5"
       sodipodi:cx="553.37891"
       sodipodi:cy="571.65924"
       sodipodi:rx="2.1807687"
       sodipodi:ry="2.7251735"
       d="m 555.55967,571.65924 c 0,1.50507 -0.97636,2.72517 -2.18076,2.72517 -1.20441,0 -2.18077,-1.2201 -2.18077,-2.72517 0,-1.50507 0.97636,-2.72517 2.18077,-2.72517 1.2044,0 2.18076,1.2201 2.18076,2.72517 z" />
    <path
       transform="matrix(0.4907247,0,0,0.56555633,2280.2069,-214.32797)"
       sodipodi:type="arc"
       style="fill:#eeeeee;fill-opacity:1;fill-rule:nonzero;stroke:#333333;stroke-width:0.2;stroke-linecap:round;stroke-linejoin:round;stroke-miterlimit:4;stroke-opacity:1;stroke-dasharray:none;stroke-dashoffset:0;display:inline"
       id="path4137-3-4-2-8"
       sodipodi:cx="553.37891"
       sodipodi:cy="571.65924"
       sodipodi:rx="2.1807687"
       sodipodi:ry="2.7251735"
       d="m 555.55967,571.65924 c 0,1.50507 -0.97636,2.72517 -2.18076,2.72517 -1.20441,0 -2.18077,-1.2201 -2.18077,-2.72517 0,-1.50507 0.97636,-2.72517 2.18077,-2.72517 1.2044,0 2.18076,1.2201 2.18076,2.72517 z" />
    <rect
       style="fill:#f7f7f7;fill-opacity:1;stroke:#808080;stroke-width:0.1904773;stroke-linecap:round;stroke-linejoin:round;stroke-miterlimit:4;stroke-opacity:1;stroke-dasharray:none;stroke-dashoffset:0;display:inline"
       id="rect3770-3-1-5"
       width="667.58844"
       height="29.2626"
       x="2039.3871"
       y="121.00903" />
    <path
       sodipodi:type="arc"
       style="fill:#cccccf;fill-opacity:1;fill-rule:nonzero;stroke:#333333;stroke-width:1;stroke-linecap:round;stroke-linejoin:round;stroke-miterlimit:4;stroke-opacity:1;stroke-dasharray:none;stroke-dashoffset:0;display:inline"
       id="path4157-42-3-80-9-6"
       sodipodi:cx="413.93353"
       sodipodi:cy="648.29102"
       sodipodi:rx="6.6594138"
       sodipodi:ry="6.6594138"
       d="m 420.59295,648.29102 c 0,3.67789 -2.98152,6.65941 -6.65942,6.65941 -3.67789,0 -6.65941,-2.98152 -6.65941,-6.65941 0,-3.6779 2.98152,-6.65942 6.65941,-6.65942 3.6779,0 6.65942,2.98152 6.65942,6.65942 z"
       transform="matrix(0.93569552,-0.35280857,0.35280857,0.93569552,1497.4638,-325.64508)" />
    <path
       sodipodi:type="arc"
       style="fill:#cccccf;fill-opacity:1;fill-rule:nonzero;stroke:#333333;stroke-width:1;stroke-linecap:round;stroke-linejoin:round;stroke-miterlimit:4;stroke-opacity:1;stroke-dasharray:none;stroke-dashoffset:0;display:inline"
       id="path4157-4-7-1-88-8-9"
       sodipodi:cx="413.93353"
       sodipodi:cy="648.29102"
       sodipodi:rx="6.6594138"
       sodipodi:ry="6.6594138"
       d="m 420.59295,648.29102 c 0,3.67789 -2.98152,6.65941 -6.65942,6.65941 -3.67789,0 -6.65941,-2.98152 -6.65941,-6.65941 0,-3.6779 2.98152,-6.65942 6.65941,-6.65942 3.6779,0 6.65942,2.98152 6.65942,6.65942 z"
       transform="matrix(0.93569552,-0.35280857,0.35280857,0.93569552,1482.1564,-325.66218)" />
    <path
       sodipodi:type="arc"
       style="fill:#cccccf;fill-opacity:1;fill-rule:nonzero;stroke:#333333;stroke-width:1;stroke-linecap:round;stroke-linejoin:round;stroke-miterlimit:4;stroke-opacity:1;stroke-dasharray:none;stroke-dashoffset:0;display:inline"
       id="path4157-1-79-9-06-2-0"
       sodipodi:cx="413.93353"
       sodipodi:cy="648.29102"
       sodipodi:rx="6.6594138"
       sodipodi:ry="6.6594138"
       d="m 420.59295,648.29102 c 0,3.67789 -2.98152,6.65941 -6.65942,6.65941 -3.67789,0 -6.65941,-2.98152 -6.65941,-6.65941 0,-3.6779 2.98152,-6.65942 6.65941,-6.65942 3.6779,0 6.65942,2.98152 6.65942,6.65942 z"
       transform="matrix(0.93569552,-0.35280857,0.35280857,0.93569552,1465.7883,-325.62785)" />
    <path
       sodipodi:type="arc"
       style="fill:#cccccf;fill-opacity:1;fill-rule:nonzero;stroke:#333333;stroke-width:1;stroke-linecap:round;stroke-linejoin:round;stroke-miterlimit:4;stroke-opacity:1;stroke-dasharray:none;stroke-dashoffset:0;display:inline"
       id="path4157-42-3-8-8-3-8"
       sodipodi:cx="413.93353"
       sodipodi:cy="648.29102"
       sodipodi:rx="6.6594138"
       sodipodi:ry="6.6594138"
       d="m 420.59295,648.29102 c 0,3.67789 -2.98152,6.65941 -6.65942,6.65941 -3.67789,0 -6.65941,-2.98152 -6.65941,-6.65941 0,-3.6779 2.98152,-6.65942 6.65941,-6.65942 3.6779,0 6.65942,2.98152 6.65942,6.65942 z"
       transform="matrix(0.93569552,-0.35280857,0.35280857,0.93569552,1593.8052,-325.80908)" />
    <path
       sodipodi:type="arc"
       style="fill:#cccccf;fill-opacity:1;fill-rule:nonzero;stroke:#333333;stroke-width:1;stroke-linecap:round;stroke-linejoin:round;stroke-miterlimit:4;stroke-opacity:1;stroke-dasharray:none;stroke-dashoffset:0;display:inline"
       id="path4157-4-7-1-6-1-4-9"
       sodipodi:cx="413.93353"
       sodipodi:cy="648.29102"
       sodipodi:rx="6.6594138"
       sodipodi:ry="6.6594138"
       d="m 420.59295,648.29102 c 0,3.67789 -2.98152,6.65941 -6.65942,6.65941 -3.67789,0 -6.65941,-2.98152 -6.65941,-6.65941 0,-3.6779 2.98152,-6.65942 6.65941,-6.65942 3.6779,0 6.65942,2.98152 6.65942,6.65942 z"
       transform="matrix(0.93569552,-0.35280857,0.35280857,0.93569552,1578.4977,-325.82618)" />
    <path
       sodipodi:type="arc"
       style="fill:#cccccf;fill-opacity:1;fill-rule:nonzero;stroke:#333333;stroke-width:1;stroke-linecap:round;stroke-linejoin:round;stroke-miterlimit:4;stroke-opacity:1;stroke-dasharray:none;stroke-dashoffset:0;display:inline"
       id="path4157-1-79-9-5-9-0-3"
       sodipodi:cx="413.93353"
       sodipodi:cy="648.29102"
       sodipodi:rx="6.6594138"
       sodipodi:ry="6.6594138"
       d="m 420.59295,648.29102 c 0,3.67789 -2.98152,6.65941 -6.65942,6.65941 -3.67789,0 -6.65941,-2.98152 -6.65941,-6.65941 0,-3.6779 2.98152,-6.65942 6.65941,-6.65942 3.6779,0 6.65942,2.98152 6.65942,6.65942 z"
       transform="matrix(0.93569552,-0.35280857,0.35280857,0.93569552,1562.1296,-325.79185)" />
    <path
       sodipodi:type="arc"
       style="fill:#cccccf;fill-opacity:1;fill-rule:nonzero;stroke:#333333;stroke-width:1;stroke-linecap:round;stroke-linejoin:round;stroke-miterlimit:4;stroke-opacity:1;stroke-dasharray:none;stroke-dashoffset:0;display:inline"
       id="path4157-42-3-0-8-2-6"
       sodipodi:cx="413.93353"
       sodipodi:cy="648.29102"
       sodipodi:rx="6.6594138"
       sodipodi:ry="6.6594138"
       d="m 420.59295,648.29102 c 0,3.67789 -2.98152,6.65941 -6.65942,6.65941 -3.67789,0 -6.65941,-2.98152 -6.65941,-6.65941 0,-3.6779 2.98152,-6.65942 6.65941,-6.65942 3.6779,0 6.65942,2.98152 6.65942,6.65942 z"
       transform="matrix(0.93569552,-0.35280857,0.35280857,0.93569552,1545.6779,-325.4702)" />
    <path
       sodipodi:type="arc"
       style="fill:#cccccf;fill-opacity:1;fill-rule:nonzero;stroke:#333333;stroke-width:1;stroke-linecap:round;stroke-linejoin:round;stroke-miterlimit:4;stroke-opacity:1;stroke-dasharray:none;stroke-dashoffset:0;display:inline"
       id="path4157-4-7-1-2-9-3-0"
       sodipodi:cx="413.93353"
       sodipodi:cy="648.29102"
       sodipodi:rx="6.6594138"
       sodipodi:ry="6.6594138"
       d="m 420.59295,648.29102 c 0,3.67789 -2.98152,6.65941 -6.65942,6.65941 -3.67789,0 -6.65941,-2.98152 -6.65941,-6.65941 0,-3.6779 2.98152,-6.65942 6.65941,-6.65942 3.6779,0 6.65942,2.98152 6.65942,6.65942 z"
       transform="matrix(0.93569552,-0.35280857,0.35280857,0.93569552,1530.3705,-325.4873)" />
    <path
       sodipodi:type="arc"
       style="fill:#cccccf;fill-opacity:1;fill-rule:nonzero;stroke:#333333;stroke-width:1;stroke-linecap:round;stroke-linejoin:round;stroke-miterlimit:4;stroke-opacity:1;stroke-dasharray:none;stroke-dashoffset:0;display:inline"
       id="path4157-1-79-9-8-7-1-6"
       sodipodi:cx="413.93353"
       sodipodi:cy="648.29102"
       sodipodi:rx="6.6594138"
       sodipodi:ry="6.6594138"
       d="m 420.59295,648.29102 c 0,3.67789 -2.98152,6.65941 -6.65942,6.65941 -3.67789,0 -6.65941,-2.98152 -6.65941,-6.65941 0,-3.6779 2.98152,-6.65942 6.65941,-6.65942 3.6779,0 6.65942,2.98152 6.65942,6.65942 z"
       transform="matrix(0.93569552,-0.35280857,0.35280857,0.93569552,1514.0024,-325.45297)" />
    <path
       sodipodi:type="arc"
       style="fill:#cccccf;fill-opacity:1;fill-rule:nonzero;stroke:#333333;stroke-width:1;stroke-linecap:round;stroke-linejoin:round;stroke-miterlimit:4;stroke-opacity:1;stroke-dasharray:none;stroke-dashoffset:0;display:inline"
       id="path4157-42-3-6-2-9-9"
       sodipodi:cx="413.93353"
       sodipodi:cy="648.29102"
       sodipodi:rx="6.6594138"
       sodipodi:ry="6.6594138"
       d="m 420.59295,648.29102 c 0,3.67789 -2.98152,6.65941 -6.65942,6.65941 -3.67789,0 -6.65941,-2.98152 -6.65941,-6.65941 0,-3.6779 2.98152,-6.65942 6.65941,-6.65942 3.6779,0 6.65942,2.98152 6.65942,6.65942 z"
       transform="matrix(0.77679585,-0.62975248,0.62975248,0.77679585,1482.5715,-87.238991)" />
    <path
       sodipodi:type="arc"
       style="fill:#cccccf;fill-opacity:1;fill-rule:nonzero;stroke:#333333;stroke-width:1;stroke-linecap:round;stroke-linejoin:round;stroke-miterlimit:4;stroke-opacity:1;stroke-dasharray:none;stroke-dashoffset:0;display:inline"
       id="path4157-4-7-1-0-2-8-7"
       sodipodi:cx="413.93353"
       sodipodi:cy="648.29102"
       sodipodi:rx="6.6594138"
       sodipodi:ry="6.6594138"
       d="m 420.59295,648.29102 c 0,3.67789 -2.98152,6.65941 -6.65942,6.65941 -3.67789,0 -6.65941,-2.98152 -6.65941,-6.65941 0,-3.6779 2.98152,-6.65942 6.65941,-6.65942 3.6779,0 6.65942,2.98152 6.65942,6.65942 z"
       transform="matrix(0.77679585,-0.62975248,0.62975248,0.77679585,1467.384,-82.848271)" />
    <path
       sodipodi:type="arc"
       style="fill:#cccccf;fill-opacity:1;fill-rule:nonzero;stroke:#333333;stroke-width:1;stroke-linecap:round;stroke-linejoin:round;stroke-miterlimit:4;stroke-opacity:1;stroke-dasharray:none;stroke-dashoffset:0;display:inline"
       id="path4157-1-79-9-2-8-9-8"
       sodipodi:cx="413.93353"
       sodipodi:cy="648.29102"
       sodipodi:rx="6.6594138"
       sodipodi:ry="6.6594138"
       d="m 420.59295,648.29102 c 0,3.67789 -2.98152,6.65941 -6.65942,6.65941 -3.67789,0 -6.65941,-2.98152 -6.65941,-6.65941 0,-3.6779 2.98152,-6.65942 6.65941,-6.65942 3.6779,0 6.65942,2.98152 6.65942,6.65942 z"
       transform="matrix(0.77679585,-0.62975248,0.62975248,0.77679585,1452.5161,-77.610111)" />
    <path
       sodipodi:type="arc"
       style="fill:#cccccf;fill-opacity:1;fill-rule:nonzero;stroke:#333333;stroke-width:1;stroke-linecap:round;stroke-linejoin:round;stroke-miterlimit:4;stroke-opacity:1;stroke-dasharray:none;stroke-dashoffset:0;display:inline"
       id="path4157-42-3-4-2-8-9"
       sodipodi:cx="413.93353"
       sodipodi:cy="648.29102"
       sodipodi:rx="6.6594138"
       sodipodi:ry="6.6594138"
       d="m 420.59295,648.29102 c 0,3.67789 -2.98152,6.65941 -6.65942,6.65941 -3.67789,0 -6.65941,-2.98152 -6.65941,-6.65941 0,-3.6779 2.98152,-6.65942 6.65941,-6.65942 3.6779,0 6.65942,2.98152 6.65942,6.65942 z"
       transform="matrix(0.57331843,-0.81933265,0.81933265,0.57331843,1453.7855,142.84424)" />
    <path
       sodipodi:type="arc"
       style="fill:#cccccf;fill-opacity:1;fill-rule:nonzero;stroke:#333333;stroke-width:1;stroke-linecap:round;stroke-linejoin:round;stroke-miterlimit:4;stroke-opacity:1;stroke-dasharray:none;stroke-dashoffset:0;display:inline"
       id="path4157-4-7-1-8-8-9-4"
       sodipodi:cx="413.93353"
       sodipodi:cy="648.29102"
       sodipodi:rx="6.6594138"
       sodipodi:ry="6.6594138"
       d="m 420.59295,648.29102 c 0,3.67789 -2.98152,6.65941 -6.65942,6.65941 -3.67789,0 -6.65941,-2.98152 -6.65941,-6.65941 0,-3.6779 2.98152,-6.65942 6.65941,-6.65942 3.6779,0 6.65942,2.98152 6.65942,6.65942 z"
       transform="matrix(0.57331843,-0.81933265,0.81933265,0.57331843,1440.921,151.51574)" />
    <path
       sodipodi:type="arc"
       style="fill:#cccccf;fill-opacity:1;fill-rule:nonzero;stroke:#333333;stroke-width:1;stroke-linecap:round;stroke-linejoin:round;stroke-miterlimit:4;stroke-opacity:1;stroke-dasharray:none;stroke-dashoffset:0;display:inline"
       id="path4157-1-79-9-6-9-1-1"
       sodipodi:cx="413.93353"
       sodipodi:cy="648.29102"
       sodipodi:rx="6.6594138"
       sodipodi:ry="6.6594138"
       d="m 420.59295,648.29102 c 0,3.67789 -2.98152,6.65941 -6.65942,6.65941 -3.67789,0 -6.65941,-2.98152 -6.65941,-6.65941 0,-3.6779 2.98152,-6.65942 6.65941,-6.65942 3.6779,0 6.65942,2.98152 6.65942,6.65942 z"
       transform="matrix(0.57331843,-0.81933265,0.81933265,0.57331843,1427.4282,160.96754)" />
    <path
       sodipodi:type="arc"
       style="fill:#cccccf;fill-opacity:1;fill-rule:nonzero;stroke:#333333;stroke-width:1;stroke-linecap:round;stroke-linejoin:round;stroke-miterlimit:4;stroke-opacity:1;stroke-dasharray:none;stroke-dashoffset:0;display:inline"
       id="path4157-42-3-5-0-3-5"
       sodipodi:cx="413.93353"
       sodipodi:cy="648.29102"
       sodipodi:rx="6.6594138"
       sodipodi:ry="6.6594138"
       d="m 420.59295,648.29102 c 0,3.67789 -2.98152,6.65941 -6.65942,6.65941 -3.67789,0 -6.65941,-2.98152 -6.65941,-6.65941 0,-3.6779 2.98152,-6.65942 6.65941,-6.65942 3.6779,0 6.65942,2.98152 6.65942,6.65942 z"
       transform="matrix(0.33320513,-0.94285436,0.94285436,0.33320513,1487.3265,365.31034)" />
    <path
       sodipodi:type="arc"
       style="fill:#cccccf;fill-opacity:1;fill-rule:nonzero;stroke:#333333;stroke-width:1;stroke-linecap:round;stroke-linejoin:round;stroke-miterlimit:4;stroke-opacity:1;stroke-dasharray:none;stroke-dashoffset:0;display:inline"
       id="path4157-4-7-1-09-7-5-6"
       sodipodi:cx="413.93353"
       sodipodi:cy="648.29102"
       sodipodi:rx="6.6594138"
       sodipodi:ry="6.6594138"
       d="m 420.59295,648.29102 c 0,3.67789 -2.98152,6.65941 -6.65942,6.65941 -3.67789,0 -6.65941,-2.98152 -6.65941,-6.65941 0,-3.6779 2.98152,-6.65942 6.65941,-6.65942 3.6779,0 6.65942,2.98152 6.65942,6.65942 z"
       transform="matrix(0.33320513,-0.94285436,0.94285436,0.33320513,1478.1039,378.44384)" />
    <path
       sodipodi:type="arc"
       style="fill:#cccccf;fill-opacity:1;fill-rule:nonzero;stroke:#333333;stroke-width:1;stroke-linecap:round;stroke-linejoin:round;stroke-miterlimit:4;stroke-opacity:1;stroke-dasharray:none;stroke-dashoffset:0;display:inline"
       id="path4157-1-79-9-0-8-1-6"
       sodipodi:cx="413.93353"
       sodipodi:cy="648.29102"
       sodipodi:rx="6.6594138"
       sodipodi:ry="6.6594138"
       d="m 420.59295,648.29102 c 0,3.67789 -2.98152,6.65941 -6.65942,6.65941 -3.67789,0 -6.65941,-2.98152 -6.65941,-6.65941 0,-3.6779 2.98152,-6.65942 6.65941,-6.65942 3.6779,0 6.65942,2.98152 6.65942,6.65942 z"
       transform="matrix(0.33320513,-0.94285436,0.94285436,0.33320513,1468.0188,391.49284)" />
    <path
       sodipodi:type="arc"
       style="fill:#cccccf;fill-opacity:1;fill-rule:nonzero;stroke:#333333;stroke-width:1;stroke-linecap:round;stroke-linejoin:round;stroke-miterlimit:4;stroke-opacity:1;stroke-dasharray:none;stroke-dashoffset:0;display:inline"
       id="path4157-42-3-06-1-4-6"
       sodipodi:cx="413.93353"
       sodipodi:cy="648.29102"
       sodipodi:rx="6.6594138"
       sodipodi:ry="6.6594138"
       d="m 420.59295,648.29102 c 0,3.67789 -2.98152,6.65941 -6.65942,6.65941 -3.67789,0 -6.65941,-2.98152 -6.65941,-6.65941 0,-3.6779 2.98152,-6.65942 6.65941,-6.65942 3.6779,0 6.65942,2.98152 6.65942,6.65942 z"
       transform="matrix(-0.04324945,-0.99906431,0.99906431,-0.04324945,1627.2772,642.78825)" />
    <path
       sodipodi:type="arc"
       style="fill:#cccccf;fill-opacity:1;fill-rule:nonzero;stroke:#333333;stroke-width:1;stroke-linecap:round;stroke-linejoin:round;stroke-miterlimit:4;stroke-opacity:1;stroke-dasharray:none;stroke-dashoffset:0;display:inline"
       id="path4157-4-7-1-1-5-2-6"
       sodipodi:cx="413.93353"
       sodipodi:cy="648.29102"
       sodipodi:rx="6.6594138"
       sodipodi:ry="6.6594138"
       d="m 420.59295,648.29102 c 0,3.67789 -2.98152,6.65941 -6.65942,6.65941 -3.67789,0 -6.65941,-2.98152 -6.65941,-6.65941 0,-3.6779 2.98152,-6.65942 6.65941,-6.65942 3.6779,0 6.65942,2.98152 6.65942,6.65942 z"
       transform="matrix(-0.04324945,-0.99906431,0.99906431,-0.04324945,1621.939,658.34765)" />
    <path
       sodipodi:type="arc"
       style="fill:#cccccf;fill-opacity:1;fill-rule:nonzero;stroke:#333333;stroke-width:1;stroke-linecap:round;stroke-linejoin:round;stroke-miterlimit:4;stroke-opacity:1;stroke-dasharray:none;stroke-dashoffset:0;display:inline"
       id="path4157-1-79-9-3-8-5-6"
       sodipodi:cx="413.93353"
       sodipodi:cy="648.29102"
       sodipodi:rx="6.6594138"
       sodipodi:ry="6.6594138"
       d="m 420.59295,648.29102 c 0,3.67789 -2.98152,6.65941 -6.65942,6.65941 -3.67789,0 -6.65941,-2.98152 -6.65941,-6.65941 0,-3.6779 2.98152,-6.65942 6.65941,-6.65942 3.6779,0 6.65942,2.98152 6.65942,6.65942 z"
       transform="matrix(-0.04324945,-0.99906431,0.99906431,-0.04324945,1616.6463,673.21285)" />
    <path
       sodipodi:type="arc"
       style="fill:#cccccf;fill-opacity:1;fill-rule:nonzero;stroke:#333333;stroke-width:1;stroke-linecap:round;stroke-linejoin:round;stroke-miterlimit:4;stroke-opacity:1;stroke-dasharray:none;stroke-dashoffset:0;display:inline"
       id="path4157-42-3-89-61-3-7"
       sodipodi:cx="413.93353"
       sodipodi:cy="648.29102"
       sodipodi:rx="6.6594138"
       sodipodi:ry="6.6594138"
       d="m 420.59295,648.29102 c 0,3.67789 -2.98152,6.65941 -6.65942,6.65941 -3.67789,0 -6.65941,-2.98152 -6.65941,-6.65941 0,-3.6779 2.98152,-6.65942 6.65941,-6.65942 3.6779,0 6.65942,2.98152 6.65942,6.65942 z"
       transform="matrix(-0.32843592,-0.94452625,0.94452625,-0.32843592,1801.6507,810.16725)" />
    <path
       sodipodi:type="arc"
       style="fill:#cccccf;fill-opacity:1;fill-rule:nonzero;stroke:#333333;stroke-width:1;stroke-linecap:round;stroke-linejoin:round;stroke-miterlimit:4;stroke-opacity:1;stroke-dasharray:none;stroke-dashoffset:0;display:inline"
       id="path4157-4-7-1-3-2-8-1"
       sodipodi:cx="413.93353"
       sodipodi:cy="648.29102"
       sodipodi:rx="6.6594138"
       sodipodi:ry="6.6594138"
       d="m 420.59295,648.29102 c 0,3.67789 -2.98152,6.65941 -6.65942,6.65941 -3.67789,0 -6.65941,-2.98152 -6.65941,-6.65941 0,-3.6779 2.98152,-6.65942 6.65941,-6.65942 3.6779,0 6.65942,2.98152 6.65942,6.65942 z"
       transform="matrix(-0.32843592,-0.94452625,0.94452625,-0.32843592,1801.2368,825.51555)" />
    <path
       sodipodi:type="arc"
       style="fill:#cccccf;fill-opacity:1;fill-rule:nonzero;stroke:#333333;stroke-width:1;stroke-linecap:round;stroke-linejoin:round;stroke-miterlimit:4;stroke-opacity:1;stroke-dasharray:none;stroke-dashoffset:0;display:inline"
       id="path4157-1-79-9-4-4-9-4"
       sodipodi:cx="413.93353"
       sodipodi:cy="648.29102"
       sodipodi:rx="6.6594138"
       sodipodi:ry="6.6594138"
       d="m 420.59295,648.29102 c 0,3.67789 -2.98152,6.65941 -6.65942,6.65941 -3.67789,0 -6.65941,-2.98152 -6.65941,-6.65941 0,-3.6779 2.98152,-6.65942 6.65941,-6.65942 3.6779,0 6.65942,2.98152 6.65942,6.65942 z"
       transform="matrix(-0.32843592,-0.94452625,0.94452625,-0.32843592,1801.8294,842.15765)" />
    <path
       sodipodi:type="arc"
       style="fill:#cccccf;fill-opacity:1;fill-rule:nonzero;stroke:#333333;stroke-width:1;stroke-linecap:round;stroke-linejoin:round;stroke-miterlimit:4;stroke-opacity:1;stroke-dasharray:none;stroke-dashoffset:0;display:inline"
       id="path4157-42-3-89-4-2-28-0"
       sodipodi:cx="413.93353"
       sodipodi:cy="648.29102"
       sodipodi:rx="6.6594138"
       sodipodi:ry="6.6594138"
       d="m 420.59295,648.29102 c 0,3.67789 -2.98152,6.65941 -6.65942,6.65941 -3.67789,0 -6.65941,-2.98152 -6.65941,-6.65941 0,-3.6779 2.98152,-6.65942 6.65941,-6.65942 3.6779,0 6.65942,2.98152 6.65942,6.65942 z"
       transform="matrix(-0.59059663,-0.80696693,0.80696693,-0.59059663,2022.4552,920.44375)" />
    <path
       sodipodi:type="arc"
       style="fill:#cccccf;fill-opacity:1;fill-rule:nonzero;stroke:#333333;stroke-width:1;stroke-linecap:round;stroke-linejoin:round;stroke-miterlimit:4;stroke-opacity:1;stroke-dasharray:none;stroke-dashoffset:0;display:inline"
       id="path4157-4-7-1-3-6-5-7-6"
       sodipodi:cx="413.93353"
       sodipodi:cy="648.29102"
       sodipodi:rx="6.6594138"
       sodipodi:ry="6.6594138"
       d="m 420.59295,648.29102 c 0,3.67789 -2.98152,6.65941 -6.65942,6.65941 -3.67789,0 -6.65941,-2.98152 -6.65941,-6.65941 0,-3.6779 2.98152,-6.65942 6.65941,-6.65942 3.6779,0 6.65942,2.98152 6.65942,6.65942 z"
       transform="matrix(-0.59059663,-0.80696693,0.80696693,-0.59059663,2026.5533,935.24059)" />
    <path
       sodipodi:type="arc"
       style="fill:#cccccf;fill-opacity:1;fill-rule:nonzero;stroke:#333333;stroke-width:1;stroke-linecap:round;stroke-linejoin:round;stroke-miterlimit:4;stroke-opacity:1;stroke-dasharray:none;stroke-dashoffset:0;display:inline"
       id="path4157-1-79-9-4-0-8-0-1"
       sodipodi:cx="413.93353"
       sodipodi:cy="648.29102"
       sodipodi:rx="6.6594138"
       sodipodi:ry="6.6594138"
       d="m 420.59295,648.29102 c 0,3.67789 -2.98152,6.65941 -6.65942,6.65941 -3.67789,0 -6.65941,-2.98152 -6.65941,-6.65941 0,-3.6779 2.98152,-6.65942 6.65941,-6.65942 3.6779,0 6.65942,2.98152 6.65942,6.65942 z"
       transform="matrix(-0.59059663,-0.80696693,0.80696693,-0.59059663,2031.9927,950.97979)" />
    <path
       sodipodi:type="arc"
       style="fill:#cccccf;fill-opacity:1;fill-rule:nonzero;stroke:#333333;stroke-width:1;stroke-linecap:round;stroke-linejoin:round;stroke-miterlimit:4;stroke-opacity:1;stroke-dasharray:none;stroke-dashoffset:0;display:inline"
       id="path4157-42-3-89-6-6-1-2"
       sodipodi:cx="413.93353"
       sodipodi:cy="648.29102"
       sodipodi:rx="6.6594138"
       sodipodi:ry="6.6594138"
       d="m 420.59295,648.29102 c 0,3.67789 -2.98152,6.65941 -6.65942,6.65941 -3.67789,0 -6.65941,-2.98152 -6.65941,-6.65941 0,-3.6779 2.98152,-6.65942 6.65941,-6.65942 3.6779,0 6.65942,2.98152 6.65942,6.65942 z"
       transform="matrix(-0.79711407,-0.60382874,0.60382874,-0.79711407,2260.2041,960.14529)" />
    <path
       sodipodi:type="arc"
       style="fill:#cccccf;fill-opacity:1;fill-rule:nonzero;stroke:#333333;stroke-width:1;stroke-linecap:round;stroke-linejoin:round;stroke-miterlimit:4;stroke-opacity:1;stroke-dasharray:none;stroke-dashoffset:0;display:inline"
       id="path4157-4-7-1-3-61-2-4-1"
       sodipodi:cx="413.93353"
       sodipodi:cy="648.29102"
       sodipodi:rx="6.6594138"
       sodipodi:ry="6.6594138"
       d="m 420.59295,648.29102 c 0,3.67789 -2.98152,6.65941 -6.65942,6.65941 -3.67789,0 -6.65941,-2.98152 -6.65941,-6.65941 0,-3.6779 2.98152,-6.65942 6.65941,-6.65942 3.6779,0 6.65942,2.98152 6.65942,6.65942 z"
       transform="matrix(-0.79711407,-0.60382874,0.60382874,-0.79711407,2269.2206,973.47499)" />
    <path
       sodipodi:type="arc"
       style="fill:#cccccf;fill-opacity:1;fill-rule:nonzero;stroke:#333333;stroke-width:1;stroke-linecap:round;stroke-linejoin:round;stroke-miterlimit:4;stroke-opacity:1;stroke-dasharray:none;stroke-dashoffset:0;display:inline"
       id="path4157-1-79-9-4-8-6-8-4"
       sodipodi:cx="413.93353"
       sodipodi:cy="648.29102"
       sodipodi:rx="6.6594138"
       sodipodi:ry="6.6594138"
       d="m 420.59295,648.29102 c 0,3.67789 -2.98152,6.65941 -6.65942,6.65941 -3.67789,0 -6.65941,-2.98152 -6.65941,-6.65941 0,-3.6779 2.98152,-6.65942 6.65941,-6.65942 3.6779,0 6.65942,2.98152 6.65942,6.65942 z"
       transform="matrix(-0.79711407,-0.60382874,0.60382874,-0.79711407,2277.2062,986.46949)" />
    <path
       sodipodi:type="arc"
       style="fill:#cccccf;fill-opacity:1;fill-rule:nonzero;stroke:#333333;stroke-width:1;stroke-linecap:round;stroke-linejoin:round;stroke-miterlimit:4;stroke-opacity:1;stroke-dasharray:none;stroke-dashoffset:0;display:inline"
       id="path4157-42-3-89-49-53-1-9"
       sodipodi:cx="413.93353"
       sodipodi:cy="648.29102"
       sodipodi:rx="6.6594138"
       sodipodi:ry="6.6594138"
       d="m 420.59295,648.29102 c 0,3.67789 -2.98152,6.65941 -6.65942,6.65941 -3.67789,0 -6.65941,-2.98152 -6.65941,-6.65941 0,-3.6779 2.98152,-6.65942 6.65941,-6.65942 3.6779,0 6.65942,2.98152 6.65942,6.65942 z"
       transform="matrix(-0.95349525,-0.30140801,0.30140801,-0.95349525,2536.3408,921.11085)" />
    <path
       sodipodi:type="arc"
       style="fill:#cccccf;fill-opacity:1;fill-rule:nonzero;stroke:#333333;stroke-width:1;stroke-linecap:round;stroke-linejoin:round;stroke-miterlimit:4;stroke-opacity:1;stroke-dasharray:none;stroke-dashoffset:0;display:inline"
       id="path4157-4-7-1-3-63-92-9-5"
       sodipodi:cx="413.93353"
       sodipodi:cy="648.29102"
       sodipodi:rx="6.6594138"
       sodipodi:ry="6.6594138"
       d="m 420.59295,648.29102 c 0,3.67789 -2.98152,6.65941 -6.65942,6.65941 -3.67789,0 -6.65941,-2.98152 -6.65941,-6.65941 0,-3.6779 2.98152,-6.65942 6.65941,-6.65942 3.6779,0 6.65942,2.98152 6.65942,6.65942 z"
       transform="matrix(-0.95349525,-0.30140801,0.30140801,-0.95349525,2548.3966,930.61865)" />
    <path
       sodipodi:type="arc"
       style="fill:#cccccf;fill-opacity:1;fill-rule:nonzero;stroke:#333333;stroke-width:1;stroke-linecap:round;stroke-linejoin:round;stroke-miterlimit:4;stroke-opacity:1;stroke-dasharray:none;stroke-dashoffset:0;display:inline"
       id="path4157-1-79-9-4-7-4-3-2"
       sodipodi:cx="413.93353"
       sodipodi:cy="648.29102"
       sodipodi:rx="6.6594138"
       sodipodi:ry="6.6594138"
       d="m 420.59295,648.29102 c 0,3.67789 -2.98152,6.65941 -6.65942,6.65941 -3.67789,0 -6.65941,-2.98152 -6.65941,-6.65941 0,-3.6779 2.98152,-6.65942 6.65941,-6.65942 3.6779,0 6.65942,2.98152 6.65942,6.65942 z"
       transform="matrix(-0.95349525,-0.30140801,0.30140801,-0.95349525,2562.0914,940.09309)" />
    <path
       sodipodi:type="arc"
       style="fill:#cccccf;fill-opacity:1;fill-rule:nonzero;stroke:#333333;stroke-width:1;stroke-linecap:round;stroke-linejoin:round;stroke-miterlimit:4;stroke-opacity:1;stroke-dasharray:none;stroke-dashoffset:0;display:inline"
       id="path4157-4-7-1-3-63-8-1-9-3"
       sodipodi:cx="413.93353"
       sodipodi:cy="648.29102"
       sodipodi:rx="6.6594138"
       sodipodi:ry="6.6594138"
       d="m 420.59295,648.29102 c 0,3.67789 -2.98152,6.65941 -6.65942,6.65941 -3.67789,0 -6.65941,-2.98152 -6.65941,-6.65941 0,-3.6779 2.98152,-6.65942 6.65941,-6.65942 3.6779,0 6.65942,2.98152 6.65942,6.65942 z"
       transform="matrix(-0.95025826,0.31146302,-0.31146302,-0.95025826,3187.7691,623.36345)" />
    <path
       sodipodi:type="arc"
       style="fill:#cccccf;fill-opacity:1;fill-rule:nonzero;stroke:#333333;stroke-width:1;stroke-linecap:round;stroke-linejoin:round;stroke-miterlimit:4;stroke-opacity:1;stroke-dasharray:none;stroke-dashoffset:0;display:inline"
       id="path4157-1-79-9-4-7-2-1-7-4"
       sodipodi:cx="413.93353"
       sodipodi:cy="648.29102"
       sodipodi:rx="6.6594138"
       sodipodi:ry="6.6594138"
       d="m 420.59295,648.29102 c 0,3.67789 -2.98152,6.65941 -6.65942,6.65941 -3.67789,0 -6.65941,-2.98152 -6.65941,-6.65941 0,-3.6779 2.98152,-6.65942 6.65941,-6.65942 3.6779,0 6.65942,2.98152 6.65942,6.65942 z"
       transform="matrix(-0.95025826,0.31146302,-0.31146302,-0.95025826,3204.4191,623.06895)" />
    <path
       sodipodi:type="arc"
       style="fill:#cccccf;fill-opacity:1;fill-rule:nonzero;stroke:#333333;stroke-width:1;stroke-linecap:round;stroke-linejoin:round;stroke-miterlimit:4;stroke-opacity:1;stroke-dasharray:none;stroke-dashoffset:0;display:inline"
       id="path4157-42-3-89-49-9-9-9-1"
       sodipodi:cx="413.93353"
       sodipodi:cy="648.29102"
       sodipodi:rx="6.6594138"
       sodipodi:ry="6.6594138"
       d="m 420.59295,648.29102 c 0,3.67789 -2.98152,6.65941 -6.65942,6.65941 -3.67789,0 -6.65941,-2.98152 -6.65941,-6.65941 0,-3.6779 2.98152,-6.65942 6.65941,-6.65942 3.6779,0 6.65942,2.98152 6.65942,6.65942 z"
       transform="matrix(-0.9597319,0.28091753,-0.28091753,-0.9597319,2931.3765,641.52575)" />
    <path
       sodipodi:type="arc"
       style="fill:#cccccf;fill-opacity:1;fill-rule:nonzero;stroke:#333333;stroke-width:1;stroke-linecap:round;stroke-linejoin:round;stroke-miterlimit:4;stroke-opacity:1;stroke-dasharray:none;stroke-dashoffset:0;display:inline"
       id="path4157-4-7-1-3-63-1-7-8-5"
       sodipodi:cx="413.93353"
       sodipodi:cy="648.29102"
       sodipodi:rx="6.6594138"
       sodipodi:ry="6.6594138"
       d="m 420.59295,648.29102 c 0,3.67789 -2.98152,6.65941 -6.65942,6.65941 -3.67789,0 -6.65941,-2.98152 -6.65941,-6.65941 0,-3.6779 2.98152,-6.65942 6.65941,-6.65942 3.6779,0 6.65942,2.98152 6.65942,6.65942 z"
       transform="matrix(-0.9597319,0.28091753,-0.28091753,-0.9597319,2946.6851,642.70465)" />
    <path
       sodipodi:type="arc"
       style="fill:#cccccf;fill-opacity:1;fill-rule:nonzero;stroke:#333333;stroke-width:1;stroke-linecap:round;stroke-linejoin:round;stroke-miterlimit:4;stroke-opacity:1;stroke-dasharray:none;stroke-dashoffset:0;display:inline"
       id="path4157-1-79-9-4-7-3-6-01-2"
       sodipodi:cx="413.93353"
       sodipodi:cy="648.29102"
       sodipodi:rx="6.6594138"
       sodipodi:ry="6.6594138"
       d="m 420.59295,648.29102 c 0,3.67789 -2.98152,6.65941 -6.65942,6.65941 -3.67789,0 -6.65941,-2.98152 -6.65941,-6.65941 0,-3.6779 2.98152,-6.65942 6.65941,-6.65942 3.6779,0 6.65942,2.98152 6.65942,6.65942 z"
       transform="matrix(-0.9597319,0.28091753,-0.28091753,-0.9597319,2963.336,642.94275)" />
    <path
       sodipodi:type="arc"
       style="fill:#cccccf;fill-opacity:1;fill-rule:nonzero;stroke:#333333;stroke-width:1;stroke-linecap:round;stroke-linejoin:round;stroke-miterlimit:4;stroke-opacity:1;stroke-dasharray:none;stroke-dashoffset:0;display:inline"
       id="path4157-42-3-89-49-5-2-4-3"
       sodipodi:cx="413.93353"
       sodipodi:cy="648.29102"
       sodipodi:rx="6.6594138"
       sodipodi:ry="6.6594138"
       d="m 420.59295,648.29102 c 0,3.67789 -2.98152,6.65941 -6.65942,6.65941 -3.67789,0 -6.65941,-2.98152 -6.65941,-6.65941 0,-3.6779 2.98152,-6.65942 6.65941,-6.65942 3.6779,0 6.65942,2.98152 6.65942,6.65942 z"
       transform="matrix(-0.99970655,0.02422352,-0.02422352,-0.99970655,2777.7619,795.95555)" />
    <path
       sodipodi:type="arc"
       style="fill:#cccccf;fill-opacity:1;fill-rule:nonzero;stroke:#333333;stroke-width:1;stroke-linecap:round;stroke-linejoin:round;stroke-miterlimit:4;stroke-opacity:1;stroke-dasharray:none;stroke-dashoffset:0;display:inline"
       id="path4157-4-7-1-3-63-9-9-75-1"
       sodipodi:cx="413.93353"
       sodipodi:cy="648.29102"
       sodipodi:rx="6.6594138"
       sodipodi:ry="6.6594138"
       d="m 420.59295,648.29102 c 0,3.67789 -2.98152,6.65941 -6.65942,6.65941 -3.67789,0 -6.65941,-2.98152 -6.65941,-6.65941 0,-3.6779 2.98152,-6.65942 6.65941,-6.65942 3.6779,0 6.65942,2.98152 6.65942,6.65942 z"
       transform="matrix(-0.99970655,0.02422352,-0.02422352,-0.99970655,2792.2502,801.03805)" />
    <path
       sodipodi:type="arc"
       style="fill:#cccccf;fill-opacity:1;fill-rule:nonzero;stroke:#333333;stroke-width:1;stroke-linecap:round;stroke-linejoin:round;stroke-miterlimit:4;stroke-opacity:1;stroke-dasharray:none;stroke-dashoffset:0;display:inline"
       id="path4157-1-79-9-4-7-8-0-9-6"
       sodipodi:cx="413.93353"
       sodipodi:cy="648.29102"
       sodipodi:rx="6.6594138"
       sodipodi:ry="6.6594138"
       d="m 420.59295,648.29102 c 0,3.67789 -2.98152,6.65941 -6.65942,6.65941 -3.67789,0 -6.65941,-2.98152 -6.65941,-6.65941 0,-3.6779 2.98152,-6.65942 6.65941,-6.65942 3.6779,0 6.65942,2.98152 6.65942,6.65942 z"
       transform="matrix(-0.99970655,0.02422352,-0.02422352,-0.99970655,2807.0427,806.49305)" />
    <path
       style="fill:#eeeeee;stroke:#333333;stroke-width:1;stroke-linecap:round;stroke-linejoin:round;stroke-miterlimit:4;stroke-opacity:1;stroke-dasharray:none;stroke-dashoffset:0;display:inline"
       d="m 2170.007,108.58444 c -1.4317,5.8739 -2.3858,11.7736 -2.8663,17.6476 1.7235,1.0078 4.1682,1.831 6.3052,0.1406 3.7272,-2.9481 8.87,-2.2452 10.0362,-1.4904 1.1661,0.7549 2.3139,2.1552 3.6128,2.1147 1.6594,-0.052 3.053,-1.0763 4.4123,-1.8009 1.3593,-0.7247 4.5006,-0.7842 6.7193,-0.2163 2.2186,0.5679 3.3858,3.0111 4.0403,3.0127 1.8418,0 1.4015,-1.2384 3.3737,-2.1439 1.9723,-0.9054 4.9292,-1.8518 6.8045,-1.5703 1.8753,0.2815 3.6487,1.1795 4.9201,3.1387 1.2715,1.9592 2.2192,7.0595 1.7199,10.836 -0.4993,3.7765 -7.9829,4.2418 -7.9829,4.2418 l -34.2415,0.046 -9.637,2.8728 c 0.4481,4.9908 1.1975,9.9323 2.2941,14.7773 1.9537,0.5456 4.684,0.7475 6.34,-1.5592 2.7715,-3.8604 7.9191,-4.5907 9.248,-4.186 1.3289,0.4046 2.807,1.4032 4.0446,1.0066 1.581,-0.5066 2.6595,-1.8646 3.7668,-2.9355 1.1073,-1.0709 4.1185,-1.9985 6.4078,-2.0634 2.2892,-0.065 4.0694,1.9938 4.6991,1.8152 1.7719,-0.5028 0.9933,-1.598 2.64,-3.0115 1.6467,-1.4135 4.2373,-3.1313 6.1176,-3.3769 1.8803,-0.2457 3.846,0.121 5.6078,1.6545 1.7617,1.5334 4.0828,6.1902 4.6425,9.9582 0.5598,3.768 -6.5147,6.2735 -6.5147,6.2735 l -32.9207,9.4991 -8.247,5.2406 c 2.0697,4.9991 4.4941,9.8528 7.2542,14.5067 1.976,-0.1551 4.389,-0.893 5.1885,-3.4534 1.4165,-4.5362 6.0532,-6.8548 7.4419,-6.8887 1.3887,-0.034 3.1293,0.4675 4.1793,-0.2982 1.3414,-0.9783 1.9133,-2.6052 2.6275,-3.97 0.7142,-1.3649 3.2716,-3.1862 5.4242,-3.9679 2.1526,-0.7817 4.509,0.6205 5.0505,0.2528 1.5238,-1.0347 0.4424,-1.8702 1.5609,-3.7299 1.1185,-1.8598 3.0415,-4.2877 4.749,-5.1124 1.7076,-0.8247 3.6952,-1.0758 5.8498,-0.1743 2.1547,0.9014 5.8159,4.583 7.5326,7.9836 1.7166,3.4007 -4.2173,7.9866 -4.2173,7.9866 l -28.2488,19.3683 -6.0865,7.4681 c 3.6087,4.2593 7.5308,8.2721 11.7733,11.984 1.8019,-0.7806 3.7885,-2.2193 3.7417,-4.8526 -0.084,-4.7515 3.5993,-8.4083 4.9066,-8.8779 1.3074,-0.4696 3.1041,-0.5641 3.8594,-1.6215 0.9651,-1.351 1.004,-3.0686 1.2522,-4.5888 0.248,-1.5203 2.1211,-4.0656 3.9179,-5.4856 1.7968,-1.4199 4.4305,-0.8477 4.8286,-1.3672 1.1204,-1.462 -0.1508,-1.8562 0.325,-3.9736 0.4758,-2.1173 1.5366,-5.0614 2.8975,-6.382 1.3609,-1.3205 3.1699,-2.1784 5.4988,-2.0016 2.3289,0.1769 6.9393,2.5042 9.6396,5.1911 2.7004,2.6869 -1.4674,8.9276 -1.4674,8.9276 l -20.7263,27.2829 -3.424,8.9726 c 4.8349,2.9645 9.9463,5.6006 15.3095,7.8534 1.5459,-1.2949 3.2311,-3.3513 2.3057,-5.9851 -1.5752,-4.4836 0.7567,-9.129 1.8499,-9.9861 1.0932,-0.8572 2.7902,-1.4949 3.1745,-2.7363 0.4909,-1.586 -0.027,-3.2414 -0.2701,-4.7625 -0.2431,-1.5211 0.7294,-4.5058 1.9882,-6.419 1.2588,-1.9132 3.9477,-2.2195 4.1624,-2.8378 0.6035,-1.7403 -0.735,-1.7413 -0.9496,-3.9009 -0.2146,-2.1595 -0.1346,-5.2477 0.7417,-6.9294 0.8763,-1.6817 2.3287,-3.0845 4.595,-3.6494 2.2662,-0.5649 7.3781,0.2162 10.7867,1.9169 3.4087,1.7007 1.3984,8.9197 1.3984,8.9197 l -11.0671,32.4145 -0.437,9.8933 c 5.5131,1.2883 11.0421,2.1589 16.5499,2.6025 0.577,-1.5115 0.7577,-3.3004 -0.4879,-4.9002 -2.9194,-3.7498 -2.185,-8.8859 -1.4212,-10.0462 0.7638,-1.1604 2.1451,-2.3137 2.1146,-3.6129 -0.039,-1.6598 -1.057,-3.0377 -1.7712,-4.4025 -0.7142,-1.3649 -0.732,-4.5151 -0.1472,-6.7294 0.585,-2.2142 3.0557,-3.3365 3.0623,-3.991 0.019,-1.8417 -1.2438,-1.4242 -2.1341,-3.4034 -0.8903,-1.9791 -1.8268,-4.9512 -1.5309,-6.8243 0.2959,-1.8731 1.2292,-3.6442 3.1981,-4.9005 1.969,-1.2564 7.0735,-2.1791 10.8461,-1.6508 3.7725,0.5283 4.1628,8.0226 4.1628,8.0226 l -0.1915,34.262 2.3449,8.1463 c 5.7575,-0.4663 11.4441,-1.3514 17.0096,-2.6758 0.1871,-1.6805 -0.1101,-3.5407 -1.8414,-4.7878 -3.856,-2.7775 -4.5928,-7.9197 -4.1861,-9.2479 0.4068,-1.3283 1.4309,-2.7967 1.0363,-4.0348 -0.5041,-1.5819 -1.8664,-2.6579 -2.9355,-3.7669 -1.0692,-1.1089 -2.0021,-4.1184 -2.0634,-6.4078 -0.061,-2.2893 1.9928,-4.0691 1.8152,-4.699 -0.5,-1.7728 -1.5909,-1.0208 -3.0017,-2.6698 -1.4109,-1.6489 -3.1342,-4.2368 -3.3769,-6.1175 -0.2427,-1.8808 0.1479,-3.8387 1.6842,-5.598 1.5362,-1.7593 6.1795,-4.0591 9.9484,-4.6129 3.7689,-0.5538 6.2438,6.5049 6.2438,6.5049 l 9.4596,32.9406 4.3872,6.9449 c 5.4461,-2.2558 10.7072,-4.928 15.7399,-7.9988 -0.4917,-1.1395 -1.3283,-2.1589 -2.7842,-2.6308 -4.5207,-1.4652 -6.8107,-6.1321 -6.8297,-7.5212 -0.019,-1.389 0.5156,-3.1015 -0.2388,-4.1597 -0.9638,-1.3518 -2.5934,-1.958 -3.9505,-2.6869 -1.357,-0.7288 -3.1601,-3.3128 -3.9186,-5.4737 -0.7585,-2.1609 0.674,-4.4855 0.3122,-5.0309 -1.0182,-1.5348 -1.8331,-0.472 -3.6807,-1.6104 -1.8475,-1.1385 -4.2864,-3.092 -5.0927,-4.8084 -0.8063,-1.7164 -1.0396,-3.6853 -0.115,-5.8302 0.9246,-2.1448 4.6341,-5.7639 8.0531,-7.4438 3.4189,-1.6799 7.9572,4.3063 7.9572,4.3063 l 19.0724,28.4473 5.2101,4.3534 c 4.6214,-3.8932 8.9628,-8.1389 12.9398,-12.774 -0.8604,-1.4576 -2.2295,-2.7692 -4.3656,-2.7252 -4.7512,0.098 -8.444,-3.5807 -8.9174,-4.8867 -0.4733,-1.306 -0.5322,-3.0973 -1.5918,-3.8496 -1.3537,-0.9612 -3.0776,-0.9789 -4.5986,-1.2226 -1.521,-0.2436 -4.0703,-2.0954 -5.4954,-3.8882 -1.425,-1.7927 -0.8664,-4.4714 -1.3871,-4.868 -1.4651,-1.1162 -1.8646,0.1745 -3.9833,-0.2953 -2.1187,-0.4698 -5.0576,-1.5404 -6.382,-2.8976 -1.3245,-1.3571 -2.1817,-3.1397 -2.0114,-5.4691 0.1703,-2.3294 2.492,-6.9711 5.1712,-9.6791 2.6792,-2.708 8.898,1.4577 8.898,1.4577 l 27.3419,20.647 7.9931,3.0018 c 3.0912,-5.0739 5.8113,-10.4587 8.1179,-16.1107 -1.2454,-1.0581 -2.9144,-1.8054 -4.8553,-1.1427 -4.4973,1.5355 -9.1092,-0.8382 -9.9567,-1.939 -0.8474,-1.1007 -1.4588,-2.799 -2.6968,-3.1943 -1.5816,-0.5049 -3.2591,0.001 -4.7823,0.2307 -1.5232,0.2296 -4.4974,-0.772 -6.3994,-2.0476 -1.9021,-1.2757 -2.1523,-3.9526 -2.7687,-4.1725 -1.7348,-0.6189 -1.7594,0.7146 -3.9207,0.9101 -2.1614,0.1955 -5.2657,0.08 -6.9396,-0.8108 -1.6738,-0.8911 -3.065,-2.3437 -3.6099,-4.6149 -0.5448,-2.2711 0.285,-7.3935 2.0157,-10.787 1.7308,-3.3935 8.9298,-1.3292 8.9298,-1.3292 l 32.3165,11.3638 8.1243,0.4123 c 1.2984,-5.5614 2.1661,-11.1224 2.6121,-16.6785 -1.3115,-0.3873 -2.7778,-0.3868 -4.1489,0.6045 -3.8511,2.7842 -8.9641,1.8801 -10.0965,1.0755 -1.1325,-0.8046 -2.2348,-2.2376 -3.5342,-2.2532 -1.6601,-0.02 -3.0829,0.9184 -4.4723,1.5836 -1.3893,0.6652 -4.5378,0.6128 -6.7298,-0.051 -2.1921,-0.6632 -3.2191,-3.1908 -3.8729,-3.2207 -1.8399,-0.084 -1.4832,1.1865 -3.4927,2.0059 -2.0096,0.8194 -5.0131,1.6463 -6.8744,1.284 -1.8614,-0.3623 -3.5969,-1.3442 -4.7824,-3.3566 -1.1856,-2.0123 -1.9078,-7.1254 -1.2457,-10.8768 0.6621,-3.7514 8.1618,-3.8865 8.1618,-3.8865 l 34.2257,1.3973 6.9226,-1.7289 c -0.4676,-6.206 -1.4459,-12.3206 -2.9067,-18.3035 -1.1955,0.1519 -2.3714,0.682 -3.2262,1.8964 -2.7352,3.8862 -7.8459,4.667 -9.1785,4.2748 -1.3327,-0.3922 -2.8503,-1.3949 -4.0841,-0.9868 -1.5762,0.5214 -2.6201,1.9037 -3.7173,2.9849 -1.0972,1.0812 -4.0994,2.0165 -6.3879,2.1028 -2.2886,0.087 -4.0907,-1.9404 -4.7187,-1.7558 -1.7671,0.5193 -0.9867,1.6221 -2.6202,3.051 -1.6334,1.4288 -4.2197,3.1531 -6.0977,3.4163 -1.8779,0.2633 -3.8513,-0.078 -5.6273,-1.5952 -1.776,-1.5169 -4.1266,-6.1558 -4.7216,-9.9184 -0.595,-3.7626 6.4652,-6.3228 6.4652,-6.3228 l 32.8211,-9.795331 5.7806,-3.7515 c -6.6361,-16.072 -16.9391,-30.5532 -30.2476,-42.14252 -1.1846,0.82635 -2.1115,2.07816 -2.1337,3.86984 -0.059,4.75188 -3.8628,8.29058 -5.1837,8.72058 -1.3209,0.43 -3.1224,0.4392 -3.9093,1.4734 -1.0052,1.3213 -1.0869,3.0671 -1.3807,4.5792 -0.2936,1.5122 -2.2375,4.0023 -4.0763,5.3675 -1.8388,1.3651 -4.455,0.6822 -4.8686,1.1895 -1.1639,1.4275 0.076,1.8916 -0.4632,3.9936 -0.5394,2.1021 -1.6954,5.0049 -3.0955,6.2838 -1.4001,1.2789 -3.1964,2.1103 -5.519,1.8633 -2.3225,-0.247 -6.8839,-2.7407 -9.5021,-5.5077 -2.6182,-2.767 1.7443,-8.8691 1.7443,-8.8691 l 21.5384,-26.65264 2.7878,-6.74736 c -5.2613,-3.30273 -10.8575,-6.20965 -16.7545,-8.65971 -1.0799,1.27966 -1.8648,2.9723 -1.1425,4.95412 1.6273,4.46493 -0.6383,9.12588 -1.7214,9.99564 -1.0832,0.86979 -2.7849,1.52992 -3.1546,2.77575 -0.4724,1.59161 0.079,3.23418 0.3393,4.75238 0.2607,1.51817 -0.6727,4.55032 -1.9091,6.47812 -1.2364,1.9277 -3.9552,2.2169 -4.1624,2.8378 -0.5833,1.7471 0.7791,1.7339 1.0188,3.8908 0.2397,2.1569 0.1645,5.2869 -0.6922,6.9787 -0.8566,1.6918 -2.2464,3.0875 -4.5059,3.6788 -2.2596,0.5912 -7.4075,-0.1077 -10.8358,-1.7685 -3.4282,-1.6609 -1.4971,-8.9195 -1.4971,-8.9195 l 10.711,-32.53207 0.2623,-8.7662 c -5.3839,-1.28573 -10.7922,-2.16098 -16.1746,-2.64309 -0.7679,1.59352 -1.1565,3.58839 0.1929,5.39513 2.8436,3.80751 2.0007,8.93169 1.2138,10.07643 -0.787,1.14477 -2.2281,2.24446 -2.2236,3.54398 0.01,1.66022 0.9958,3.09304 1.6825,4.47195 0.6867,1.37886 0.6775,4.52756 0.048,6.72961 -0.6292,2.20206 -3.1514,3.26786 -3.1712,3.92216 -0.055,1.841 1.2344,1.4563 2.0849,3.4529 0.8504,1.9966 1.6963,4.9679 1.3629,6.8347 -0.3334,1.8668 -1.2836,3.6249 -3.2773,4.8415 -1.9938,1.2166 -7.1052,2.0174 -10.8665,1.4136 -3.7612,-0.6038 -4.005,-8.1021 -4.005,-8.1021 l 0.8735,-34.23424 -2.2667,-8.48248 c -5.9741,0.44534 -11.8836,1.35983 -17.6519,2.72702 -0.2172,1.72153 0.06,3.67641 1.8518,4.95571 3.8676,2.76156 4.6269,7.89817 4.2256,9.22809 -0.4012,1.32995 -1.4064,2.80807 -1.0067,4.0446 0.5107,1.57972 1.8717,2.63265 2.9454,3.73716 1.0737,1.10451 2.0222,4.12852 2.093,6.4176 0.071,2.28914 -1.9954,4.06984 -1.8151,4.69904 0.5073,1.7706 1.5937,0.997 3.0115,2.6401 1.4177,1.6431 3.156,4.2477 3.4065,6.1274 0.2505,1.8796 -0.1256,3.8421 -1.6545,5.6077 -1.5289,1.7657 -6.162,4.0829 -9.9285,4.6524 -3.7666,0.5694 -6.2833,-6.485 -6.2833,-6.485 l -9.5683,-32.91071 -4.5557,-7.13216 c -5.3269,2.20857 -10.4822,4.82012 -15.4142,7.81012 0.3965,1.51125 1.2668,2.9997 3.1228,3.59833 4.5228,1.45871 6.7889,6.09269 6.8098,7.48167 0.021,1.389 -0.4972,3.14212 0.2587,4.1992 0.9657,1.35045 2.6021,1.93025 3.9602,2.65715 1.3581,0.7269 3.1571,3.3139 3.9187,5.4738 0.7616,2.1598 -0.6353,4.4661 -0.2727,5.011 1.0204,1.5334 1.8314,0.4746 3.6806,1.6104 1.8492,1.1358 4.2544,3.0834 5.0631,4.7986 0.8087,1.7152 1.0662,3.6938 0.1447,5.84 -0.9215,2.1461 -4.6366,5.759 -8.0531,7.4438 -3.4165,1.6848 -7.967,-4.2766 -7.967,-4.2766 l -19.1119,-28.42741 -6.0123,-5.01334 c -4.4592,3.77243 -8.6493,7.89125 -12.5062,12.35775 0.8329,1.4579 2.1704,2.7664 4.2866,2.765 4.7522,0 8.3818,3.7397 8.8289,5.0549 0.4472,1.3152 0.4685,3.1161 1.5129,3.8894 1.3343,0.988 3.083,1.0474 4.5989,1.3213 1.5158,0.274 4.0078,2.1665 5.3968,3.9873 1.389,1.8209 0.7659,4.4911 1.2785,4.898 1.4426,1.1452 1.8747,-0.1178 3.9836,0.3942 2.1089,0.5119 5.0161,1.6231 6.3131,3.0064 1.2971,1.3833 2.1492,3.1833 1.9325,5.5089 -0.2168,2.3255 -2.6364,6.9268 -5.3691,9.580801 -2.7327,2.654 -8.8986,-1.6553 -8.8986,-1.6553 l -26.9085,-21.162101 -7.5583,-3.0228 c -2.9503,4.7929 -5.5842,9.8366 -7.8341,15.1513 1.2762,1.2592 3.0657,2.2928 5.2419,1.5666 4.5079,-1.5041 9.1271,0.9015 9.9668,2.0081 0.8398,1.1066 1.4221,2.8105 2.6573,3.2142 1.5781,0.5159 3.2478,0.018 4.7726,-0.201 1.5247,-0.2189 4.4965,0.7885 6.3896,2.0774 1.8931,1.288801 2.134,4.008001 2.7491,4.231801 1.7304,0.63093 1.7482,-0.7 3.9109,-0.8805 2.1626,-0.1804 5.2917,-0.052 6.9594,0.8504 1.6676,0.90273 3.0117,2.35003 3.5407,4.62493 0.529,2.2749 -0.291,7.3958 -2.0453,10.7772 -1.7544,3.3813 -8.9696,1.2503 -8.9696,1.2503 l -32.2085,-11.5915 -8.7471,-0.5192 z"
       id="path2998-3-2-8"
       inkscape:connector-curvature="0" />
    <rect
       style="fill:#ffffff;stroke:#333333;stroke-width:1;stroke-linecap:round;stroke-linejoin:round;stroke-miterlimit:4;stroke-opacity:1;stroke-dasharray:none;stroke-dashoffset:0;display:inline"
       id="rect3979-9-8-8"
       width="90.939209"
       height="109.11863"
       x="2234.7183"
       y="69.72937" />
    <rect
       style="fill:#ffffff;stroke:#333333;stroke-width:1;stroke-linecap:round;stroke-linejoin:round;stroke-miterlimit:4;stroke-opacity:1;stroke-dasharray:none;stroke-dashoffset:0;display:inline"
       id="rect3981-1-2-2"
       width="98.362816"
       height="5.1076803"
       x="2230.5698"
       y="98.425232" />
    <rect
       style="fill:#ffffff;stroke:#333333;stroke-width:1;stroke-linecap:round;stroke-linejoin:round;stroke-miterlimit:4;stroke-opacity:1;stroke-dasharray:none;stroke-dashoffset:0;display:inline"
       id="rect3977-8-4-7"
       width="57.205456"
       height="52.284077"
       x="2253.0588"
       y="110.08002" />
    <rect
       style="fill:none;stroke:#eeeeee;stroke-width:1;stroke-linecap:butt;stroke-linejoin:miter;stroke-miterlimit:4;stroke-opacity:1;stroke-dasharray:none;stroke-dashoffset:0;display:inline"
       id="rect8026-5-0-0"
       width="747.25104"
       height="422.89438"
       x="2013.011"
       y="-75.48175" />
    <g
       id="g4952-5-5-5-4"
       transform="matrix(0.68357722,0.72987821,-0.72987821,0.68357722,2695.9481,-606.9564)"
       style="stroke:#ff00ff;display:inline">
      <path
         inkscape:connector-curvature="0"
         id="path4930-2-5-1-9"
         d="m 407.47115,653.66504 55.73165,0 -2.42905,1.85734"
         style="fill:none;stroke:#ff00ff;stroke-width:1px;stroke-linecap:butt;stroke-linejoin:miter;stroke-opacity:1" />
      <path
         inkscape:connector-curvature="0"
         id="path4930-0-0-0-1-4"
         d="m 407.47115,652.86145 55.73165,0 -2.42905,-1.85734"
         style="fill:none;stroke:#ff00ff;stroke-width:1px;stroke-linecap:butt;stroke-linejoin:miter;stroke-opacity:1;display:inline" />
    </g>
    <path
       sodipodi:type="arc"
       style="fill:#ff9bff;fill-opacity:1;fill-rule:nonzero;stroke:#333333;stroke-width:1;stroke-linecap:round;stroke-linejoin:round;stroke-miterlimit:4;stroke-opacity:1;stroke-dasharray:none;stroke-dashoffset:0;display:inline"
       id="path4157-1-79-9-4-7-8-0-9-5-6"
       sodipodi:cx="413.93353"
       sodipodi:cy="648.29102"
       sodipodi:rx="6.6594138"
       sodipodi:ry="6.6594138"
       d="m 420.59295,648.29102 c 0,3.67789 -2.98152,6.65941 -6.65942,6.65941 -3.67789,0 -6.65941,-2.98152 -6.65941,-6.65941 0,-3.6779 2.98152,-6.65942 6.65941,-6.65942 3.6779,0 6.65942,2.98152 6.65942,6.65942 z"
       transform="matrix(-0.86631001,-0.49950669,0.49950669,-0.86631001,2557.1377,930.60916)" />
    <rect
       style="fill:none;stroke:#ffffff;stroke-width:0.95231628;stroke-linecap:round;stroke-linejoin:round;stroke-miterlimit:4;stroke-opacity:1;stroke-dasharray:none;stroke-dashoffset:0"
       id="rect3877"
       width="310.04767"
       height="165.04768"
       x="2336.3191"
       y="31.02702" />
  </g>
  <g
     inkscape:groupmode="layer"
     id="layer5"
     inkscape:label="Wheel"
     style="display:inline"
     transform="translate(-2335.8432,-30.558381)" />
  <g
     inkscape:groupmode="layer"
     id="layer6"
     inkscape:label="Motor"
     transform="translate(-2335.8432,-30.558381)" />
</svg>
