<?xml version="1.0" encoding="UTF-8" standalone="no"?>
<!-- Created with Inkscape (http://www.inkscape.org/) -->

<svg
   xmlns:dc="http://purl.org/dc/elements/1.1/"
   xmlns:cc="http://creativecommons.org/ns#"
   xmlns:rdf="http://www.w3.org/1999/02/22-rdf-syntax-ns#"
   xmlns:svg="http://www.w3.org/2000/svg"
   xmlns="http://www.w3.org/2000/svg"
   xmlns:sodipodi="http://sodipodi.sourceforge.net/DTD/sodipodi-0.dtd"
   xmlns:inkscape="http://www.inkscape.org/namespaces/inkscape"
   width="546.15625"
   height="399.97476"
   id="svg3478"
   version="1.1"
   inkscape:version="0.48.4 r9939"
   sodipodi:docname="waveform.svg">
  <defs
     id="defs3480" />
  <sodipodi:namedview
     id="base"
     pagecolor="#ffffff"
     bordercolor="#666666"
     borderopacity="1.0"
     inkscape:pageopacity="0.0"
     inkscape:pageshadow="2"
     inkscape:zoom="0.35"
     inkscape:cx="568.96875"
     inkscape:cy="214.38337"
     inkscape:document-units="px"
     inkscape:current-layer="layer1"
     showgrid="false"
     inkscape:window-width="1600"
     inkscape:window-height="838"
     inkscape:window-x="1358"
     inkscape:window-y="142"
     inkscape:window-maximized="1"
     fit-margin-top="0"
     fit-margin-left="0"
     fit-margin-right="0"
     fit-margin-bottom="0" />
  <metadata
     id="metadata3483">
    <rdf:RDF>
      <cc:Work
         rdf:about="">
        <dc:format>image/svg+xml</dc:format>
        <dc:type
           rdf:resource="http://purl.org/dc/dcmitype/StillImage" />
        <dc:title></dc:title>
      </cc:Work>
    </rdf:RDF>
  </metadata>
  <g
     inkscape:label="Layer 1"
     inkscape:groupmode="layer"
     id="layer1"
     transform="translate(193.96875,-371.05648)">
    <path
       style="fill:none;stroke:#339900;stroke-width:3.8747642;stroke-linecap:butt;stroke-linejoin:miter;stroke-miterlimit:4;stroke-opacity:1;stroke-dasharray:none;display:inline"
       d="m -193.94495,769.10922 38.4566,-0.17111 c 0,0 16.2787,4.47299 36.74311,-136.08253 20.891413,-143.48829 27.981393,-194.35632 27.981393,-194.35632 l 7.232199,-47.85082 c 0,0 1.339144,-35.80827 30.565645,-5.45893 12.769852,13.26044 28.634766,-3.66093 28.634766,-3.66093 0,0 9.94314,-11.88672 27.5501458,-0.42597 15.0989962,9.82826 25.6961252,2.88057 32.1434612,1.67314 0,0 17.007356,-5.50841 31.542205,2.05252 15.488055,8.82769 55.699935,1.47246 82.938445,1.20866 l 27.90935,0.58094 30.68846,2.55468 c 0,0 29.17393,31.37844 37.36782,92.34663 8.1939,60.96805 22.94293,194.14958 22.94293,194.14958 l 4.73274,43.58356 c 0,0 3.7012,49.25296 24.87434,49.60759 21.26937,0.35623 53.82163,0.1711 53.82163,0.1711"
       id="path3104-9-4-7"
       inkscape:connector-curvature="0"
       sodipodi:nodetypes="ccsccscscccccsccsc"
       inkscape:export-filename="H:\How-To\Shape Adjustment\Figure1.png"
       inkscape:export-xdpi="90"
       inkscape:export-ydpi="90" />
  </g>
</svg>
