<?xml version="1.0" encoding="UTF-8" standalone="no"?>
<!-- Created with Inkscape (http://www.inkscape.org/) -->

<svg
   xmlns:dc="http://purl.org/dc/elements/1.1/"
   xmlns:cc="http://creativecommons.org/ns#"
   xmlns:rdf="http://www.w3.org/1999/02/22-rdf-syntax-ns#"
   xmlns:svg="http://www.w3.org/2000/svg"
   xmlns="http://www.w3.org/2000/svg"
   xmlns:sodipodi="http://sodipodi.sourceforge.net/DTD/sodipodi-0.dtd"
   xmlns:inkscape="http://www.inkscape.org/namespaces/inkscape"
   width="276.53125"
   height="276.65625"
   id="svg2"
   version="1.1"
   inkscape:version="0.48.4 r9939"
   sodipodi:docname="wheel_12_1.svg">
  <defs
     id="defs4" />
  <sodipodi:namedview
     id="base"
     pagecolor="#ffffff"
     bordercolor="#666666"
     borderopacity="1.0"
     inkscape:pageopacity="0.0"
     inkscape:pageshadow="2"
     inkscape:zoom="1.4"
     inkscape:cx="-157.9459"
     inkscape:cy="67.646166"
     inkscape:document-units="px"
     inkscape:current-layer="layer1"
     showgrid="false"
     inkscape:window-width="1920"
     inkscape:window-height="1018"
     inkscape:window-x="1358"
     inkscape:window-y="-8"
     inkscape:window-maximized="1"
     fit-margin-top="0"
     fit-margin-left="0"
     fit-margin-right="0"
     fit-margin-bottom="0" />
  <metadata
     id="metadata7">
    <rdf:RDF>
      <cc:Work
         rdf:about="">
        <dc:format>image/svg+xml</dc:format>
        <dc:type
           rdf:resource="http://purl.org/dc/dcmitype/StillImage" />
        <dc:title></dc:title>
      </cc:Work>
    </rdf:RDF>
  </metadata>
  <g
     inkscape:label="Layer 1"
     inkscape:groupmode="layer"
     id="layer1"
     transform="translate(-439.375,-451.1875)">
    <path
       style="fill:#aaaaaa;fill-opacity:1;fill-rule:nonzero;stroke:none"
       d="m 589.15625,451.1875 c -0.12222,0.71981 0.27136,1.70796 0.875,2.6875 4.70666,3.67253 7.71875,9.37999 7.71875,15.8125 0,10.47418 -8.01397,19.05574 -18.25,19.96875 -0.15769,0.0161 -0.31,0.0189 -0.46875,0.0312 -0.10347,0.007 -0.20861,0.026 -0.3125,0.0312 -0.41594,0.0258 -0.82754,0.0625 -1.25,0.0625 -11.08322,0 -20.09375,-9.04179 -20.09375,-20.125 0,-0.69271 0.0253,-1.35661 0.0937,-2.03125 L 557.5,452.15625 c -13.75618,2.01447 -26.85964,6.05175 -39,11.78125 0.33423,0.61143 1.11223,1.19149 2.03125,1.6875 5.91236,0.82718 11.3775,4.27303 14.59375,9.84375 4.1995,7.27375 3.33649,16.08465 -1.5,22.34375 -0.34903,0.45169 -0.70363,0.88907 -1.09375,1.3125 -0.055,0.061 -0.10045,0.12708 -0.15625,0.1875 -0.39705,0.42056 -0.81252,0.83018 -1.25,1.21875 -1.04515,0.94973 -2.19564,1.82747 -3.46875,2.5625 -9.59835,5.54161 -21.86464,2.2546 -27.40625,-7.34375 -0.34635,-0.59991 -0.65951,-1.194 -0.9375,-1.8125 l -7.6875,-13.34375 c -1.65546,1.30774 -3.28169,2.6511 -4.875,4.03125 -0.75122,0.65405 -1.51308,1.29898 -2.25,1.96875 -0.0872,0.0788 -0.16301,0.17093 -0.25,0.25 -0.73445,0.67094 -1.46761,1.31365 -2.1875,2 -0.086,0.0816 -0.1642,0.16819 -0.25,0.25 -0.7503,0.71897 -1.48467,1.45204 -2.21875,2.1875 -0.0522,0.052 -0.10413,0.10413 -0.15625,0.15625 -0.7025,0.70603 -1.40644,1.43535 -2.09375,2.15625 -0.0811,0.0846 -0.16916,0.16521 -0.25,0.25 -0.68504,0.72215 -1.36167,1.45079 -2.03125,2.1875 -0.0795,0.087 -0.17074,0.16279 -0.25,0.25 -0.66793,0.73862 -1.31658,1.49711 -1.96875,2.25 -3.27941,3.78588 -6.35774,7.74799 -9.21875,11.875 0.60167,0.30718 1.49696,0.40288 2.46875,0.375 5.53385,-2.23982 11.99179,-1.99751 17.5625,1.21875 9.59835,5.54161 12.91661,17.8079 7.375,27.40625 -5.54161,9.59835 -17.83915,12.88536 -27.4375,7.34375 -0.59991,-0.34634 -1.16869,-0.69719 -1.71875,-1.09375 L 448.75,538.0625 c -5.01642,12.57432 -8.23067,26.05563 -9.375,40.125 0.67467,-0.0266 1.51144,-0.39335 2.34375,-0.90625 3.67252,-4.70665 9.37999,-7.71874 15.8125,-7.71875 11.08322,0 20.09375,8.97928 20.09375,20.0625 0,11.08322 -9.01053,20.0625 -20.09375,20.0625 -0.69271,0 -1.32537,-0.0254 -2,-0.0937 l -15.1875,0 c 1.26322,8.78269 3.33267,17.29289 6.15625,25.46875 0.17578,0.50196 0.34938,0.9992 0.53125,1.5 0.13806,0.38528 0.2649,0.77255 0.40625,1.15625 0.14463,0.38751 0.2892,0.76948 0.4375,1.15625 0.37123,0.96816 0.76192,1.94299 1.15625,2.90625 0.96252,2.3512 1.99546,4.6807 3.09375,7 0.67041,-0.27862 1.31331,-1.07969 1.84375,-2.0625 0.82717,-5.91234 4.24177,-11.40873 9.8125,-14.625 9.59835,-5.54161 21.89589,-2.28585 27.4375,7.3125 5.54161,9.59835 2.22335,21.89589 -7.375,27.4375 -0.5999,0.34635 -1.194,0.65951 -1.8125,0.9375 l -13.34375,7.6875 c 8.64472,10.97954 18.70095,20.39967 29.78125,28.09375 0.45718,-0.56555 0.59523,-1.64006 0.5625,-2.78125 -2.23982,-5.53383 -1.9975,-11.96053 1.21875,-17.53125 5.54161,-9.59835 17.8079,-12.88536 27.40625,-7.34375 9.59835,5.54161 12.88536,17.8079 7.34375,27.40625 -0.34636,0.5999 -0.69719,1.1687 -1.09375,1.71875 l -7.78125,13.4375 c 1.1025,0.44105 2.23095,0.83743 3.34375,1.25 0.8539,0.31658 1.70285,0.63777 2.5625,0.9375 0.0934,0.0326 0.18781,0.0614 0.28125,0.0937 0.94203,0.32355 1.89526,0.63419 2.84375,0.9375 0.11185,0.0361 0.23178,0.058 0.34375,0.0937 0.55819,0.17693 1.10777,0.35138 1.65625,0.53125 0.99329,0.30219 1.97192,0.59612 2.96875,0.875 0.26129,0.0731 0.51974,0.14725 0.78125,0.21875 0.24905,0.0657 0.50033,0.12085 0.75,0.1875 0.0511,0.0137 0.1051,0.0176 0.15625,0.0312 0.0222,0.006 0.041,0.0255 0.0625,0.0312 0.96269,0.25537 1.93827,0.51522 2.90625,0.75 0.11381,0.0279 0.2299,0.0661 0.34375,0.0937 0.12426,0.0298 0.2499,0.0646 0.375,0.0937 0.52981,0.12553 1.06321,0.22465 1.59375,0.34375 0.3243,0.0707 0.64777,0.14896 0.96875,0.21875 0.7083,0.15366 1.41559,0.29524 2.125,0.4375 0.24051,0.0482 0.47812,0.10932 0.71875,0.15625 0.13457,0.0252 0.27192,0.0366 0.40625,0.0625 1.24395,0.23954 2.49733,0.45022 3.75,0.65625 0.67657,0.11067 1.35406,0.21201 2.03125,0.3125 0.88705,0.13163 1.76837,0.29203 2.65625,0.40625 0.94991,0.12338 1.92272,0.20862 2.875,0.3125 1.1282,0.12307 2.24489,0.24831 3.375,0.34375 0.0163,-0.69663 -0.35836,-1.57969 -0.90625,-2.46875 -4.70667,-3.67254 -7.71875,-9.37999 -7.71875,-15.8125 0,-10.87319 8.64537,-19.76073 19.4375,-20.09375 0.20847,-0.006 0.41497,-0.0312 0.625,-0.0312 0.34635,0 0.6892,0.0138 1.03125,0.0312 10.79253,0.3326 19.4375,9.18931 19.4375,20.0625 0,0.6927 -0.0253,1.35662 -0.0937,2.03125 l 0,15.25 c 2.01715,-0.29763 4.03062,-0.61475 6.03125,-1 0.9776,-0.19081 1.96442,-0.38217 2.9375,-0.59375 0.11492,-0.0246 0.22888,-0.0688 0.34375,-0.0937 0.84526,-0.18604 1.69221,-0.33631 2.53125,-0.53125 0.12577,-0.0298 0.24928,-0.0636 0.375,-0.0937 0.10553,-0.0254 0.20763,-0.067 0.3125,-0.0937 0.01,-0.002 0.0214,0.002 0.0312,0 1.00927,-0.2475 1.99654,-0.51136 3,-0.78125 0.0712,-0.0189 0.14755,-0.0434 0.21875,-0.0625 0.9614,-0.26019 1.91933,-0.53184 2.875,-0.8125 0.11254,-0.0327 0.23135,-0.0607 0.34375,-0.0937 0.95434,-0.28288 1.92678,-0.57178 2.875,-0.875 0.11235,-0.0356 0.2315,-0.0579 0.34375,-0.0937 0.94776,-0.3057 1.87126,-0.64281 2.8125,-0.96875 4.81244,-1.66648 9.54248,-3.59317 14.15625,-5.78125 -0.27814,-0.66835 -1.10827,-1.31186 -2.09375,-1.84375 -5.91235,-0.82718 -11.37749,-4.24178 -14.59375,-9.8125 -5.54161,-9.59835 -2.28585,-21.89589 7.3125,-27.4375 9.59835,-5.54161 21.89589,-2.22335 27.4375,7.375 0.34635,0.5999 0.65951,1.194 0.9375,1.8125 l 7.6875,13.3125 c 10.53534,-8.34168 19.97141,-18.35212 27.9375,-29.875 -0.5935,-0.36776 -1.58319,-0.46738 -2.625,-0.4375 -5.53384,2.23982 -11.99178,1.99751 -17.5625,-1.21875 -9.59835,-5.54161 -12.88536,-17.8079 -7.34375,-27.40625 5.54161,-9.59835 17.8079,-12.88536 27.40625,-7.34375 0.5999,0.34636 1.16875,0.69711 1.71875,1.09375 l 13.28125,7.6875 c 3.30487,-8.2495 5.79239,-16.68242 7.4375,-25.1875 0.0987,-0.5226 0.18836,-1.03786 0.28125,-1.5625 0.0731,-0.40269 0.14931,-0.81578 0.21875,-1.21875 0.0685,-0.40791 0.15379,-0.80965 0.21875,-1.21875 0.16258,-1.02407 0.29737,-2.06238 0.4375,-3.09375 0.33688,-2.47955 0.6051,-4.98137 0.8125,-7.5 -0.67728,0.0297 -1.50965,0.39224 -2.34375,0.90625 -3.67254,4.70666 -9.37999,7.71875 -15.8125,7.71875 -11.08322,0 -20.09375,-8.97928 -20.09375,-20.0625 0,-11.08322 9.01053,-20.0625 20.09375,-20.0625 0.69271,-10e-6 1.35661,0.0253 2.03125,0.0937 l 15.1875,0 c -2.00204,-13.94826 -6.09113,-27.20701 -11.90625,-39.5 -0.60455,0.33561 -1.16713,1.12503 -1.65625,2.03125 -0.82717,5.91234 -4.24178,11.37749 -9.8125,14.59375 -9.59835,5.54161 -21.89589,2.2546 -27.4375,-7.34375 -5.54161,-9.59835 -2.22335,-21.86464 7.375,-27.40625 0.5999,-0.34635 1.1628,-0.65942 1.78125,-0.9375 l 13.21875,-7.625 c -1.32432,-1.67872 -2.66372,-3.32269 -4.0625,-4.9375 -0.65405,-0.75122 -1.33024,-1.48183 -2,-2.21875 -0.0788,-0.0872 -0.17088,-0.19435 -0.25,-0.28125 -0.67095,-0.73445 -1.31365,-1.46761 -2,-2.1875 -0.0816,-0.086 -0.16819,-0.1642 -0.25,-0.25 -0.71896,-0.7503 -1.45205,-1.45342 -2.1875,-2.1875 -0.052,-0.0522 -0.10415,-0.10411 -0.15625,-0.15625 -0.70603,-0.7025 -1.4041,-1.43769 -2.125,-2.125 -0.0846,-0.0811 -0.19645,-0.16918 -0.28125,-0.25 -0.72215,-0.68505 -1.4508,-1.36167 -2.1875,-2.03125 -0.087,-0.0795 -0.16272,-0.17086 -0.25,-0.25 -0.73861,-0.66793 -1.4971,-1.28533 -2.25,-1.9375 -3.77344,-3.26863 -7.73084,-6.36532 -11.84375,-9.21875 -0.45005,0.57325 -0.62605,1.62401 -0.59375,2.75 0.10667,0.27282 0.2179,0.5356 0.3125,0.8125 0.0294,0.0824 0.0654,0.16723 0.0937,0.25 0.0879,0.26893 0.14227,0.54027 0.21875,0.8125 1.50776,5.08667 1.05006,10.7294 -1.8125,15.6875 -5.54161,9.59835 -17.8079,12.91661 -27.40625,7.375 -2.47751,-1.43039 -4.50052,-3.33198 -6.09375,-5.5 -0.39071,-0.53166 -0.75946,-1.06115 -1.09375,-1.625 -0.29351,-0.48033 -0.56135,-0.96749 -0.8125,-1.46875 -2.9262,-5.84012 -2.97746,-13.01649 0.53125,-19.09375 0.34635,-0.59989 0.6972,-1.13746 1.09375,-1.6875 l 7.65625,-13.28125 c -12.43183,-4.93681 -25.73387,-8.12291 -39.625,-9.28125 z M 577.625,575 c 8.26704,0 15,6.48272 15,14.5 0,8.01728 -6.73296,14.53125 -15,14.53125 -8.26704,0 -14.96875,-6.51397 -14.96875,-14.53125 0,-8.01728 6.70171,-14.5 14.96875,-14.5 z"
       id="path2985"
       inkscape:connector-curvature="0" />
  </g>
</svg>
